<?xml version="1.0" encoding="utf-8" standalone="no"?>
<!DOCTYPE svg PUBLIC "-//W3C//DTD SVG 1.1//EN"
  "http://www.w3.org/Graphics/SVG/1.1/DTD/svg11.dtd">
<svg xmlns:xlink="http://www.w3.org/1999/xlink" width="432pt" height="288pt" viewBox="0 0 432 288" xmlns="http://www.w3.org/2000/svg" version="1.1">
 <metadata>
  <rdf:RDF xmlns:dc="http://purl.org/dc/elements/1.1/" xmlns:cc="http://creativecommons.org/ns#" xmlns:rdf="http://www.w3.org/1999/02/22-rdf-syntax-ns#">
   <cc:Work>
    <dc:type rdf:resource="http://purl.org/dc/dcmitype/StillImage"/>
    <dc:date>2022-10-31T09:23:18.628409</dc:date>
    <dc:format>image/svg+xml</dc:format>
    <dc:creator>
     <cc:Agent>
      <dc:title>Matplotlib v3.5.1, https://matplotlib.org/</dc:title>
     </cc:Agent>
    </dc:creator>
   </cc:Work>
  </rdf:RDF>
 </metadata>
 <defs>
  <style type="text/css">*{stroke-linejoin: round; stroke-linecap: butt}</style>
 </defs>
 <g id="figure_1">
  <g id="patch_1">
   <path d="M 0 288 
L 432 288 
L 432 0 
L 0 0 
L 0 288 
z
" style="fill: none"/>
  </g>
  <g id="axes_1">
   <g id="patch_2">
    <path d="M 54 252 
L 388.8 252 
L 388.8 34.56 
L 54 34.56 
z
" style="fill: #ffffff"/>
   </g>
   <g id="PolyCollection_1">
    <path d="M 69.218182 54.987774 
L 69.218182 242.116364 
L 106.211705 197.524884 
L 128.029134 181.104355 
L 143.605336 173.961373 
L 155.755343 167.774 
L 165.736018 164.890837 
L 174.218739 162.279589 
L 181.604627 160.449899 
L 188.152583 161.032399 
L 194.039473 158.522058 
L 199.391495 157.995811 
L 204.301858 156.579429 
L 208.841365 155.686226 
L 213.065064 154.97195 
L 217.0166 154.676729 
L 220.731165 154.787178 
L 224.237546 153.761121 
L 227.559593 153.989929 
L 230.717286 153.183601 
L 233.72753 153.473984 
L 236.604754 152.908481 
L 239.361375 152.691531 
L 242.008153 152.472835 
L 244.554474 152.248507 
L 247.008574 152.449991 
L 249.37772 152.184097 
L 251.668359 152.059615 
L 253.886229 151.762647 
L 256.03647 151.550514 
L 258.123694 151.49259 
L 260.152063 151.578827 
L 262.125342 151.305882 
L 264.046946 151.235387 
L 265.919987 151.274482 
L 267.747305 151.129536 
L 269.5315 150.940464 
L 271.274959 150.840654 
L 272.979878 150.653417 
L 274.64828 150.869169 
L 276.282037 150.790498 
L 277.882881 150.569284 
L 279.452418 150.612098 
L 280.992142 150.696675 
L 282.503444 150.646169 
L 283.987621 150.409342 
L 285.445883 150.397169 
L 286.879363 150.452343 
L 288.289123 150.275017 
L 289.676159 150.381943 
L 291.041407 150.329498 
L 292.385745 150.300734 
L 293.710003 150.15226 
L 295.014963 150.22573 
L 296.30136 150.055448 
L 297.569893 150.126506 
L 298.82122 150.098165 
L 300.055965 150.049298 
L 301.27472 150.013041 
L 302.478046 149.927608 
L 303.666476 149.94526 
L 304.840517 149.899094 
L 306.00065 149.902515 
L 307.147333 149.894294 
L 308.281004 149.864723 
L 309.40208 149.832225 
L 310.510957 149.792727 
L 311.608015 149.805354 
L 312.693617 149.812029 
L 313.768109 149.710877 
L 314.831824 149.793086 
L 315.885079 149.680674 
L 316.928178 149.749105 
L 317.961413 149.671006 
L 318.985063 149.703125 
L 319.999398 149.648228 
L 321.004675 149.704123 
L 322.001142 149.573093 
L 322.989036 149.646016 
L 323.968587 149.614316 
L 324.940015 149.602353 
L 325.903532 149.630008 
L 326.859342 149.609437 
L 327.807642 149.622053 
L 328.748622 149.541574 
L 329.682465 149.538537 
L 330.609348 149.563517 
L 331.52944 149.542196 
L 332.442906 149.553124 
L 333.349906 149.497938 
L 334.250593 149.573147 
L 335.145115 149.565965 
L 336.033616 149.516459 
L 336.916235 149.468533 
L 337.793106 149.511571 
L 338.66436 149.554704 
L 339.530122 149.568368 
L 340.390515 149.534757 
L 341.245658 149.503859 
L 342.095664 149.531618 
L 342.940646 149.571438 
L 343.78071 149.544483 
L 344.615963 149.538419 
L 345.446505 149.531479 
L 346.272435 149.58583 
L 347.09385 149.622535 
L 347.910841 149.538182 
L 348.7235 149.638776 
L 349.531915 149.609724 
L 350.336171 149.563036 
L 351.136351 149.705638 
L 351.932536 149.602625 
L 352.724804 149.638416 
L 353.513233 149.657967 
L 354.297897 149.706961 
L 355.078868 149.723066 
L 355.856217 149.788852 
L 356.630012 149.779152 
L 357.400322 149.838357 
L 358.16721 149.811593 
L 358.930741 149.981707 
L 359.690977 149.845635 
L 360.447979 150.011183 
L 361.201805 149.948748 
L 361.952513 150.173229 
L 362.700159 150.140631 
L 363.444798 150.198941 
L 364.186483 150.26827 
L 364.925268 150.344688 
L 365.661202 150.330374 
L 366.394335 150.712181 
L 367.124717 150.798791 
L 367.852395 150.895073 
L 368.577414 151.058234 
L 369.299822 151.224596 
L 370.019661 151.46619 
L 370.736975 151.898122 
L 371.451807 152.393939 
L 372.164198 153.556091 
L 372.874188 154.200142 
L 373.581818 155.760797 
L 373.581818 141.875799 
L 373.581818 141.875799 
L 372.874188 143.038555 
L 372.164198 144.310547 
L 371.451807 144.575224 
L 370.736975 145.426016 
L 370.019661 145.759742 
L 369.299822 145.972772 
L 368.577414 146.201083 
L 367.852395 146.398041 
L 367.124717 146.688061 
L 366.394335 146.835972 
L 365.661202 146.778759 
L 364.925268 146.850973 
L 364.186483 147.093269 
L 363.444798 147.174213 
L 362.700159 147.199991 
L 361.952513 147.28085 
L 361.201805 147.215058 
L 360.447979 147.372236 
L 359.690977 147.462732 
L 358.930741 147.558027 
L 358.16721 147.569571 
L 357.400322 147.561752 
L 356.630012 147.562622 
L 355.856217 147.589131 
L 355.078868 147.611741 
L 354.297897 147.571421 
L 353.513233 147.697026 
L 352.724804 147.668388 
L 351.932536 147.659459 
L 351.136351 147.664961 
L 350.336171 147.670535 
L 349.531915 147.746172 
L 348.7235 147.737126 
L 347.910841 147.736964 
L 347.09385 147.827072 
L 346.272435 147.741088 
L 345.446505 147.774332 
L 344.615963 147.790534 
L 343.78071 147.80077 
L 342.940646 147.819079 
L 342.095664 147.799677 
L 341.245658 147.792661 
L 340.390515 147.755122 
L 339.530122 147.827313 
L 338.66436 147.855648 
L 337.793106 147.753813 
L 336.916235 147.775722 
L 336.033616 147.854121 
L 335.145115 147.792303 
L 334.250593 147.788261 
L 333.349906 147.781502 
L 332.442906 147.778425 
L 331.52944 147.772749 
L 330.609348 147.751011 
L 329.682465 147.858143 
L 328.748622 147.74967 
L 327.807642 147.767304 
L 326.859342 147.736475 
L 325.903532 147.698624 
L 324.940015 147.719682 
L 323.968587 147.741215 
L 322.989036 147.737096 
L 322.001142 147.664878 
L 321.004675 147.742301 
L 319.999398 147.621004 
L 318.985063 147.656559 
L 317.961413 147.549359 
L 316.928178 147.662397 
L 315.885079 147.549351 
L 314.831824 147.573925 
L 313.768109 147.49069 
L 312.693617 147.593305 
L 311.608015 147.515618 
L 310.510957 147.558256 
L 309.40208 147.470976 
L 308.281004 147.46642 
L 307.147333 147.440244 
L 306.00065 147.413717 
L 304.840517 147.46539 
L 303.666476 147.343509 
L 302.478046 147.370035 
L 301.27472 147.333215 
L 300.055965 147.352024 
L 298.82122 147.313773 
L 297.569893 147.241061 
L 296.30136 147.212954 
L 295.014963 147.172383 
L 293.710003 147.17264 
L 292.385745 147.171288 
L 291.041407 147.056819 
L 289.676159 146.980419 
L 288.289123 147.021374 
L 286.879363 147.037966 
L 285.445883 146.868595 
L 283.987621 146.907813 
L 282.503444 146.915169 
L 280.992142 146.728612 
L 279.452418 146.662401 
L 277.882881 146.581007 
L 276.282037 146.525421 
L 274.64828 146.560161 
L 272.979878 146.360599 
L 271.274959 146.21243 
L 269.5315 146.32952 
L 267.747305 146.135849 
L 265.919987 146.25071 
L 264.046946 145.923524 
L 262.125342 145.894177 
L 260.152063 145.954626 
L 258.123694 145.681069 
L 256.03647 145.556155 
L 253.886229 145.489543 
L 251.668359 145.673336 
L 249.37772 145.20466 
L 247.008574 145.217012 
L 244.554474 145.024208 
L 242.008153 144.414816 
L 239.361375 144.243201 
L 236.604754 144.197304 
L 233.72753 144.214528 
L 230.717286 143.961638 
L 227.559593 143.19376 
L 224.237546 142.988421 
L 220.731165 142.814136 
L 217.0166 142.214564 
L 213.065064 141.816632 
L 208.841365 141.674018 
L 204.301858 140.952049 
L 199.391495 139.415772 
L 194.039473 138.478085 
L 188.152583 138.230948 
L 181.604627 135.599819 
L 174.218739 134.340333 
L 165.736018 132.109242 
L 155.755343 129.408833 
L 143.605336 124.710828 
L 128.029134 114.131925 
L 106.211705 99.216283 
L 69.218182 54.987774 
z
" clip-path="url(#p0bf8d9348e)" style="fill: #1f77b4; fill-opacity: 0.1"/>
   </g>
   <g id="PolyCollection_2">
    <path d="M 69.218182 44.443636 
L 69.218182 172.285361 
L 106.211705 183.370953 
L 128.029134 175.262127 
L 143.605336 171.004759 
L 155.755343 166.091022 
L 165.736018 163.773991 
L 174.218739 161.394298 
L 181.604627 159.775765 
L 188.152583 160.38144 
L 194.039473 157.955316 
L 199.391495 157.52348 
L 204.301858 156.124374 
L 208.841365 155.247704 
L 213.065064 154.509486 
L 217.0166 154.194672 
L 220.731165 154.273375 
L 224.237546 153.226229 
L 227.559593 153.419808 
L 230.717286 152.534412 
L 233.72753 152.77976 
L 236.604754 152.171635 
L 239.361375 151.897053 
L 242.008153 151.616602 
L 244.554474 151.282242 
L 247.008574 151.41069 
L 249.37772 151.082467 
L 251.668359 150.812349 
L 253.886229 150.449167 
L 256.03647 150.164945 
L 258.123694 150.021754 
L 260.152063 149.93386 
L 262.125342 149.577848 
L 264.046946 149.419102 
L 265.919987 149.265607 
L 267.747305 149.02305 
L 269.5315 148.637673 
L 271.274959 148.433589 
L 272.979878 148.036265 
L 274.64828 148.122778 
L 276.282037 147.932216 
L 277.882881 147.486449 
L 279.452418 147.396003 
L 280.992142 147.217096 
L 282.503444 147.040947 
L 283.987621 146.543373 
L 285.445883 146.405149 
L 286.879363 146.16202 
L 288.289123 145.708716 
L 289.676159 145.653637 
L 291.041407 145.294573 
L 292.385745 145.10203 
L 293.710003 144.649521 
L 295.014963 144.383444 
L 296.30136 144.060696 
L 297.569893 143.77548 
L 298.82122 143.390823 
L 300.055965 142.980565 
L 301.27472 142.761472 
L 302.478046 142.311176 
L 303.666476 141.934867 
L 304.840517 141.492889 
L 306.00065 141.288964 
L 307.147333 140.867625 
L 308.281004 140.424447 
L 309.40208 139.96495 
L 310.510957 139.488996 
L 311.608015 139.040372 
L 312.693617 138.586268 
L 313.768109 138.044366 
L 314.831824 137.619757 
L 315.885079 137.054592 
L 316.928178 136.609535 
L 317.961413 136.05069 
L 318.985063 135.556479 
L 319.999398 134.998516 
L 321.004675 134.508346 
L 322.001142 133.888817 
L 322.989036 133.385551 
L 323.968587 132.81618 
L 324.940015 132.249126 
L 325.903532 131.417203 
L 326.859342 130.82634 
L 327.807642 130.249016 
L 328.748622 129.61404 
L 329.682465 128.711539 
L 330.609348 128.119823 
L 331.52944 127.496634 
L 332.442906 126.570353 
L 333.349906 125.917142 
L 334.250593 125.321824 
L 335.145115 124.358924 
L 336.033616 123.689857 
L 336.916235 122.691887 
L 337.793106 122.054406 
L 338.66436 121.080236 
L 339.530122 120.419222 
L 340.390515 119.398261 
L 341.245658 118.371478 
L 342.095664 117.70247 
L 342.940646 116.690741 
L 343.78071 115.994639 
L 344.615963 114.96054 
L 345.446505 113.91686 
L 346.272435 112.890581 
L 347.09385 112.206593 
L 347.910841 111.12941 
L 348.7235 110.109862 
L 349.531915 109.049252 
L 350.336171 107.991475 
L 351.136351 106.970591 
L 351.932536 105.893717 
L 352.724804 104.853195 
L 353.513233 103.810172 
L 354.297897 102.77427 
L 355.078868 101.736255 
L 355.856217 100.711941 
L 356.630012 99.671471 
L 357.400322 98.650108 
L 358.16721 97.282448 
L 358.930741 96.296454 
L 359.690977 95.254348 
L 360.447979 94.272719 
L 361.201805 92.942036 
L 361.952513 91.979695 
L 362.700159 90.999895 
L 363.444798 89.712063 
L 364.186483 88.765327 
L 364.925268 87.516397 
L 365.661202 86.568554 
L 366.394335 85.373921 
L 367.124717 84.16997 
L 367.852395 83.27877 
L 368.577414 82.119715 
L 369.299822 80.965719 
L 370.019661 80.130299 
L 370.736975 79.033779 
L 371.451807 77.957001 
L 372.164198 76.912427 
L 372.874188 75.879351 
L 373.581818 74.869795 
L 373.581818 74.487209 
L 373.581818 74.487209 
L 372.874188 75.47371 
L 372.164198 76.505706 
L 371.451807 77.535103 
L 370.736975 78.621034 
L 370.019661 79.715278 
L 369.299822 80.553664 
L 368.577414 81.696499 
L 367.852395 82.838196 
L 367.124717 83.737919 
L 366.394335 84.931519 
L 365.661202 86.132379 
L 364.925268 87.053023 
L 364.186483 88.314897 
L 363.444798 89.267901 
L 362.700159 90.538421 
L 361.952513 91.505732 
L 361.201805 92.476346 
L 360.447979 93.80053 
L 359.690977 94.801402 
L 358.930741 95.8137 
L 358.16721 96.820359 
L 357.400322 98.161517 
L 356.630012 99.174519 
L 355.856217 100.204437 
L 355.078868 101.239068 
L 354.297897 102.254343 
L 353.513233 103.310098 
L 352.724804 104.339673 
L 351.932536 105.369764 
L 351.136351 106.40996 
L 350.336171 107.443131 
L 349.531915 108.502415 
L 348.7235 109.536088 
L 347.910841 110.560933 
L 347.09385 111.620654 
L 346.272435 112.279521 
L 345.446505 113.316441 
L 344.615963 114.339627 
L 343.78071 115.35703 
L 342.940646 116.037109 
L 342.095664 117.033868 
L 341.245658 117.696605 
L 340.390515 118.672266 
L 339.530122 119.68536 
L 338.66436 120.348771 
L 337.793106 121.271548 
L 336.916235 121.921644 
L 336.033616 122.906891 
L 335.145115 123.505612 
L 334.250593 124.436394 
L 333.349906 125.045452 
L 332.442906 125.650008 
L 331.52944 126.550872 
L 330.609348 127.132409 
L 329.682465 127.777518 
L 328.748622 128.586772 
L 327.807642 129.167466 
L 326.859342 129.714604 
L 325.903532 130.24212 
L 324.940015 131.07744 
L 323.968587 131.630267 
L 322.989036 132.153985 
L 322.001142 132.631357 
L 321.004675 133.196098 
L 319.999398 133.624058 
L 318.985063 134.143801 
L 317.961413 134.564926 
L 316.928178 135.123911 
L 315.885079 135.514707 
L 314.831824 135.994778 
L 313.768109 136.38891 
L 312.693617 136.914917 
L 311.608015 137.295949 
L 310.510957 137.755444 
L 309.40208 138.105439 
L 308.281004 138.514766 
L 307.147333 138.897139 
L 306.00065 139.268532 
L 304.840517 139.501357 
L 303.666476 139.781681 
L 302.478046 140.169491 
L 301.27472 140.503406 
L 300.055965 140.698146 
L 298.82122 141.005775 
L 297.569893 141.280748 
L 296.30136 141.591857 
L 295.014963 141.713872 
L 293.710003 142.019511 
L 292.385745 142.324129 
L 291.041407 142.37743 
L 289.676159 142.591103 
L 288.289123 142.772712 
L 286.879363 143.060453 
L 285.445883 143.168424 
L 283.987621 143.338373 
L 282.503444 143.595175 
L 280.992142 143.540714 
L 279.452418 143.716909 
L 277.882881 143.752854 
L 276.282037 143.921894 
L 274.64828 144.063319 
L 272.979878 143.970026 
L 271.274959 144.033089 
L 269.5315 144.242423 
L 267.747305 144.245251 
L 265.919987 144.443946 
L 264.046946 144.303966 
L 262.125342 144.355927 
L 260.152063 144.491711 
L 258.123694 144.378836 
L 256.03647 144.328377 
L 253.886229 144.334462 
L 251.668359 144.585128 
L 249.37772 144.250853 
L 247.008574 144.324069 
L 244.554474 144.187535 
L 242.008153 143.689433 
L 239.361375 143.570791 
L 236.604754 143.566796 
L 233.72753 143.633808 
L 230.717286 143.428884 
L 227.559593 142.727804 
L 224.237546 142.560417 
L 220.731165 142.418398 
L 217.0166 141.826311 
L 213.065064 141.451795 
L 208.841365 141.330628 
L 204.301858 140.61691 
L 199.391495 139.033453 
L 194.039473 138.065875 
L 188.152583 137.832389 
L 181.604627 135.097906 
L 174.218739 133.758294 
L 165.736018 131.273033 
L 155.755343 128.242267 
L 143.605336 122.95026 
L 128.029134 111.562985 
L 106.211705 93.652819 
L 69.218182 44.443636 
z
" clip-path="url(#p0bf8d9348e)" style="fill: #ff7f0e; fill-opacity: 0.1"/>
   </g>
   <g id="matplotlib.axis_1">
    <g id="xtick_1">
     <g id="line2d_1">
      <defs>
       <path id="m533aaebc69" d="M 0 0 
L 0 3.5 
" style="stroke: #000000; stroke-width: 0.8"/>
      </defs>
      <g>
       <use xlink:href="#m533aaebc69" x="69.218182" y="252" style="stroke: #000000; stroke-width: 0.8"/>
      </g>
     </g>
     <g id="text_1">
      <!-- $\mathdefault{10^{-2}}$ -->
      <g transform="translate(57.468182 266.598437)scale(0.1 -0.1)">
       <defs>
        <path id="DejaVuSans-31" d="M 794 531 
L 1825 531 
L 1825 4091 
L 703 3866 
L 703 4441 
L 1819 4666 
L 2450 4666 
L 2450 531 
L 3481 531 
L 3481 0 
L 794 0 
L 794 531 
z
" transform="scale(0.015625)"/>
        <path id="DejaVuSans-30" d="M 2034 4250 
Q 1547 4250 1301 3770 
Q 1056 3291 1056 2328 
Q 1056 1369 1301 889 
Q 1547 409 2034 409 
Q 2525 409 2770 889 
Q 3016 1369 3016 2328 
Q 3016 3291 2770 3770 
Q 2525 4250 2034 4250 
z
M 2034 4750 
Q 2819 4750 3233 4129 
Q 3647 3509 3647 2328 
Q 3647 1150 3233 529 
Q 2819 -91 2034 -91 
Q 1250 -91 836 529 
Q 422 1150 422 2328 
Q 422 3509 836 4129 
Q 1250 4750 2034 4750 
z
" transform="scale(0.015625)"/>
        <path id="DejaVuSans-2212" d="M 678 2272 
L 4684 2272 
L 4684 1741 
L 678 1741 
L 678 2272 
z
" transform="scale(0.015625)"/>
        <path id="DejaVuSans-32" d="M 1228 531 
L 3431 531 
L 3431 0 
L 469 0 
L 469 531 
Q 828 903 1448 1529 
Q 2069 2156 2228 2338 
Q 2531 2678 2651 2914 
Q 2772 3150 2772 3378 
Q 2772 3750 2511 3984 
Q 2250 4219 1831 4219 
Q 1534 4219 1204 4116 
Q 875 4013 500 3803 
L 500 4441 
Q 881 4594 1212 4672 
Q 1544 4750 1819 4750 
Q 2544 4750 2975 4387 
Q 3406 4025 3406 3419 
Q 3406 3131 3298 2873 
Q 3191 2616 2906 2266 
Q 2828 2175 2409 1742 
Q 1991 1309 1228 531 
z
" transform="scale(0.015625)"/>
       </defs>
       <use xlink:href="#DejaVuSans-31" transform="translate(0 0.765625)"/>
       <use xlink:href="#DejaVuSans-30" transform="translate(63.623047 0.765625)"/>
       <use xlink:href="#DejaVuSans-2212" transform="translate(128.203125 39.046875)scale(0.7)"/>
       <use xlink:href="#DejaVuSans-32" transform="translate(186.855469 39.046875)scale(0.7)"/>
      </g>
     </g>
    </g>
    <g id="xtick_2">
     <g id="line2d_2">
      <g>
       <use xlink:href="#m533aaebc69" x="192.108005" y="252" style="stroke: #000000; stroke-width: 0.8"/>
      </g>
     </g>
     <g id="text_2">
      <!-- $\mathdefault{10^{-1}}$ -->
      <g transform="translate(180.358005 266.598437)scale(0.1 -0.1)">
       <use xlink:href="#DejaVuSans-31" transform="translate(0 0.684375)"/>
       <use xlink:href="#DejaVuSans-30" transform="translate(63.623047 0.684375)"/>
       <use xlink:href="#DejaVuSans-2212" transform="translate(128.203125 38.965625)scale(0.7)"/>
       <use xlink:href="#DejaVuSans-31" transform="translate(186.855469 38.965625)scale(0.7)"/>
      </g>
     </g>
    </g>
    <g id="xtick_3">
     <g id="line2d_3">
      <g>
       <use xlink:href="#m533aaebc69" x="314.997827" y="252" style="stroke: #000000; stroke-width: 0.8"/>
      </g>
     </g>
     <g id="text_3">
      <!-- $\mathdefault{10^{0}}$ -->
      <g transform="translate(306.197827 266.598437)scale(0.1 -0.1)">
       <use xlink:href="#DejaVuSans-31" transform="translate(0 0.765625)"/>
       <use xlink:href="#DejaVuSans-30" transform="translate(63.623047 0.765625)"/>
       <use xlink:href="#DejaVuSans-30" transform="translate(128.203125 39.046875)scale(0.7)"/>
      </g>
     </g>
    </g>
    <g id="xtick_4">
     <g id="line2d_4">
      <defs>
       <path id="m5f4e1ddd9b" d="M 0 0 
L 0 2 
" style="stroke: #000000; stroke-width: 0.6"/>
      </defs>
      <g>
       <use xlink:href="#m5f4e1ddd9b" x="57.308927" y="252" style="stroke: #000000; stroke-width: 0.6"/>
      </g>
     </g>
    </g>
    <g id="xtick_5">
     <g id="line2d_5">
      <g>
       <use xlink:href="#m5f4e1ddd9b" x="63.595052" y="252" style="stroke: #000000; stroke-width: 0.6"/>
      </g>
     </g>
    </g>
    <g id="xtick_6">
     <g id="line2d_6">
      <g>
       <use xlink:href="#m5f4e1ddd9b" x="106.211705" y="252" style="stroke: #000000; stroke-width: 0.6"/>
      </g>
     </g>
    </g>
    <g id="xtick_7">
     <g id="line2d_7">
      <g>
       <use xlink:href="#m5f4e1ddd9b" x="127.851528" y="252" style="stroke: #000000; stroke-width: 0.6"/>
      </g>
     </g>
    </g>
    <g id="xtick_8">
     <g id="line2d_8">
      <g>
       <use xlink:href="#m5f4e1ddd9b" x="143.205227" y="252" style="stroke: #000000; stroke-width: 0.6"/>
      </g>
     </g>
    </g>
    <g id="xtick_9">
     <g id="line2d_9">
      <g>
       <use xlink:href="#m5f4e1ddd9b" x="155.114482" y="252" style="stroke: #000000; stroke-width: 0.6"/>
      </g>
     </g>
    </g>
    <g id="xtick_10">
     <g id="line2d_10">
      <g>
       <use xlink:href="#m5f4e1ddd9b" x="164.845051" y="252" style="stroke: #000000; stroke-width: 0.6"/>
      </g>
     </g>
    </g>
    <g id="xtick_11">
     <g id="line2d_11">
      <g>
       <use xlink:href="#m5f4e1ddd9b" x="173.07213" y="252" style="stroke: #000000; stroke-width: 0.6"/>
      </g>
     </g>
    </g>
    <g id="xtick_12">
     <g id="line2d_12">
      <g>
       <use xlink:href="#m5f4e1ddd9b" x="180.19875" y="252" style="stroke: #000000; stroke-width: 0.6"/>
      </g>
     </g>
    </g>
    <g id="xtick_13">
     <g id="line2d_13">
      <g>
       <use xlink:href="#m5f4e1ddd9b" x="186.484875" y="252" style="stroke: #000000; stroke-width: 0.6"/>
      </g>
     </g>
    </g>
    <g id="xtick_14">
     <g id="line2d_14">
      <g>
       <use xlink:href="#m5f4e1ddd9b" x="229.101527" y="252" style="stroke: #000000; stroke-width: 0.6"/>
      </g>
     </g>
    </g>
    <g id="xtick_15">
     <g id="line2d_15">
      <g>
       <use xlink:href="#m5f4e1ddd9b" x="250.741351" y="252" style="stroke: #000000; stroke-width: 0.6"/>
      </g>
     </g>
    </g>
    <g id="xtick_16">
     <g id="line2d_16">
      <g>
       <use xlink:href="#m5f4e1ddd9b" x="266.09505" y="252" style="stroke: #000000; stroke-width: 0.6"/>
      </g>
     </g>
    </g>
    <g id="xtick_17">
     <g id="line2d_17">
      <g>
       <use xlink:href="#m5f4e1ddd9b" x="278.004305" y="252" style="stroke: #000000; stroke-width: 0.6"/>
      </g>
     </g>
    </g>
    <g id="xtick_18">
     <g id="line2d_18">
      <g>
       <use xlink:href="#m5f4e1ddd9b" x="287.734874" y="252" style="stroke: #000000; stroke-width: 0.6"/>
      </g>
     </g>
    </g>
    <g id="xtick_19">
     <g id="line2d_19">
      <g>
       <use xlink:href="#m5f4e1ddd9b" x="295.961953" y="252" style="stroke: #000000; stroke-width: 0.6"/>
      </g>
     </g>
    </g>
    <g id="xtick_20">
     <g id="line2d_20">
      <g>
       <use xlink:href="#m5f4e1ddd9b" x="303.088573" y="252" style="stroke: #000000; stroke-width: 0.6"/>
      </g>
     </g>
    </g>
    <g id="xtick_21">
     <g id="line2d_21">
      <g>
       <use xlink:href="#m5f4e1ddd9b" x="309.374698" y="252" style="stroke: #000000; stroke-width: 0.6"/>
      </g>
     </g>
    </g>
    <g id="xtick_22">
     <g id="line2d_22">
      <g>
       <use xlink:href="#m5f4e1ddd9b" x="351.99135" y="252" style="stroke: #000000; stroke-width: 0.6"/>
      </g>
     </g>
    </g>
    <g id="xtick_23">
     <g id="line2d_23">
      <g>
       <use xlink:href="#m5f4e1ddd9b" x="373.631174" y="252" style="stroke: #000000; stroke-width: 0.6"/>
      </g>
     </g>
    </g>
    <g id="text_4">
     <!-- Step size -->
     <g transform="translate(198.73125 280.276563)scale(0.1 -0.1)">
      <defs>
       <path id="DejaVuSans-53" d="M 3425 4513 
L 3425 3897 
Q 3066 4069 2747 4153 
Q 2428 4238 2131 4238 
Q 1616 4238 1336 4038 
Q 1056 3838 1056 3469 
Q 1056 3159 1242 3001 
Q 1428 2844 1947 2747 
L 2328 2669 
Q 3034 2534 3370 2195 
Q 3706 1856 3706 1288 
Q 3706 609 3251 259 
Q 2797 -91 1919 -91 
Q 1588 -91 1214 -16 
Q 841 59 441 206 
L 441 856 
Q 825 641 1194 531 
Q 1563 422 1919 422 
Q 2459 422 2753 634 
Q 3047 847 3047 1241 
Q 3047 1584 2836 1778 
Q 2625 1972 2144 2069 
L 1759 2144 
Q 1053 2284 737 2584 
Q 422 2884 422 3419 
Q 422 4038 858 4394 
Q 1294 4750 2059 4750 
Q 2388 4750 2728 4690 
Q 3069 4631 3425 4513 
z
" transform="scale(0.015625)"/>
       <path id="DejaVuSans-74" d="M 1172 4494 
L 1172 3500 
L 2356 3500 
L 2356 3053 
L 1172 3053 
L 1172 1153 
Q 1172 725 1289 603 
Q 1406 481 1766 481 
L 2356 481 
L 2356 0 
L 1766 0 
Q 1100 0 847 248 
Q 594 497 594 1153 
L 594 3053 
L 172 3053 
L 172 3500 
L 594 3500 
L 594 4494 
L 1172 4494 
z
" transform="scale(0.015625)"/>
       <path id="DejaVuSans-65" d="M 3597 1894 
L 3597 1613 
L 953 1613 
Q 991 1019 1311 708 
Q 1631 397 2203 397 
Q 2534 397 2845 478 
Q 3156 559 3463 722 
L 3463 178 
Q 3153 47 2828 -22 
Q 2503 -91 2169 -91 
Q 1331 -91 842 396 
Q 353 884 353 1716 
Q 353 2575 817 3079 
Q 1281 3584 2069 3584 
Q 2775 3584 3186 3129 
Q 3597 2675 3597 1894 
z
M 3022 2063 
Q 3016 2534 2758 2815 
Q 2500 3097 2075 3097 
Q 1594 3097 1305 2825 
Q 1016 2553 972 2059 
L 3022 2063 
z
" transform="scale(0.015625)"/>
       <path id="DejaVuSans-70" d="M 1159 525 
L 1159 -1331 
L 581 -1331 
L 581 3500 
L 1159 3500 
L 1159 2969 
Q 1341 3281 1617 3432 
Q 1894 3584 2278 3584 
Q 2916 3584 3314 3078 
Q 3713 2572 3713 1747 
Q 3713 922 3314 415 
Q 2916 -91 2278 -91 
Q 1894 -91 1617 61 
Q 1341 213 1159 525 
z
M 3116 1747 
Q 3116 2381 2855 2742 
Q 2594 3103 2138 3103 
Q 1681 3103 1420 2742 
Q 1159 2381 1159 1747 
Q 1159 1113 1420 752 
Q 1681 391 2138 391 
Q 2594 391 2855 752 
Q 3116 1113 3116 1747 
z
" transform="scale(0.015625)"/>
       <path id="DejaVuSans-20" transform="scale(0.015625)"/>
       <path id="DejaVuSans-73" d="M 2834 3397 
L 2834 2853 
Q 2591 2978 2328 3040 
Q 2066 3103 1784 3103 
Q 1356 3103 1142 2972 
Q 928 2841 928 2578 
Q 928 2378 1081 2264 
Q 1234 2150 1697 2047 
L 1894 2003 
Q 2506 1872 2764 1633 
Q 3022 1394 3022 966 
Q 3022 478 2636 193 
Q 2250 -91 1575 -91 
Q 1294 -91 989 -36 
Q 684 19 347 128 
L 347 722 
Q 666 556 975 473 
Q 1284 391 1588 391 
Q 1994 391 2212 530 
Q 2431 669 2431 922 
Q 2431 1156 2273 1281 
Q 2116 1406 1581 1522 
L 1381 1569 
Q 847 1681 609 1914 
Q 372 2147 372 2553 
Q 372 3047 722 3315 
Q 1072 3584 1716 3584 
Q 2034 3584 2315 3537 
Q 2597 3491 2834 3397 
z
" transform="scale(0.015625)"/>
       <path id="DejaVuSans-69" d="M 603 3500 
L 1178 3500 
L 1178 0 
L 603 0 
L 603 3500 
z
M 603 4863 
L 1178 4863 
L 1178 4134 
L 603 4134 
L 603 4863 
z
" transform="scale(0.015625)"/>
       <path id="DejaVuSans-7a" d="M 353 3500 
L 3084 3500 
L 3084 2975 
L 922 459 
L 3084 459 
L 3084 0 
L 275 0 
L 275 525 
L 2438 3041 
L 353 3041 
L 353 3500 
z
" transform="scale(0.015625)"/>
      </defs>
      <use xlink:href="#DejaVuSans-53"/>
      <use xlink:href="#DejaVuSans-74" x="63.476562"/>
      <use xlink:href="#DejaVuSans-65" x="102.685547"/>
      <use xlink:href="#DejaVuSans-70" x="164.208984"/>
      <use xlink:href="#DejaVuSans-20" x="227.685547"/>
      <use xlink:href="#DejaVuSans-73" x="259.472656"/>
      <use xlink:href="#DejaVuSans-69" x="311.572266"/>
      <use xlink:href="#DejaVuSans-7a" x="339.355469"/>
      <use xlink:href="#DejaVuSans-65" x="391.845703"/>
     </g>
    </g>
   </g>
   <g id="matplotlib.axis_2">
    <g id="ytick_1">
     <g id="line2d_24">
      <defs>
       <path id="m91bcdf9c00" d="M 0 0 
L -3.5 0 
" style="stroke: #000000; stroke-width: 0.8"/>
      </defs>
      <g>
       <use xlink:href="#m91bcdf9c00" x="54" y="135.836799" style="stroke: #000000; stroke-width: 0.8"/>
      </g>
     </g>
     <g id="text_5">
      <!-- $\mathdefault{10^{-1}}$ -->
      <g transform="translate(23.5 139.636017)scale(0.1 -0.1)">
       <use xlink:href="#DejaVuSans-31" transform="translate(0 0.684375)"/>
       <use xlink:href="#DejaVuSans-30" transform="translate(63.623047 0.684375)"/>
       <use xlink:href="#DejaVuSans-2212" transform="translate(128.203125 38.965625)scale(0.7)"/>
       <use xlink:href="#DejaVuSans-31" transform="translate(186.855469 38.965625)scale(0.7)"/>
      </g>
     </g>
    </g>
    <g id="ytick_2">
     <g id="line2d_25">
      <defs>
       <path id="me178c53595" d="M 0 0 
L -2 0 
" style="stroke: #000000; stroke-width: 0.6"/>
      </defs>
      <g>
       <use xlink:href="#me178c53595" x="54" y="249.12554" style="stroke: #000000; stroke-width: 0.6"/>
      </g>
     </g>
    </g>
    <g id="ytick_3">
     <g id="line2d_26">
      <g>
       <use xlink:href="#me178c53595" x="54" y="220.584749" style="stroke: #000000; stroke-width: 0.6"/>
      </g>
     </g>
    </g>
    <g id="ytick_4">
     <g id="line2d_27">
      <g>
       <use xlink:href="#me178c53595" x="54" y="200.334735" style="stroke: #000000; stroke-width: 0.6"/>
      </g>
     </g>
    </g>
    <g id="ytick_5">
     <g id="line2d_28">
      <g>
       <use xlink:href="#me178c53595" x="54" y="184.627604" style="stroke: #000000; stroke-width: 0.6"/>
      </g>
     </g>
    </g>
    <g id="ytick_6">
     <g id="line2d_29">
      <g>
       <use xlink:href="#me178c53595" x="54" y="171.793944" style="stroke: #000000; stroke-width: 0.6"/>
      </g>
     </g>
    </g>
    <g id="ytick_7">
     <g id="line2d_30">
      <g>
       <use xlink:href="#me178c53595" x="54" y="160.943238" style="stroke: #000000; stroke-width: 0.6"/>
      </g>
     </g>
    </g>
    <g id="ytick_8">
     <g id="line2d_31">
      <g>
       <use xlink:href="#me178c53595" x="54" y="151.54393" style="stroke: #000000; stroke-width: 0.6"/>
      </g>
     </g>
    </g>
    <g id="ytick_9">
     <g id="line2d_32">
      <g>
       <use xlink:href="#me178c53595" x="54" y="143.253152" style="stroke: #000000; stroke-width: 0.6"/>
      </g>
     </g>
    </g>
    <g id="ytick_10">
     <g id="line2d_33">
      <g>
       <use xlink:href="#me178c53595" x="54" y="87.045993" style="stroke: #000000; stroke-width: 0.6"/>
      </g>
     </g>
    </g>
    <g id="ytick_11">
     <g id="line2d_34">
      <g>
       <use xlink:href="#me178c53595" x="54" y="58.505202" style="stroke: #000000; stroke-width: 0.6"/>
      </g>
     </g>
    </g>
    <g id="ytick_12">
     <g id="line2d_35">
      <g>
       <use xlink:href="#me178c53595" x="54" y="38.255188" style="stroke: #000000; stroke-width: 0.6"/>
      </g>
     </g>
    </g>
    <g id="text_6">
     <!-- MSE -->
     <g transform="translate(17.420313 153.927656)rotate(-90)scale(0.1 -0.1)">
      <defs>
       <path id="DejaVuSans-4d" d="M 628 4666 
L 1569 4666 
L 2759 1491 
L 3956 4666 
L 4897 4666 
L 4897 0 
L 4281 0 
L 4281 4097 
L 3078 897 
L 2444 897 
L 1241 4097 
L 1241 0 
L 628 0 
L 628 4666 
z
" transform="scale(0.015625)"/>
       <path id="DejaVuSans-45" d="M 628 4666 
L 3578 4666 
L 3578 4134 
L 1259 4134 
L 1259 2753 
L 3481 2753 
L 3481 2222 
L 1259 2222 
L 1259 531 
L 3634 531 
L 3634 0 
L 628 0 
L 628 4666 
z
" transform="scale(0.015625)"/>
      </defs>
      <use xlink:href="#DejaVuSans-4d"/>
      <use xlink:href="#DejaVuSans-53" x="86.279297"/>
      <use xlink:href="#DejaVuSans-45" x="149.755859"/>
     </g>
    </g>
   </g>
   <g id="line2d_36">
    <path d="M 69.218182 99.012314 
L 106.211705 132.444756 
L 128.029134 139.936531 
L 143.605336 145.113755 
L 155.755343 146.009347 
L 165.736018 146.608692 
L 174.218739 146.932762 
L 181.604627 146.933895 
L 188.152583 148.712425 
L 194.039473 147.789017 
L 204.301858 148.332946 
L 208.841365 148.332029 
L 213.065064 148.08741 
L 217.0166 148.170212 
L 220.731165 148.546394 
L 224.237546 148.168886 
L 227.559593 148.385063 
L 230.717286 148.421704 
L 233.72753 148.692112 
L 236.604754 148.418221 
L 242.008153 148.328582 
L 247.008574 148.740639 
L 249.37772 148.607909 
L 251.668359 148.794075 
L 253.886229 148.556236 
L 258.123694 148.52687 
L 260.152063 148.710569 
L 262.125342 148.548035 
L 264.046946 148.529361 
L 265.919987 148.717787 
L 267.747305 148.588418 
L 269.5315 148.597243 
L 272.979878 148.474288 
L 274.64828 148.681698 
L 279.452418 148.60955 
L 282.503444 148.755952 
L 285.445883 148.610773 
L 286.879363 148.724454 
L 288.289123 148.629398 
L 295.014963 148.682502 
L 297.569893 148.669 
L 301.27472 148.660376 
L 307.147333 148.656575 
L 358.16721 148.681656 
L 358.930741 148.759436 
L 359.690977 148.6441 
L 360.447979 148.679343 
L 361.201805 148.568633 
L 361.952513 148.712184 
L 363.444798 148.670332 
L 364.925268 148.576157 
L 365.661202 148.532169 
L 366.394335 148.747398 
L 370.736975 148.58771 
L 371.451807 148.376078 
L 372.164198 148.781631 
L 372.874188 148.398348 
L 373.581818 148.476487 
L 373.581818 148.476487 
" clip-path="url(#p0bf8d9348e)" style="fill: none; stroke: #1f77b4; stroke-width: 1.5; stroke-linecap: square"/>
   </g>
   <g id="line2d_37">
    <path d="M 69.218182 82.626798 
L 106.211705 125.09195 
L 128.029134 136.440271 
L 143.605336 142.953982 
L 155.755343 144.652809 
L 165.736018 145.664127 
L 174.218739 146.228642 
L 181.604627 146.360865 
L 188.152583 148.207819 
L 194.039473 147.310426 
L 204.301858 147.944453 
L 208.841365 147.945776 
L 213.065064 147.678291 
L 217.0166 147.739183 
L 220.731165 148.096607 
L 224.237546 147.6915 
L 227.559593 147.870991 
L 230.717286 147.834517 
L 233.72753 148.058344 
L 236.604754 147.73781 
L 242.008153 147.541485 
L 247.008574 147.778236 
L 249.37772 147.583813 
L 251.668359 147.629897 
L 253.886229 147.325438 
L 258.123694 147.143764 
L 260.152063 147.160204 
L 262.125342 146.918475 
L 267.747305 146.593621 
L 272.979878 145.973788 
L 274.64828 146.063789 
L 276.282037 145.898499 
L 277.882881 145.5949 
L 279.452418 145.532421 
L 280.992142 145.354906 
L 282.503444 145.296978 
L 283.987621 144.922633 
L 286.879363 144.594155 
L 288.289123 144.225407 
L 289.676159 144.105716 
L 291.041407 143.820891 
L 292.385745 143.699377 
L 295.014963 143.036003 
L 297.569893 142.517062 
L 303.666476 140.850041 
L 304.840517 140.49008 
L 306.00065 140.271499 
L 310.510957 138.616883 
L 316.928178 135.862804 
L 319.999398 134.307932 
L 321.004675 133.849164 
L 322.989036 132.767075 
L 324.940015 131.660845 
L 325.903532 130.827209 
L 328.748622 129.098532 
L 329.682465 128.242979 
L 331.52944 127.022165 
L 332.442906 126.108677 
L 334.250593 124.877717 
L 335.145115 123.930975 
L 336.033616 123.297285 
L 336.916235 122.305712 
L 337.793106 121.661889 
L 338.66436 120.713554 
L 339.530122 120.051335 
L 341.245658 118.033233 
L 342.095664 117.367376 
L 342.940646 116.363166 
L 343.78071 115.675112 
L 346.272435 112.584388 
L 347.09385 111.913014 
L 357.400322 98.405389 
L 358.16721 97.051024 
L 360.447979 94.036229 
L 361.201805 92.708806 
L 362.700159 90.76878 
L 363.444798 89.489632 
L 364.186483 88.539752 
L 364.925268 87.284329 
L 365.661202 86.350129 
L 367.124717 83.953613 
L 367.852395 83.058138 
L 369.299822 80.75939 
L 370.019661 79.922483 
L 373.581818 74.678242 
L 373.581818 74.678242 
" clip-path="url(#p0bf8d9348e)" style="fill: none; stroke: #ff7f0e; stroke-width: 1.5; stroke-linecap: square"/>
   </g>
   <g id="patch_3">
    <path d="M 54 252 
L 54 34.56 
" style="fill: none; stroke: #000000; stroke-width: 0.8; stroke-linejoin: miter; stroke-linecap: square"/>
   </g>
   <g id="patch_4">
    <path d="M 388.8 252 
L 388.8 34.56 
" style="fill: none; stroke: #000000; stroke-width: 0.8; stroke-linejoin: miter; stroke-linecap: square"/>
   </g>
   <g id="patch_5">
    <path d="M 54 252 
L 388.8 252 
" style="fill: none; stroke: #000000; stroke-width: 0.8; stroke-linejoin: miter; stroke-linecap: square"/>
   </g>
   <g id="patch_6">
    <path d="M 54 34.56 
L 388.8 34.56 
" style="fill: none; stroke: #000000; stroke-width: 0.8; stroke-linejoin: miter; stroke-linecap: square"/>
   </g>
   <g id="legend_1">
    <g id="patch_7">
     <path d="M 249.8875 71.91625 
L 381.8 71.91625 
Q 383.8 71.91625 383.8 69.91625 
L 383.8 41.56 
Q 383.8 39.56 381.8 39.56 
L 249.8875 39.56 
Q 247.8875 39.56 247.8875 41.56 
L 247.8875 69.91625 
Q 247.8875 71.91625 249.8875 71.91625 
z
" style="fill: #ffffff; opacity: 0.8; stroke: #cccccc; stroke-linejoin: miter"/>
    </g>
    <g id="line2d_38">
     <path d="M 251.8875 47.658437 
L 261.8875 47.658437 
L 271.8875 47.658437 
" style="fill: none; stroke: #1f77b4; stroke-width: 1.5; stroke-linecap: square"/>
    </g>
    <g id="text_7">
     <!-- parameter-shift rule -->
     <g transform="translate(279.8875 51.158437)scale(0.1 -0.1)">
      <defs>
       <path id="DejaVuSans-61" d="M 2194 1759 
Q 1497 1759 1228 1600 
Q 959 1441 959 1056 
Q 959 750 1161 570 
Q 1363 391 1709 391 
Q 2188 391 2477 730 
Q 2766 1069 2766 1631 
L 2766 1759 
L 2194 1759 
z
M 3341 1997 
L 3341 0 
L 2766 0 
L 2766 531 
Q 2569 213 2275 61 
Q 1981 -91 1556 -91 
Q 1019 -91 701 211 
Q 384 513 384 1019 
Q 384 1609 779 1909 
Q 1175 2209 1959 2209 
L 2766 2209 
L 2766 2266 
Q 2766 2663 2505 2880 
Q 2244 3097 1772 3097 
Q 1472 3097 1187 3025 
Q 903 2953 641 2809 
L 641 3341 
Q 956 3463 1253 3523 
Q 1550 3584 1831 3584 
Q 2591 3584 2966 3190 
Q 3341 2797 3341 1997 
z
" transform="scale(0.015625)"/>
       <path id="DejaVuSans-72" d="M 2631 2963 
Q 2534 3019 2420 3045 
Q 2306 3072 2169 3072 
Q 1681 3072 1420 2755 
Q 1159 2438 1159 1844 
L 1159 0 
L 581 0 
L 581 3500 
L 1159 3500 
L 1159 2956 
Q 1341 3275 1631 3429 
Q 1922 3584 2338 3584 
Q 2397 3584 2469 3576 
Q 2541 3569 2628 3553 
L 2631 2963 
z
" transform="scale(0.015625)"/>
       <path id="DejaVuSans-6d" d="M 3328 2828 
Q 3544 3216 3844 3400 
Q 4144 3584 4550 3584 
Q 5097 3584 5394 3201 
Q 5691 2819 5691 2113 
L 5691 0 
L 5113 0 
L 5113 2094 
Q 5113 2597 4934 2840 
Q 4756 3084 4391 3084 
Q 3944 3084 3684 2787 
Q 3425 2491 3425 1978 
L 3425 0 
L 2847 0 
L 2847 2094 
Q 2847 2600 2669 2842 
Q 2491 3084 2119 3084 
Q 1678 3084 1418 2786 
Q 1159 2488 1159 1978 
L 1159 0 
L 581 0 
L 581 3500 
L 1159 3500 
L 1159 2956 
Q 1356 3278 1631 3431 
Q 1906 3584 2284 3584 
Q 2666 3584 2933 3390 
Q 3200 3197 3328 2828 
z
" transform="scale(0.015625)"/>
       <path id="DejaVuSans-2d" d="M 313 2009 
L 1997 2009 
L 1997 1497 
L 313 1497 
L 313 2009 
z
" transform="scale(0.015625)"/>
       <path id="DejaVuSans-68" d="M 3513 2113 
L 3513 0 
L 2938 0 
L 2938 2094 
Q 2938 2591 2744 2837 
Q 2550 3084 2163 3084 
Q 1697 3084 1428 2787 
Q 1159 2491 1159 1978 
L 1159 0 
L 581 0 
L 581 4863 
L 1159 4863 
L 1159 2956 
Q 1366 3272 1645 3428 
Q 1925 3584 2291 3584 
Q 2894 3584 3203 3211 
Q 3513 2838 3513 2113 
z
" transform="scale(0.015625)"/>
       <path id="DejaVuSans-66" d="M 2375 4863 
L 2375 4384 
L 1825 4384 
Q 1516 4384 1395 4259 
Q 1275 4134 1275 3809 
L 1275 3500 
L 2222 3500 
L 2222 3053 
L 1275 3053 
L 1275 0 
L 697 0 
L 697 3053 
L 147 3053 
L 147 3500 
L 697 3500 
L 697 3744 
Q 697 4328 969 4595 
Q 1241 4863 1831 4863 
L 2375 4863 
z
" transform="scale(0.015625)"/>
       <path id="DejaVuSans-75" d="M 544 1381 
L 544 3500 
L 1119 3500 
L 1119 1403 
Q 1119 906 1312 657 
Q 1506 409 1894 409 
Q 2359 409 2629 706 
Q 2900 1003 2900 1516 
L 2900 3500 
L 3475 3500 
L 3475 0 
L 2900 0 
L 2900 538 
Q 2691 219 2414 64 
Q 2138 -91 1772 -91 
Q 1169 -91 856 284 
Q 544 659 544 1381 
z
M 1991 3584 
L 1991 3584 
z
" transform="scale(0.015625)"/>
       <path id="DejaVuSans-6c" d="M 603 4863 
L 1178 4863 
L 1178 0 
L 603 0 
L 603 4863 
z
" transform="scale(0.015625)"/>
      </defs>
      <use xlink:href="#DejaVuSans-70"/>
      <use xlink:href="#DejaVuSans-61" x="63.476562"/>
      <use xlink:href="#DejaVuSans-72" x="124.755859"/>
      <use xlink:href="#DejaVuSans-61" x="165.869141"/>
      <use xlink:href="#DejaVuSans-6d" x="227.148438"/>
      <use xlink:href="#DejaVuSans-65" x="324.560547"/>
      <use xlink:href="#DejaVuSans-74" x="386.083984"/>
      <use xlink:href="#DejaVuSans-65" x="425.292969"/>
      <use xlink:href="#DejaVuSans-72" x="486.816406"/>
      <use xlink:href="#DejaVuSans-2d" x="521.554688"/>
      <use xlink:href="#DejaVuSans-73" x="557.638672"/>
      <use xlink:href="#DejaVuSans-68" x="609.738281"/>
      <use xlink:href="#DejaVuSans-69" x="673.117188"/>
      <use xlink:href="#DejaVuSans-66" x="700.900391"/>
      <use xlink:href="#DejaVuSans-74" x="734.355469"/>
      <use xlink:href="#DejaVuSans-20" x="773.564453"/>
      <use xlink:href="#DejaVuSans-72" x="805.351562"/>
      <use xlink:href="#DejaVuSans-75" x="846.464844"/>
      <use xlink:href="#DejaVuSans-6c" x="909.84375"/>
      <use xlink:href="#DejaVuSans-65" x="937.626953"/>
     </g>
    </g>
    <g id="line2d_39">
     <path d="M 251.8875 62.336562 
L 261.8875 62.336562 
L 271.8875 62.336562 
" style="fill: none; stroke: #ff7f0e; stroke-width: 1.5; stroke-linecap: square"/>
    </g>
    <g id="text_8">
     <!-- finite-different -->
     <g transform="translate(279.8875 65.836562)scale(0.1 -0.1)">
      <defs>
       <path id="DejaVuSans-6e" d="M 3513 2113 
L 3513 0 
L 2938 0 
L 2938 2094 
Q 2938 2591 2744 2837 
Q 2550 3084 2163 3084 
Q 1697 3084 1428 2787 
Q 1159 2491 1159 1978 
L 1159 0 
L 581 0 
L 581 3500 
L 1159 3500 
L 1159 2956 
Q 1366 3272 1645 3428 
Q 1925 3584 2291 3584 
Q 2894 3584 3203 3211 
Q 3513 2838 3513 2113 
z
" transform="scale(0.015625)"/>
       <path id="DejaVuSans-64" d="M 2906 2969 
L 2906 4863 
L 3481 4863 
L 3481 0 
L 2906 0 
L 2906 525 
Q 2725 213 2448 61 
Q 2172 -91 1784 -91 
Q 1150 -91 751 415 
Q 353 922 353 1747 
Q 353 2572 751 3078 
Q 1150 3584 1784 3584 
Q 2172 3584 2448 3432 
Q 2725 3281 2906 2969 
z
M 947 1747 
Q 947 1113 1208 752 
Q 1469 391 1925 391 
Q 2381 391 2643 752 
Q 2906 1113 2906 1747 
Q 2906 2381 2643 2742 
Q 2381 3103 1925 3103 
Q 1469 3103 1208 2742 
Q 947 2381 947 1747 
z
" transform="scale(0.015625)"/>
      </defs>
      <use xlink:href="#DejaVuSans-66"/>
      <use xlink:href="#DejaVuSans-69" x="35.205078"/>
      <use xlink:href="#DejaVuSans-6e" x="62.988281"/>
      <use xlink:href="#DejaVuSans-69" x="126.367188"/>
      <use xlink:href="#DejaVuSans-74" x="154.150391"/>
      <use xlink:href="#DejaVuSans-65" x="193.359375"/>
      <use xlink:href="#DejaVuSans-2d" x="254.882812"/>
      <use xlink:href="#DejaVuSans-64" x="290.966797"/>
      <use xlink:href="#DejaVuSans-69" x="354.443359"/>
      <use xlink:href="#DejaVuSans-66" x="382.226562"/>
      <use xlink:href="#DejaVuSans-66" x="417.431641"/>
      <use xlink:href="#DejaVuSans-65" x="452.636719"/>
      <use xlink:href="#DejaVuSans-72" x="514.160156"/>
      <use xlink:href="#DejaVuSans-65" x="553.023438"/>
      <use xlink:href="#DejaVuSans-6e" x="614.546875"/>
      <use xlink:href="#DejaVuSans-74" x="677.925781"/>
     </g>
    </g>
   </g>
  </g>
 </g>
 <defs>
  <clipPath id="p0bf8d9348e">
   <rect x="54" y="34.56" width="334.8" height="217.44"/>
  </clipPath>
 </defs>
</svg>
