<?xml version="1.0" encoding="utf-8" standalone="no"?>
<!DOCTYPE svg PUBLIC "-//W3C//DTD SVG 1.1//EN"
  "http://www.w3.org/Graphics/SVG/1.1/DTD/svg11.dtd">
<svg xmlns:xlink="http://www.w3.org/1999/xlink" width="432pt" height="288pt" viewBox="0 0 432 288" xmlns="http://www.w3.org/2000/svg" version="1.1">
 <metadata>
  <rdf:RDF xmlns:dc="http://purl.org/dc/elements/1.1/" xmlns:cc="http://creativecommons.org/ns#" xmlns:rdf="http://www.w3.org/1999/02/22-rdf-syntax-ns#">
   <cc:Work>
    <dc:type rdf:resource="http://purl.org/dc/dcmitype/StillImage"/>
    <dc:date>2022-10-31T14:43:49.639958</dc:date>
    <dc:format>image/svg+xml</dc:format>
    <dc:creator>
     <cc:Agent>
      <dc:title>Matplotlib v3.5.1, https://matplotlib.org/</dc:title>
     </cc:Agent>
    </dc:creator>
   </cc:Work>
  </rdf:RDF>
 </metadata>
 <defs>
  <style type="text/css">*{stroke-linejoin: round; stroke-linecap: butt}</style>
 </defs>
 <g id="figure_1">
  <g id="patch_1">
   <path d="M 0 288 
L 432 288 
L 432 0 
L 0 0 
L 0 288 
z
" style="fill: none"/>
  </g>
  <g id="axes_1">
   <g id="patch_2">
    <path d="M 54 252 
L 388.8 252 
L 388.8 34.56 
L 54 34.56 
z
" style="fill: #ffffff"/>
   </g>
   <g id="PolyCollection_1">
    <path d="M 69.218182 54.987774 
L 69.218182 242.116364 
L 106.205707 197.524884 
L 127.842022 181.104355 
L 143.193232 173.961373 
L 155.100555 167.774 
L 164.829547 164.890837 
L 173.055292 162.279589 
L 180.180757 160.449899 
L 186.465862 161.032399 
L 192.08808 158.522058 
L 197.173995 157.995811 
L 206.088288 156.579429 
L 210.042817 155.686226 
L 213.724395 154.97195 
L 217.168281 154.676729 
L 220.403316 154.787178 
L 223.453387 153.761121 
L 226.338507 153.989929 
L 231.679132 153.183601 
L 234.16152 153.473984 
L 236.533542 152.908481 
L 238.804597 152.691531 
L 240.982928 152.472835 
L 245.089702 152.248507 
L 247.030342 152.449991 
L 248.902875 152.184097 
L 252.461641 152.059615 
L 254.155806 151.762647 
L 255.797835 151.550514 
L 257.39084 151.49259 
L 260.440912 151.578827 
L 261.902968 151.305882 
L 263.326031 151.235387 
L 266.06313 151.274482 
L 267.38077 151.129536 
L 269.922285 150.940464 
L 271.149045 150.840654 
L 273.521067 150.653417 
L 274.668675 150.869169 
L 275.792121 150.790498 
L 277.970453 150.569284 
L 279.027156 150.612098 
L 281.079782 150.696675 
L 282.077227 150.646169 
L 284.017867 150.409342 
L 284.962347 150.397169 
L 286.802588 150.452343 
L 288.581477 150.275017 
L 289.449166 150.381943 
L 291.143331 150.329498 
L 291.970661 150.300734 
L 293.587807 150.15226 
L 295.157382 150.22573 
L 295.92519 150.055448 
L 297.428437 150.126506 
L 298.890493 150.098165 
L 300.313556 150.049298 
L 301.011105 150.013041 
L 302.379429 149.927608 
L 303.713542 149.94526 
L 305.015112 149.899094 
L 305.654182 149.902515 
L 306.90981 149.894294 
L 308.13657 149.864723 
L 309.33576 149.832225 
L 310.508592 149.792727 
L 311.6562 149.805354 
L 312.779646 149.812029 
L 313.879927 149.710877 
L 314.957978 149.793086 
L 316.01468 149.680674 
L 317.050863 149.749105 
L 318.067307 149.671006 
L 319.064752 149.703125 
L 320.043893 149.648228 
L 321.005392 149.704123 
L 321.949871 149.573093 
L 322.877925 149.646016 
L 323.790113 149.614316 
L 324.68697 149.602353 
L 326.00461 149.630008 
L 326.865302 149.609437 
L 327.712331 149.622053 
L 328.546125 149.541574 
L 329.772885 149.538537 
L 330.575332 149.563517 
L 331.36589 149.542196 
L 332.530192 149.553124 
L 333.292515 149.497938 
L 334.044101 149.573147 
L 335.151997 149.565965 
L 335.878018 149.516459 
L 336.948857 149.468533 
L 337.650995 149.511571 
L 338.687178 149.554704 
L 339.366954 149.568368 
L 340.370653 149.534757 
L 341.35582 149.503859 
L 342.002637 149.531618 
L 342.958394 149.571438 
L 343.586187 149.544483 
L 344.51424 149.538419 
L 345.426428 149.531479 
L 346.323285 149.58583 
L 346.912923 149.622535 
L 347.785341 149.538182 
L 348.643725 149.638776 
L 349.488519 149.609724 
L 350.320147 149.563036 
L 351.139013 149.705638 
L 351.945503 149.602625 
L 352.739985 149.638416 
L 353.522812 149.657967 
L 354.29432 149.706961 
L 355.054832 149.723066 
L 355.804658 149.788852 
L 356.544093 149.779152 
L 357.273422 149.838357 
L 358.230608 149.811593 
L 358.937396 149.981707 
L 359.634945 149.845635 
L 360.323493 150.011183 
L 361.227951 149.948748 
L 361.896373 150.173229 
L 362.556527 150.140631 
L 363.424216 150.198941 
L 364.065848 150.26827 
L 364.909529 150.344688 
L 365.53365 150.330374 
L 366.354615 150.712181 
L 367.163142 150.798791 
L 367.761597 150.895073 
L 368.549238 151.058234 
L 369.325422 151.224596 
L 369.90024 151.46619 
L 370.657156 151.898122 
L 371.403486 152.393939 
L 372.139522 153.556091 
L 372.865543 154.200142 
L 373.581818 155.760797 
L 373.581818 141.875799 
L 373.581818 141.875799 
L 372.865543 143.038555 
L 372.139522 144.310547 
L 371.403486 144.575224 
L 370.657156 145.426016 
L 369.90024 145.759742 
L 369.325422 145.972772 
L 368.549238 146.201083 
L 367.761597 146.398041 
L 367.163142 146.688061 
L 366.354615 146.835972 
L 365.53365 146.778759 
L 364.909529 146.850973 
L 364.065848 147.093269 
L 363.424216 147.174213 
L 362.556527 147.199991 
L 361.896373 147.28085 
L 361.227951 147.215058 
L 360.323493 147.372236 
L 359.634945 147.462732 
L 358.937396 147.558027 
L 358.230608 147.569571 
L 357.273422 147.561752 
L 356.544093 147.562622 
L 355.804658 147.589131 
L 355.054832 147.611741 
L 354.29432 147.571421 
L 353.522812 147.697026 
L 352.739985 147.668388 
L 351.945503 147.659459 
L 351.139013 147.664961 
L 350.320147 147.670535 
L 349.488519 147.746172 
L 348.643725 147.737126 
L 347.785341 147.736964 
L 346.912923 147.827072 
L 346.323285 147.741088 
L 345.426428 147.774332 
L 344.51424 147.790534 
L 343.586187 147.80077 
L 342.958394 147.819079 
L 342.002637 147.799677 
L 341.35582 147.792661 
L 340.370653 147.755122 
L 339.366954 147.827313 
L 338.687178 147.855648 
L 337.650995 147.753813 
L 336.948857 147.775722 
L 335.878018 147.854121 
L 335.151997 147.792303 
L 334.044101 147.788261 
L 333.292515 147.781502 
L 332.530192 147.778425 
L 331.36589 147.772749 
L 330.575332 147.751011 
L 329.772885 147.858143 
L 328.546125 147.74967 
L 327.712331 147.767304 
L 326.865302 147.736475 
L 326.00461 147.698624 
L 324.68697 147.719682 
L 323.790113 147.741215 
L 322.877925 147.737096 
L 321.949871 147.664878 
L 321.005392 147.742301 
L 320.043893 147.621004 
L 319.064752 147.656559 
L 318.067307 147.549359 
L 317.050863 147.662397 
L 316.01468 147.549351 
L 314.957978 147.573925 
L 313.879927 147.49069 
L 312.779646 147.593305 
L 311.6562 147.515618 
L 310.508592 147.558256 
L 309.33576 147.470976 
L 308.13657 147.46642 
L 306.90981 147.440244 
L 305.654182 147.413717 
L 305.015112 147.46539 
L 303.713542 147.343509 
L 302.379429 147.370035 
L 301.011105 147.333215 
L 300.313556 147.352024 
L 298.890493 147.313773 
L 297.428437 147.241061 
L 295.92519 147.212954 
L 295.157382 147.172383 
L 293.587807 147.17264 
L 291.970661 147.171288 
L 291.143331 147.056819 
L 289.449166 146.980419 
L 288.581477 147.021374 
L 286.802588 147.037966 
L 284.962347 146.868595 
L 284.017867 146.907813 
L 282.077227 146.915169 
L 281.079782 146.728612 
L 279.027156 146.662401 
L 277.970453 146.581007 
L 275.792121 146.525421 
L 274.668675 146.560161 
L 273.521067 146.360599 
L 271.149045 146.21243 
L 269.922285 146.32952 
L 267.38077 146.135849 
L 266.06313 146.25071 
L 263.326031 145.923524 
L 261.902968 145.894177 
L 260.440912 145.954626 
L 257.39084 145.681069 
L 255.797835 145.556155 
L 254.155806 145.489543 
L 252.461641 145.673336 
L 248.902875 145.20466 
L 247.030342 145.217012 
L 245.089702 145.024208 
L 240.982928 144.414816 
L 238.804597 144.243201 
L 236.533542 144.197304 
L 234.16152 144.214528 
L 231.679132 143.961638 
L 226.338507 143.19376 
L 223.453387 142.988421 
L 220.403316 142.814136 
L 217.168281 142.214564 
L 213.724395 141.816632 
L 210.042817 141.674018 
L 206.088288 140.952049 
L 197.173995 139.415772 
L 192.08808 138.478085 
L 186.465862 138.230948 
L 180.180757 135.599819 
L 173.055292 134.340333 
L 164.829547 132.109242 
L 155.100555 129.408833 
L 143.193232 124.710828 
L 127.842022 114.131925 
L 106.205707 99.216283 
L 69.218182 54.987774 
z
" clip-path="url(#peb50eb0877)" style="fill: #1f77b4; fill-opacity: 0.1"/>
   </g>
   <g id="PolyCollection_2">
    <path d="M 69.218182 44.443636 
L 69.218182 172.285361 
L 106.205707 183.370953 
L 127.842022 175.262127 
L 143.193232 171.004759 
L 155.100555 166.091022 
L 164.829547 163.773991 
L 173.055292 161.394298 
L 180.180757 159.775765 
L 186.465862 160.38144 
L 192.08808 157.955316 
L 197.173995 157.52348 
L 206.088288 156.124374 
L 210.042817 155.247704 
L 213.724395 154.509486 
L 217.168281 154.194672 
L 220.403316 154.273375 
L 223.453387 153.226229 
L 226.338507 153.419808 
L 231.679132 152.534412 
L 234.16152 152.77976 
L 236.533542 152.171635 
L 238.804597 151.897053 
L 240.982928 151.616602 
L 245.089702 151.282242 
L 247.030342 151.41069 
L 248.902875 151.082467 
L 252.461641 150.812349 
L 254.155806 150.449167 
L 255.797835 150.164945 
L 257.39084 150.021754 
L 260.440912 149.93386 
L 261.902968 149.577848 
L 263.326031 149.419102 
L 266.06313 149.265607 
L 267.38077 149.02305 
L 269.922285 148.637673 
L 271.149045 148.433589 
L 273.521067 148.036265 
L 274.668675 148.122778 
L 275.792121 147.932216 
L 277.970453 147.486449 
L 279.027156 147.396003 
L 281.079782 147.217096 
L 282.077227 147.040947 
L 284.017867 146.543373 
L 284.962347 146.405149 
L 286.802588 146.16202 
L 288.581477 145.708716 
L 289.449166 145.653637 
L 291.143331 145.294573 
L 291.970661 145.10203 
L 293.587807 144.649521 
L 295.157382 144.383444 
L 295.92519 144.060696 
L 297.428437 143.77548 
L 298.890493 143.390823 
L 300.313556 142.980565 
L 301.011105 142.761472 
L 302.379429 142.311176 
L 303.713542 141.934867 
L 305.015112 141.492889 
L 305.654182 141.288964 
L 306.90981 140.867625 
L 308.13657 140.424447 
L 309.33576 139.96495 
L 310.508592 139.488996 
L 311.6562 139.040372 
L 312.779646 138.586268 
L 313.879927 138.044366 
L 314.957978 137.619757 
L 316.01468 137.054592 
L 317.050863 136.609535 
L 318.067307 136.05069 
L 319.064752 135.556479 
L 320.043893 134.998516 
L 321.005392 134.508346 
L 321.949871 133.888817 
L 322.877925 133.385551 
L 323.790113 132.81618 
L 324.68697 132.249126 
L 326.00461 131.417203 
L 326.865302 130.82634 
L 327.712331 130.249016 
L 328.546125 129.61404 
L 329.772885 128.711539 
L 330.575332 128.119823 
L 331.36589 127.496634 
L 332.530192 126.570353 
L 333.292515 125.917142 
L 334.044101 125.321824 
L 335.151997 124.358924 
L 335.878018 123.689857 
L 336.948857 122.691887 
L 337.650995 122.054406 
L 338.687178 121.080236 
L 339.366954 120.419222 
L 340.370653 119.398261 
L 341.35582 118.371478 
L 342.002637 117.70247 
L 342.958394 116.690741 
L 343.586187 115.994639 
L 344.51424 114.96054 
L 345.426428 113.91686 
L 346.323285 112.890581 
L 346.912923 112.206593 
L 347.785341 111.12941 
L 348.643725 110.109862 
L 349.488519 109.049252 
L 350.320147 107.991475 
L 351.139013 106.970591 
L 351.945503 105.893717 
L 352.739985 104.853195 
L 353.522812 103.810172 
L 354.29432 102.77427 
L 355.054832 101.736255 
L 355.804658 100.711941 
L 356.544093 99.671471 
L 357.273422 98.650108 
L 358.230608 97.282448 
L 358.937396 96.296454 
L 359.634945 95.254348 
L 360.323493 94.272719 
L 361.227951 92.942036 
L 361.896373 91.979695 
L 362.556527 90.999895 
L 363.424216 89.712063 
L 364.065848 88.765327 
L 364.909529 87.516397 
L 365.53365 86.568554 
L 366.354615 85.373921 
L 367.163142 84.16997 
L 367.761597 83.27877 
L 368.549238 82.119715 
L 369.325422 80.965719 
L 369.90024 80.130299 
L 370.657156 79.033779 
L 371.403486 77.957001 
L 372.139522 76.912427 
L 372.865543 75.879351 
L 373.581818 74.869795 
L 373.581818 74.487209 
L 373.581818 74.487209 
L 372.865543 75.47371 
L 372.139522 76.505706 
L 371.403486 77.535103 
L 370.657156 78.621034 
L 369.90024 79.715278 
L 369.325422 80.553664 
L 368.549238 81.696499 
L 367.761597 82.838196 
L 367.163142 83.737919 
L 366.354615 84.931519 
L 365.53365 86.132379 
L 364.909529 87.053023 
L 364.065848 88.314897 
L 363.424216 89.267901 
L 362.556527 90.538421 
L 361.896373 91.505732 
L 361.227951 92.476346 
L 360.323493 93.80053 
L 359.634945 94.801402 
L 358.937396 95.8137 
L 358.230608 96.820359 
L 357.273422 98.161517 
L 356.544093 99.174519 
L 355.804658 100.204437 
L 355.054832 101.239068 
L 354.29432 102.254343 
L 353.522812 103.310098 
L 352.739985 104.339673 
L 351.945503 105.369764 
L 351.139013 106.40996 
L 350.320147 107.443131 
L 349.488519 108.502415 
L 348.643725 109.536088 
L 347.785341 110.560933 
L 346.912923 111.620654 
L 346.323285 112.279521 
L 345.426428 113.316441 
L 344.51424 114.339627 
L 343.586187 115.35703 
L 342.958394 116.037109 
L 342.002637 117.033868 
L 341.35582 117.696605 
L 340.370653 118.672266 
L 339.366954 119.68536 
L 338.687178 120.348771 
L 337.650995 121.271548 
L 336.948857 121.921644 
L 335.878018 122.906891 
L 335.151997 123.505612 
L 334.044101 124.436394 
L 333.292515 125.045452 
L 332.530192 125.650008 
L 331.36589 126.550872 
L 330.575332 127.132409 
L 329.772885 127.777518 
L 328.546125 128.586772 
L 327.712331 129.167466 
L 326.865302 129.714604 
L 326.00461 130.24212 
L 324.68697 131.07744 
L 323.790113 131.630267 
L 322.877925 132.153985 
L 321.949871 132.631357 
L 321.005392 133.196098 
L 320.043893 133.624058 
L 319.064752 134.143801 
L 318.067307 134.564926 
L 317.050863 135.123911 
L 316.01468 135.514707 
L 314.957978 135.994778 
L 313.879927 136.38891 
L 312.779646 136.914917 
L 311.6562 137.295949 
L 310.508592 137.755444 
L 309.33576 138.105439 
L 308.13657 138.514766 
L 306.90981 138.897139 
L 305.654182 139.268532 
L 305.015112 139.501357 
L 303.713542 139.781681 
L 302.379429 140.169491 
L 301.011105 140.503406 
L 300.313556 140.698146 
L 298.890493 141.005775 
L 297.428437 141.280748 
L 295.92519 141.591857 
L 295.157382 141.713872 
L 293.587807 142.019511 
L 291.970661 142.324129 
L 291.143331 142.37743 
L 289.449166 142.591103 
L 288.581477 142.772712 
L 286.802588 143.060453 
L 284.962347 143.168424 
L 284.017867 143.338373 
L 282.077227 143.595175 
L 281.079782 143.540714 
L 279.027156 143.716909 
L 277.970453 143.752854 
L 275.792121 143.921894 
L 274.668675 144.063319 
L 273.521067 143.970026 
L 271.149045 144.033089 
L 269.922285 144.242423 
L 267.38077 144.245251 
L 266.06313 144.443946 
L 263.326031 144.303966 
L 261.902968 144.355927 
L 260.440912 144.491711 
L 257.39084 144.378836 
L 255.797835 144.328377 
L 254.155806 144.334462 
L 252.461641 144.585128 
L 248.902875 144.250853 
L 247.030342 144.324069 
L 245.089702 144.187535 
L 240.982928 143.689433 
L 238.804597 143.570791 
L 236.533542 143.566796 
L 234.16152 143.633808 
L 231.679132 143.428884 
L 226.338507 142.727804 
L 223.453387 142.560417 
L 220.403316 142.418398 
L 217.168281 141.826311 
L 213.724395 141.451795 
L 210.042817 141.330628 
L 206.088288 140.61691 
L 197.173995 139.033453 
L 192.08808 138.065875 
L 186.465862 137.832389 
L 180.180757 135.097906 
L 173.055292 133.758294 
L 164.829547 131.273033 
L 155.100555 128.242267 
L 143.193232 122.95026 
L 127.842022 111.562985 
L 106.205707 93.652819 
L 69.218182 44.443636 
z
" clip-path="url(#peb50eb0877)" style="fill: #ff7f0e; fill-opacity: 0.1"/>
   </g>
   <g id="matplotlib.axis_1">
    <g id="xtick_1">
     <g id="line2d_1">
      <defs>
       <path id="m5b7cdf83a1" d="M 0 0 
L 0 3.5 
" style="stroke: #000000; stroke-width: 0.8"/>
      </defs>
      <g>
       <use xlink:href="#m5b7cdf83a1" x="69.218182" y="252" style="stroke: #000000; stroke-width: 0.8"/>
      </g>
     </g>
     <g id="text_1">
      <!-- $\mathdefault{10^{-2}}$ -->
      <g transform="translate(57.468182 266.598437)scale(0.1 -0.1)">
       <defs>
        <path id="DejaVuSans-31" d="M 794 531 
L 1825 531 
L 1825 4091 
L 703 3866 
L 703 4441 
L 1819 4666 
L 2450 4666 
L 2450 531 
L 3481 531 
L 3481 0 
L 794 0 
L 794 531 
z
" transform="scale(0.015625)"/>
        <path id="DejaVuSans-30" d="M 2034 4250 
Q 1547 4250 1301 3770 
Q 1056 3291 1056 2328 
Q 1056 1369 1301 889 
Q 1547 409 2034 409 
Q 2525 409 2770 889 
Q 3016 1369 3016 2328 
Q 3016 3291 2770 3770 
Q 2525 4250 2034 4250 
z
M 2034 4750 
Q 2819 4750 3233 4129 
Q 3647 3509 3647 2328 
Q 3647 1150 3233 529 
Q 2819 -91 2034 -91 
Q 1250 -91 836 529 
Q 422 1150 422 2328 
Q 422 3509 836 4129 
Q 1250 4750 2034 4750 
z
" transform="scale(0.015625)"/>
        <path id="DejaVuSans-2212" d="M 678 2272 
L 4684 2272 
L 4684 1741 
L 678 1741 
L 678 2272 
z
" transform="scale(0.015625)"/>
        <path id="DejaVuSans-32" d="M 1228 531 
L 3431 531 
L 3431 0 
L 469 0 
L 469 531 
Q 828 903 1448 1529 
Q 2069 2156 2228 2338 
Q 2531 2678 2651 2914 
Q 2772 3150 2772 3378 
Q 2772 3750 2511 3984 
Q 2250 4219 1831 4219 
Q 1534 4219 1204 4116 
Q 875 4013 500 3803 
L 500 4441 
Q 881 4594 1212 4672 
Q 1544 4750 1819 4750 
Q 2544 4750 2975 4387 
Q 3406 4025 3406 3419 
Q 3406 3131 3298 2873 
Q 3191 2616 2906 2266 
Q 2828 2175 2409 1742 
Q 1991 1309 1228 531 
z
" transform="scale(0.015625)"/>
       </defs>
       <use xlink:href="#DejaVuSans-31" transform="translate(0 0.765625)"/>
       <use xlink:href="#DejaVuSans-30" transform="translate(63.623047 0.765625)"/>
       <use xlink:href="#DejaVuSans-2212" transform="translate(128.203125 39.046875)scale(0.7)"/>
       <use xlink:href="#DejaVuSans-32" transform="translate(186.855469 39.046875)scale(0.7)"/>
      </g>
     </g>
    </g>
    <g id="xtick_2">
     <g id="line2d_2">
      <g>
       <use xlink:href="#m5b7cdf83a1" x="192.08808" y="252" style="stroke: #000000; stroke-width: 0.8"/>
      </g>
     </g>
     <g id="text_2">
      <!-- $\mathdefault{10^{-1}}$ -->
      <g transform="translate(180.33808 266.598437)scale(0.1 -0.1)">
       <use xlink:href="#DejaVuSans-31" transform="translate(0 0.684375)"/>
       <use xlink:href="#DejaVuSans-30" transform="translate(63.623047 0.684375)"/>
       <use xlink:href="#DejaVuSans-2212" transform="translate(128.203125 38.965625)scale(0.7)"/>
       <use xlink:href="#DejaVuSans-31" transform="translate(186.855469 38.965625)scale(0.7)"/>
      </g>
     </g>
    </g>
    <g id="xtick_3">
     <g id="line2d_3">
      <g>
       <use xlink:href="#m5b7cdf83a1" x="314.957978" y="252" style="stroke: #000000; stroke-width: 0.8"/>
      </g>
     </g>
     <g id="text_3">
      <!-- $\mathdefault{10^{0}}$ -->
      <g transform="translate(306.157978 266.598437)scale(0.1 -0.1)">
       <use xlink:href="#DejaVuSans-31" transform="translate(0 0.765625)"/>
       <use xlink:href="#DejaVuSans-30" transform="translate(63.623047 0.765625)"/>
       <use xlink:href="#DejaVuSans-30" transform="translate(128.203125 39.046875)scale(0.7)"/>
      </g>
     </g>
    </g>
    <g id="xtick_4">
     <g id="line2d_4">
      <defs>
       <path id="m6eaada353f" d="M 0 0 
L 0 2 
" style="stroke: #000000; stroke-width: 0.6"/>
      </defs>
      <g>
       <use xlink:href="#m6eaada353f" x="57.310858" y="252" style="stroke: #000000; stroke-width: 0.6"/>
      </g>
     </g>
    </g>
    <g id="xtick_5">
     <g id="line2d_5">
      <g>
       <use xlink:href="#m6eaada353f" x="63.595964" y="252" style="stroke: #000000; stroke-width: 0.6"/>
      </g>
     </g>
    </g>
    <g id="xtick_6">
     <g id="line2d_6">
      <g>
       <use xlink:href="#m6eaada353f" x="106.205707" y="252" style="stroke: #000000; stroke-width: 0.6"/>
      </g>
     </g>
    </g>
    <g id="xtick_7">
     <g id="line2d_7">
      <g>
       <use xlink:href="#m6eaada353f" x="127.842022" y="252" style="stroke: #000000; stroke-width: 0.6"/>
      </g>
     </g>
    </g>
    <g id="xtick_8">
     <g id="line2d_8">
      <g>
       <use xlink:href="#m6eaada353f" x="143.193232" y="252" style="stroke: #000000; stroke-width: 0.6"/>
      </g>
     </g>
    </g>
    <g id="xtick_9">
     <g id="line2d_9">
      <g>
       <use xlink:href="#m6eaada353f" x="155.100555" y="252" style="stroke: #000000; stroke-width: 0.6"/>
      </g>
     </g>
    </g>
    <g id="xtick_10">
     <g id="line2d_10">
      <g>
       <use xlink:href="#m6eaada353f" x="164.829547" y="252" style="stroke: #000000; stroke-width: 0.6"/>
      </g>
     </g>
    </g>
    <g id="xtick_11">
     <g id="line2d_11">
      <g>
       <use xlink:href="#m6eaada353f" x="173.055292" y="252" style="stroke: #000000; stroke-width: 0.6"/>
      </g>
     </g>
    </g>
    <g id="xtick_12">
     <g id="line2d_12">
      <g>
       <use xlink:href="#m6eaada353f" x="180.180757" y="252" style="stroke: #000000; stroke-width: 0.6"/>
      </g>
     </g>
    </g>
    <g id="xtick_13">
     <g id="line2d_13">
      <g>
       <use xlink:href="#m6eaada353f" x="186.465862" y="252" style="stroke: #000000; stroke-width: 0.6"/>
      </g>
     </g>
    </g>
    <g id="xtick_14">
     <g id="line2d_14">
      <g>
       <use xlink:href="#m6eaada353f" x="229.075605" y="252" style="stroke: #000000; stroke-width: 0.6"/>
      </g>
     </g>
    </g>
    <g id="xtick_15">
     <g id="line2d_15">
      <g>
       <use xlink:href="#m6eaada353f" x="250.71192" y="252" style="stroke: #000000; stroke-width: 0.6"/>
      </g>
     </g>
    </g>
    <g id="xtick_16">
     <g id="line2d_16">
      <g>
       <use xlink:href="#m6eaada353f" x="266.06313" y="252" style="stroke: #000000; stroke-width: 0.6"/>
      </g>
     </g>
    </g>
    <g id="xtick_17">
     <g id="line2d_17">
      <g>
       <use xlink:href="#m6eaada353f" x="277.970453" y="252" style="stroke: #000000; stroke-width: 0.6"/>
      </g>
     </g>
    </g>
    <g id="xtick_18">
     <g id="line2d_18">
      <g>
       <use xlink:href="#m6eaada353f" x="287.699445" y="252" style="stroke: #000000; stroke-width: 0.6"/>
      </g>
     </g>
    </g>
    <g id="xtick_19">
     <g id="line2d_19">
      <g>
       <use xlink:href="#m6eaada353f" x="295.92519" y="252" style="stroke: #000000; stroke-width: 0.6"/>
      </g>
     </g>
    </g>
    <g id="xtick_20">
     <g id="line2d_20">
      <g>
       <use xlink:href="#m6eaada353f" x="303.050655" y="252" style="stroke: #000000; stroke-width: 0.6"/>
      </g>
     </g>
    </g>
    <g id="xtick_21">
     <g id="line2d_21">
      <g>
       <use xlink:href="#m6eaada353f" x="309.33576" y="252" style="stroke: #000000; stroke-width: 0.6"/>
      </g>
     </g>
    </g>
    <g id="xtick_22">
     <g id="line2d_22">
      <g>
       <use xlink:href="#m6eaada353f" x="351.945503" y="252" style="stroke: #000000; stroke-width: 0.6"/>
      </g>
     </g>
    </g>
    <g id="xtick_23">
     <g id="line2d_23">
      <g>
       <use xlink:href="#m6eaada353f" x="373.581818" y="252" style="stroke: #000000; stroke-width: 0.6"/>
      </g>
     </g>
    </g>
    <g id="text_4">
     <!-- Step size -->
     <g transform="translate(198.73125 280.276563)scale(0.1 -0.1)">
      <defs>
       <path id="DejaVuSans-53" d="M 3425 4513 
L 3425 3897 
Q 3066 4069 2747 4153 
Q 2428 4238 2131 4238 
Q 1616 4238 1336 4038 
Q 1056 3838 1056 3469 
Q 1056 3159 1242 3001 
Q 1428 2844 1947 2747 
L 2328 2669 
Q 3034 2534 3370 2195 
Q 3706 1856 3706 1288 
Q 3706 609 3251 259 
Q 2797 -91 1919 -91 
Q 1588 -91 1214 -16 
Q 841 59 441 206 
L 441 856 
Q 825 641 1194 531 
Q 1563 422 1919 422 
Q 2459 422 2753 634 
Q 3047 847 3047 1241 
Q 3047 1584 2836 1778 
Q 2625 1972 2144 2069 
L 1759 2144 
Q 1053 2284 737 2584 
Q 422 2884 422 3419 
Q 422 4038 858 4394 
Q 1294 4750 2059 4750 
Q 2388 4750 2728 4690 
Q 3069 4631 3425 4513 
z
" transform="scale(0.015625)"/>
       <path id="DejaVuSans-74" d="M 1172 4494 
L 1172 3500 
L 2356 3500 
L 2356 3053 
L 1172 3053 
L 1172 1153 
Q 1172 725 1289 603 
Q 1406 481 1766 481 
L 2356 481 
L 2356 0 
L 1766 0 
Q 1100 0 847 248 
Q 594 497 594 1153 
L 594 3053 
L 172 3053 
L 172 3500 
L 594 3500 
L 594 4494 
L 1172 4494 
z
" transform="scale(0.015625)"/>
       <path id="DejaVuSans-65" d="M 3597 1894 
L 3597 1613 
L 953 1613 
Q 991 1019 1311 708 
Q 1631 397 2203 397 
Q 2534 397 2845 478 
Q 3156 559 3463 722 
L 3463 178 
Q 3153 47 2828 -22 
Q 2503 -91 2169 -91 
Q 1331 -91 842 396 
Q 353 884 353 1716 
Q 353 2575 817 3079 
Q 1281 3584 2069 3584 
Q 2775 3584 3186 3129 
Q 3597 2675 3597 1894 
z
M 3022 2063 
Q 3016 2534 2758 2815 
Q 2500 3097 2075 3097 
Q 1594 3097 1305 2825 
Q 1016 2553 972 2059 
L 3022 2063 
z
" transform="scale(0.015625)"/>
       <path id="DejaVuSans-70" d="M 1159 525 
L 1159 -1331 
L 581 -1331 
L 581 3500 
L 1159 3500 
L 1159 2969 
Q 1341 3281 1617 3432 
Q 1894 3584 2278 3584 
Q 2916 3584 3314 3078 
Q 3713 2572 3713 1747 
Q 3713 922 3314 415 
Q 2916 -91 2278 -91 
Q 1894 -91 1617 61 
Q 1341 213 1159 525 
z
M 3116 1747 
Q 3116 2381 2855 2742 
Q 2594 3103 2138 3103 
Q 1681 3103 1420 2742 
Q 1159 2381 1159 1747 
Q 1159 1113 1420 752 
Q 1681 391 2138 391 
Q 2594 391 2855 752 
Q 3116 1113 3116 1747 
z
" transform="scale(0.015625)"/>
       <path id="DejaVuSans-20" transform="scale(0.015625)"/>
       <path id="DejaVuSans-73" d="M 2834 3397 
L 2834 2853 
Q 2591 2978 2328 3040 
Q 2066 3103 1784 3103 
Q 1356 3103 1142 2972 
Q 928 2841 928 2578 
Q 928 2378 1081 2264 
Q 1234 2150 1697 2047 
L 1894 2003 
Q 2506 1872 2764 1633 
Q 3022 1394 3022 966 
Q 3022 478 2636 193 
Q 2250 -91 1575 -91 
Q 1294 -91 989 -36 
Q 684 19 347 128 
L 347 722 
Q 666 556 975 473 
Q 1284 391 1588 391 
Q 1994 391 2212 530 
Q 2431 669 2431 922 
Q 2431 1156 2273 1281 
Q 2116 1406 1581 1522 
L 1381 1569 
Q 847 1681 609 1914 
Q 372 2147 372 2553 
Q 372 3047 722 3315 
Q 1072 3584 1716 3584 
Q 2034 3584 2315 3537 
Q 2597 3491 2834 3397 
z
" transform="scale(0.015625)"/>
       <path id="DejaVuSans-69" d="M 603 3500 
L 1178 3500 
L 1178 0 
L 603 0 
L 603 3500 
z
M 603 4863 
L 1178 4863 
L 1178 4134 
L 603 4134 
L 603 4863 
z
" transform="scale(0.015625)"/>
       <path id="DejaVuSans-7a" d="M 353 3500 
L 3084 3500 
L 3084 2975 
L 922 459 
L 3084 459 
L 3084 0 
L 275 0 
L 275 525 
L 2438 3041 
L 353 3041 
L 353 3500 
z
" transform="scale(0.015625)"/>
      </defs>
      <use xlink:href="#DejaVuSans-53"/>
      <use xlink:href="#DejaVuSans-74" x="63.476562"/>
      <use xlink:href="#DejaVuSans-65" x="102.685547"/>
      <use xlink:href="#DejaVuSans-70" x="164.208984"/>
      <use xlink:href="#DejaVuSans-20" x="227.685547"/>
      <use xlink:href="#DejaVuSans-73" x="259.472656"/>
      <use xlink:href="#DejaVuSans-69" x="311.572266"/>
      <use xlink:href="#DejaVuSans-7a" x="339.355469"/>
      <use xlink:href="#DejaVuSans-65" x="391.845703"/>
     </g>
    </g>
   </g>
   <g id="matplotlib.axis_2">
    <g id="ytick_1">
     <g id="line2d_24">
      <defs>
       <path id="ma86ed76ac6" d="M 0 0 
L -3.5 0 
" style="stroke: #000000; stroke-width: 0.8"/>
      </defs>
      <g>
       <use xlink:href="#ma86ed76ac6" x="54" y="135.836799" style="stroke: #000000; stroke-width: 0.8"/>
      </g>
     </g>
     <g id="text_5">
      <!-- $\mathdefault{10^{-1}}$ -->
      <g transform="translate(23.5 139.636017)scale(0.1 -0.1)">
       <use xlink:href="#DejaVuSans-31" transform="translate(0 0.684375)"/>
       <use xlink:href="#DejaVuSans-30" transform="translate(63.623047 0.684375)"/>
       <use xlink:href="#DejaVuSans-2212" transform="translate(128.203125 38.965625)scale(0.7)"/>
       <use xlink:href="#DejaVuSans-31" transform="translate(186.855469 38.965625)scale(0.7)"/>
      </g>
     </g>
    </g>
    <g id="ytick_2">
     <g id="line2d_25">
      <defs>
       <path id="m80e0040c3f" d="M 0 0 
L -2 0 
" style="stroke: #000000; stroke-width: 0.6"/>
      </defs>
      <g>
       <use xlink:href="#m80e0040c3f" x="54" y="249.12554" style="stroke: #000000; stroke-width: 0.6"/>
      </g>
     </g>
    </g>
    <g id="ytick_3">
     <g id="line2d_26">
      <g>
       <use xlink:href="#m80e0040c3f" x="54" y="220.584749" style="stroke: #000000; stroke-width: 0.6"/>
      </g>
     </g>
    </g>
    <g id="ytick_4">
     <g id="line2d_27">
      <g>
       <use xlink:href="#m80e0040c3f" x="54" y="200.334735" style="stroke: #000000; stroke-width: 0.6"/>
      </g>
     </g>
    </g>
    <g id="ytick_5">
     <g id="line2d_28">
      <g>
       <use xlink:href="#m80e0040c3f" x="54" y="184.627604" style="stroke: #000000; stroke-width: 0.6"/>
      </g>
     </g>
    </g>
    <g id="ytick_6">
     <g id="line2d_29">
      <g>
       <use xlink:href="#m80e0040c3f" x="54" y="171.793944" style="stroke: #000000; stroke-width: 0.6"/>
      </g>
     </g>
    </g>
    <g id="ytick_7">
     <g id="line2d_30">
      <g>
       <use xlink:href="#m80e0040c3f" x="54" y="160.943238" style="stroke: #000000; stroke-width: 0.6"/>
      </g>
     </g>
    </g>
    <g id="ytick_8">
     <g id="line2d_31">
      <g>
       <use xlink:href="#m80e0040c3f" x="54" y="151.54393" style="stroke: #000000; stroke-width: 0.6"/>
      </g>
     </g>
    </g>
    <g id="ytick_9">
     <g id="line2d_32">
      <g>
       <use xlink:href="#m80e0040c3f" x="54" y="143.253152" style="stroke: #000000; stroke-width: 0.6"/>
      </g>
     </g>
    </g>
    <g id="ytick_10">
     <g id="line2d_33">
      <g>
       <use xlink:href="#m80e0040c3f" x="54" y="87.045993" style="stroke: #000000; stroke-width: 0.6"/>
      </g>
     </g>
    </g>
    <g id="ytick_11">
     <g id="line2d_34">
      <g>
       <use xlink:href="#m80e0040c3f" x="54" y="58.505202" style="stroke: #000000; stroke-width: 0.6"/>
      </g>
     </g>
    </g>
    <g id="ytick_12">
     <g id="line2d_35">
      <g>
       <use xlink:href="#m80e0040c3f" x="54" y="38.255188" style="stroke: #000000; stroke-width: 0.6"/>
      </g>
     </g>
    </g>
    <g id="text_6">
     <!-- MSE -->
     <g transform="translate(17.420313 153.927656)rotate(-90)scale(0.1 -0.1)">
      <defs>
       <path id="DejaVuSans-4d" d="M 628 4666 
L 1569 4666 
L 2759 1491 
L 3956 4666 
L 4897 4666 
L 4897 0 
L 4281 0 
L 4281 4097 
L 3078 897 
L 2444 897 
L 1241 4097 
L 1241 0 
L 628 0 
L 628 4666 
z
" transform="scale(0.015625)"/>
       <path id="DejaVuSans-45" d="M 628 4666 
L 3578 4666 
L 3578 4134 
L 1259 4134 
L 1259 2753 
L 3481 2753 
L 3481 2222 
L 1259 2222 
L 1259 531 
L 3634 531 
L 3634 0 
L 628 0 
L 628 4666 
z
" transform="scale(0.015625)"/>
      </defs>
      <use xlink:href="#DejaVuSans-4d"/>
      <use xlink:href="#DejaVuSans-53" x="86.279297"/>
      <use xlink:href="#DejaVuSans-45" x="149.755859"/>
     </g>
    </g>
   </g>
   <g id="line2d_36">
    <path d="M 69.218182 99.012314 
L 106.205707 132.444756 
L 127.842022 139.936531 
L 143.193232 145.113755 
L 155.100555 146.009347 
L 164.829547 146.608692 
L 173.055292 146.932762 
L 180.180757 146.933895 
L 186.465862 148.712425 
L 192.08808 147.789017 
L 197.173995 148.09452 
L 210.042817 148.332029 
L 213.724395 148.08741 
L 217.168281 148.170212 
L 220.403316 148.546394 
L 223.453387 148.168886 
L 226.338507 148.385063 
L 231.679132 148.421704 
L 234.16152 148.692112 
L 236.533542 148.418221 
L 240.982928 148.328582 
L 247.030342 148.740639 
L 248.902875 148.607909 
L 252.461641 148.794075 
L 254.155806 148.556236 
L 257.39084 148.52687 
L 260.440912 148.710569 
L 261.902968 148.548035 
L 263.326031 148.529361 
L 266.06313 148.717787 
L 267.38077 148.588418 
L 269.922285 148.597243 
L 271.149045 148.48851 
L 273.521067 148.474288 
L 274.668675 148.681698 
L 277.970453 148.546903 
L 282.077227 148.755952 
L 284.962347 148.610773 
L 286.802588 148.724454 
L 289.449166 148.660636 
L 301.011105 148.660376 
L 306.90981 148.656575 
L 358.230608 148.681656 
L 358.937396 148.759436 
L 359.634945 148.6441 
L 360.323493 148.679343 
L 361.227951 148.568633 
L 361.896373 148.712184 
L 363.424216 148.670332 
L 364.909529 148.576157 
L 365.53365 148.532169 
L 366.354615 148.747398 
L 370.657156 148.58771 
L 371.403486 148.376078 
L 372.139522 148.781631 
L 372.865543 148.398348 
L 373.581818 148.476487 
L 373.581818 148.476487 
" clip-path="url(#peb50eb0877)" style="fill: none; stroke: #1f77b4; stroke-width: 1.5; stroke-linecap: square"/>
   </g>
   <g id="line2d_37">
    <path d="M 69.218182 82.626798 
L 106.205707 125.09195 
L 127.842022 136.440271 
L 143.193232 142.953982 
L 155.100555 144.652809 
L 164.829547 145.664127 
L 173.055292 146.228642 
L 180.180757 146.360865 
L 186.465862 148.207819 
L 192.08808 147.310426 
L 197.173995 147.673087 
L 206.088288 147.944453 
L 210.042817 147.945776 
L 213.724395 147.678291 
L 217.168281 147.739183 
L 220.403316 148.096607 
L 223.453387 147.6915 
L 226.338507 147.870991 
L 231.679132 147.834517 
L 234.16152 148.058344 
L 236.533542 147.73781 
L 240.982928 147.541485 
L 247.030342 147.778236 
L 248.902875 147.583813 
L 252.461641 147.629897 
L 254.155806 147.325438 
L 257.39084 147.143764 
L 260.440912 147.160204 
L 261.902968 146.918475 
L 263.326031 146.815081 
L 266.06313 146.8135 
L 267.38077 146.593621 
L 269.922285 146.405748 
L 271.149045 146.198957 
L 273.521067 145.973788 
L 274.668675 146.063789 
L 279.027156 145.532421 
L 282.077227 145.296978 
L 284.962347 144.768184 
L 286.802588 144.594155 
L 289.449166 144.105716 
L 295.157382 143.036003 
L 295.92519 142.815453 
L 298.890493 142.188198 
L 302.379429 141.232188 
L 306.90981 139.875487 
L 310.508592 138.616883 
L 314.957978 136.802578 
L 322.877925 132.767075 
L 326.865302 130.268277 
L 329.772885 128.242979 
L 334.044101 124.877717 
L 337.650995 121.661889 
L 340.370653 119.034327 
L 343.586187 115.675112 
L 346.912923 111.913014 
L 351.945503 105.631253 
L 355.804658 100.457732 
L 361.896373 91.742314 
L 373.581818 74.678242 
L 373.581818 74.678242 
" clip-path="url(#peb50eb0877)" style="fill: none; stroke: #ff7f0e; stroke-width: 1.5; stroke-linecap: square"/>
   </g>
   <g id="patch_3">
    <path d="M 54 252 
L 54 34.56 
" style="fill: none; stroke: #000000; stroke-width: 0.8; stroke-linejoin: miter; stroke-linecap: square"/>
   </g>
   <g id="patch_4">
    <path d="M 388.8 252 
L 388.8 34.56 
" style="fill: none; stroke: #000000; stroke-width: 0.8; stroke-linejoin: miter; stroke-linecap: square"/>
   </g>
   <g id="patch_5">
    <path d="M 54 252 
L 388.8 252 
" style="fill: none; stroke: #000000; stroke-width: 0.8; stroke-linejoin: miter; stroke-linecap: square"/>
   </g>
   <g id="patch_6">
    <path d="M 54 34.56 
L 388.8 34.56 
" style="fill: none; stroke: #000000; stroke-width: 0.8; stroke-linejoin: miter; stroke-linecap: square"/>
   </g>
   <g id="legend_1">
    <g id="patch_7">
     <path d="M 249.8875 71.91625 
L 381.8 71.91625 
Q 383.8 71.91625 383.8 69.91625 
L 383.8 41.56 
Q 383.8 39.56 381.8 39.56 
L 249.8875 39.56 
Q 247.8875 39.56 247.8875 41.56 
L 247.8875 69.91625 
Q 247.8875 71.91625 249.8875 71.91625 
z
" style="fill: #ffffff; opacity: 0.8; stroke: #cccccc; stroke-linejoin: miter"/>
    </g>
    <g id="line2d_38">
     <path d="M 251.8875 47.658437 
L 261.8875 47.658437 
L 271.8875 47.658437 
" style="fill: none; stroke: #1f77b4; stroke-width: 1.5; stroke-linecap: square"/>
    </g>
    <g id="text_7">
     <!-- parameter-shift rule -->
     <g transform="translate(279.8875 51.158437)scale(0.1 -0.1)">
      <defs>
       <path id="DejaVuSans-61" d="M 2194 1759 
Q 1497 1759 1228 1600 
Q 959 1441 959 1056 
Q 959 750 1161 570 
Q 1363 391 1709 391 
Q 2188 391 2477 730 
Q 2766 1069 2766 1631 
L 2766 1759 
L 2194 1759 
z
M 3341 1997 
L 3341 0 
L 2766 0 
L 2766 531 
Q 2569 213 2275 61 
Q 1981 -91 1556 -91 
Q 1019 -91 701 211 
Q 384 513 384 1019 
Q 384 1609 779 1909 
Q 1175 2209 1959 2209 
L 2766 2209 
L 2766 2266 
Q 2766 2663 2505 2880 
Q 2244 3097 1772 3097 
Q 1472 3097 1187 3025 
Q 903 2953 641 2809 
L 641 3341 
Q 956 3463 1253 3523 
Q 1550 3584 1831 3584 
Q 2591 3584 2966 3190 
Q 3341 2797 3341 1997 
z
" transform="scale(0.015625)"/>
       <path id="DejaVuSans-72" d="M 2631 2963 
Q 2534 3019 2420 3045 
Q 2306 3072 2169 3072 
Q 1681 3072 1420 2755 
Q 1159 2438 1159 1844 
L 1159 0 
L 581 0 
L 581 3500 
L 1159 3500 
L 1159 2956 
Q 1341 3275 1631 3429 
Q 1922 3584 2338 3584 
Q 2397 3584 2469 3576 
Q 2541 3569 2628 3553 
L 2631 2963 
z
" transform="scale(0.015625)"/>
       <path id="DejaVuSans-6d" d="M 3328 2828 
Q 3544 3216 3844 3400 
Q 4144 3584 4550 3584 
Q 5097 3584 5394 3201 
Q 5691 2819 5691 2113 
L 5691 0 
L 5113 0 
L 5113 2094 
Q 5113 2597 4934 2840 
Q 4756 3084 4391 3084 
Q 3944 3084 3684 2787 
Q 3425 2491 3425 1978 
L 3425 0 
L 2847 0 
L 2847 2094 
Q 2847 2600 2669 2842 
Q 2491 3084 2119 3084 
Q 1678 3084 1418 2786 
Q 1159 2488 1159 1978 
L 1159 0 
L 581 0 
L 581 3500 
L 1159 3500 
L 1159 2956 
Q 1356 3278 1631 3431 
Q 1906 3584 2284 3584 
Q 2666 3584 2933 3390 
Q 3200 3197 3328 2828 
z
" transform="scale(0.015625)"/>
       <path id="DejaVuSans-2d" d="M 313 2009 
L 1997 2009 
L 1997 1497 
L 313 1497 
L 313 2009 
z
" transform="scale(0.015625)"/>
       <path id="DejaVuSans-68" d="M 3513 2113 
L 3513 0 
L 2938 0 
L 2938 2094 
Q 2938 2591 2744 2837 
Q 2550 3084 2163 3084 
Q 1697 3084 1428 2787 
Q 1159 2491 1159 1978 
L 1159 0 
L 581 0 
L 581 4863 
L 1159 4863 
L 1159 2956 
Q 1366 3272 1645 3428 
Q 1925 3584 2291 3584 
Q 2894 3584 3203 3211 
Q 3513 2838 3513 2113 
z
" transform="scale(0.015625)"/>
       <path id="DejaVuSans-66" d="M 2375 4863 
L 2375 4384 
L 1825 4384 
Q 1516 4384 1395 4259 
Q 1275 4134 1275 3809 
L 1275 3500 
L 2222 3500 
L 2222 3053 
L 1275 3053 
L 1275 0 
L 697 0 
L 697 3053 
L 147 3053 
L 147 3500 
L 697 3500 
L 697 3744 
Q 697 4328 969 4595 
Q 1241 4863 1831 4863 
L 2375 4863 
z
" transform="scale(0.015625)"/>
       <path id="DejaVuSans-75" d="M 544 1381 
L 544 3500 
L 1119 3500 
L 1119 1403 
Q 1119 906 1312 657 
Q 1506 409 1894 409 
Q 2359 409 2629 706 
Q 2900 1003 2900 1516 
L 2900 3500 
L 3475 3500 
L 3475 0 
L 2900 0 
L 2900 538 
Q 2691 219 2414 64 
Q 2138 -91 1772 -91 
Q 1169 -91 856 284 
Q 544 659 544 1381 
z
M 1991 3584 
L 1991 3584 
z
" transform="scale(0.015625)"/>
       <path id="DejaVuSans-6c" d="M 603 4863 
L 1178 4863 
L 1178 0 
L 603 0 
L 603 4863 
z
" transform="scale(0.015625)"/>
      </defs>
      <use xlink:href="#DejaVuSans-70"/>
      <use xlink:href="#DejaVuSans-61" x="63.476562"/>
      <use xlink:href="#DejaVuSans-72" x="124.755859"/>
      <use xlink:href="#DejaVuSans-61" x="165.869141"/>
      <use xlink:href="#DejaVuSans-6d" x="227.148438"/>
      <use xlink:href="#DejaVuSans-65" x="324.560547"/>
      <use xlink:href="#DejaVuSans-74" x="386.083984"/>
      <use xlink:href="#DejaVuSans-65" x="425.292969"/>
      <use xlink:href="#DejaVuSans-72" x="486.816406"/>
      <use xlink:href="#DejaVuSans-2d" x="521.554688"/>
      <use xlink:href="#DejaVuSans-73" x="557.638672"/>
      <use xlink:href="#DejaVuSans-68" x="609.738281"/>
      <use xlink:href="#DejaVuSans-69" x="673.117188"/>
      <use xlink:href="#DejaVuSans-66" x="700.900391"/>
      <use xlink:href="#DejaVuSans-74" x="734.355469"/>
      <use xlink:href="#DejaVuSans-20" x="773.564453"/>
      <use xlink:href="#DejaVuSans-72" x="805.351562"/>
      <use xlink:href="#DejaVuSans-75" x="846.464844"/>
      <use xlink:href="#DejaVuSans-6c" x="909.84375"/>
      <use xlink:href="#DejaVuSans-65" x="937.626953"/>
     </g>
    </g>
    <g id="line2d_39">
     <path d="M 251.8875 62.336562 
L 261.8875 62.336562 
L 271.8875 62.336562 
" style="fill: none; stroke: #ff7f0e; stroke-width: 1.5; stroke-linecap: square"/>
    </g>
    <g id="text_8">
     <!-- finite-different -->
     <g transform="translate(279.8875 65.836562)scale(0.1 -0.1)">
      <defs>
       <path id="DejaVuSans-6e" d="M 3513 2113 
L 3513 0 
L 2938 0 
L 2938 2094 
Q 2938 2591 2744 2837 
Q 2550 3084 2163 3084 
Q 1697 3084 1428 2787 
Q 1159 2491 1159 1978 
L 1159 0 
L 581 0 
L 581 3500 
L 1159 3500 
L 1159 2956 
Q 1366 3272 1645 3428 
Q 1925 3584 2291 3584 
Q 2894 3584 3203 3211 
Q 3513 2838 3513 2113 
z
" transform="scale(0.015625)"/>
       <path id="DejaVuSans-64" d="M 2906 2969 
L 2906 4863 
L 3481 4863 
L 3481 0 
L 2906 0 
L 2906 525 
Q 2725 213 2448 61 
Q 2172 -91 1784 -91 
Q 1150 -91 751 415 
Q 353 922 353 1747 
Q 353 2572 751 3078 
Q 1150 3584 1784 3584 
Q 2172 3584 2448 3432 
Q 2725 3281 2906 2969 
z
M 947 1747 
Q 947 1113 1208 752 
Q 1469 391 1925 391 
Q 2381 391 2643 752 
Q 2906 1113 2906 1747 
Q 2906 2381 2643 2742 
Q 2381 3103 1925 3103 
Q 1469 3103 1208 2742 
Q 947 2381 947 1747 
z
" transform="scale(0.015625)"/>
      </defs>
      <use xlink:href="#DejaVuSans-66"/>
      <use xlink:href="#DejaVuSans-69" x="35.205078"/>
      <use xlink:href="#DejaVuSans-6e" x="62.988281"/>
      <use xlink:href="#DejaVuSans-69" x="126.367188"/>
      <use xlink:href="#DejaVuSans-74" x="154.150391"/>
      <use xlink:href="#DejaVuSans-65" x="193.359375"/>
      <use xlink:href="#DejaVuSans-2d" x="254.882812"/>
      <use xlink:href="#DejaVuSans-64" x="290.966797"/>
      <use xlink:href="#DejaVuSans-69" x="354.443359"/>
      <use xlink:href="#DejaVuSans-66" x="382.226562"/>
      <use xlink:href="#DejaVuSans-66" x="417.431641"/>
      <use xlink:href="#DejaVuSans-65" x="452.636719"/>
      <use xlink:href="#DejaVuSans-72" x="514.160156"/>
      <use xlink:href="#DejaVuSans-65" x="553.023438"/>
      <use xlink:href="#DejaVuSans-6e" x="614.546875"/>
      <use xlink:href="#DejaVuSans-74" x="677.925781"/>
     </g>
    </g>
   </g>
  </g>
 </g>
 <defs>
  <clipPath id="peb50eb0877">
   <rect x="54" y="34.56" width="334.8" height="217.44"/>
  </clipPath>
 </defs>
</svg>
