<?xml version="1.0" encoding="utf-8" standalone="no"?>
<!DOCTYPE svg PUBLIC "-//W3C//DTD SVG 1.1//EN"
  "http://www.w3.org/Graphics/SVG/1.1/DTD/svg11.dtd">
<svg xmlns:xlink="http://www.w3.org/1999/xlink" width="432pt" height="288pt" viewBox="0 0 432 288" xmlns="http://www.w3.org/2000/svg" version="1.1">
 <metadata>
  <rdf:RDF xmlns:dc="http://purl.org/dc/elements/1.1/" xmlns:cc="http://creativecommons.org/ns#" xmlns:rdf="http://www.w3.org/1999/02/22-rdf-syntax-ns#">
   <cc:Work>
    <dc:type rdf:resource="http://purl.org/dc/dcmitype/StillImage"/>
    <dc:date>2022-10-31T09:23:13.451305</dc:date>
    <dc:format>image/svg+xml</dc:format>
    <dc:creator>
     <cc:Agent>
      <dc:title>Matplotlib v3.5.1, https://matplotlib.org/</dc:title>
     </cc:Agent>
    </dc:creator>
   </cc:Work>
  </rdf:RDF>
 </metadata>
 <defs>
  <style type="text/css">*{stroke-linejoin: round; stroke-linecap: butt}</style>
 </defs>
 <g id="figure_1">
  <g id="patch_1">
   <path d="M 0 288 
L 432 288 
L 432 0 
L 0 0 
L 0 288 
z
" style="fill: none"/>
  </g>
  <g id="axes_1">
   <g id="patch_2">
    <path d="M 54 252 
L 388.8 252 
L 388.8 34.56 
L 54 34.56 
z
" style="fill: #ffffff"/>
   </g>
   <g id="PolyCollection_1">
    <path d="M 69.218182 53.087489 
L 69.218182 127372.993331 
L 106.211705 127372.993331 
L 128.029134 242.116364 
L 143.605336 215.922753 
L 155.755343 200.807119 
L 165.736018 195.125936 
L 174.218739 188.081691 
L 181.604627 185.737673 
L 188.152583 181.526938 
L 194.039473 179.057461 
L 199.391495 177.519842 
L 204.301858 175.47121 
L 208.841365 174.745864 
L 213.065064 173.583696 
L 217.0166 172.847834 
L 220.731165 172.144654 
L 224.237546 171.040939 
L 227.559593 170.896886 
L 230.717286 170.417513 
L 233.72753 169.892231 
L 236.604754 169.74168 
L 239.361375 169.091782 
L 242.008153 168.990335 
L 244.554474 168.503355 
L 247.008574 168.014147 
L 249.37772 167.892986 
L 251.668359 167.632934 
L 253.886229 167.808043 
L 256.03647 167.417279 
L 258.123694 167.415873 
L 260.152063 166.970715 
L 262.125342 166.683798 
L 264.046946 166.889081 
L 265.919987 166.359797 
L 267.747305 165.96001 
L 269.5315 165.921712 
L 271.274959 165.973319 
L 272.979878 165.757109 
L 274.64828 165.80938 
L 276.282037 165.847145 
L 277.882881 165.551473 
L 279.452418 165.461788 
L 280.992142 165.341431 
L 282.503444 165.378788 
L 283.987621 165.070002 
L 285.445883 165.038942 
L 286.879363 164.92244 
L 288.289123 164.702514 
L 289.676159 164.753087 
L 291.041407 164.635423 
L 292.385745 164.743289 
L 293.710003 164.614108 
L 295.014963 164.592996 
L 296.30136 164.502945 
L 297.569893 164.393103 
L 298.82122 164.301118 
L 300.055965 164.323516 
L 301.27472 164.255078 
L 302.478046 164.166656 
L 303.666476 164.119072 
L 304.840517 164.167843 
L 306.00065 164.03076 
L 307.147333 164.039487 
L 308.281004 163.893884 
L 309.40208 163.89661 
L 310.510957 163.781334 
L 311.608015 163.688163 
L 312.693617 163.755001 
L 313.768109 163.702644 
L 314.831824 163.656695 
L 315.885079 163.584428 
L 316.928178 163.497561 
L 317.961413 163.485152 
L 318.985063 163.495006 
L 319.999398 163.415397 
L 321.004675 163.381027 
L 322.001142 163.316804 
L 322.989036 163.334286 
L 323.968587 163.259907 
L 324.940015 163.230381 
L 325.903532 163.123656 
L 326.859342 163.149113 
L 327.807642 163.106552 
L 328.748622 163.081897 
L 329.682465 163.038662 
L 330.609348 162.999404 
L 331.52944 162.959638 
L 332.442906 162.907045 
L 333.349906 162.87596 
L 334.250593 162.845357 
L 335.145115 162.792334 
L 336.033616 162.765676 
L 336.916235 162.718546 
L 337.793106 162.687128 
L 338.66436 162.638821 
L 339.530122 162.636096 
L 340.390515 162.687309 
L 341.245658 162.728464 
L 342.095664 162.746427 
L 342.940646 162.820049 
L 343.78071 162.831508 
L 344.615963 162.882158 
L 345.446505 162.938091 
L 346.272435 162.975187 
L 347.09385 163.004417 
L 347.910841 163.103845 
L 348.7235 163.143274 
L 349.531915 163.153007 
L 350.336171 163.203817 
L 351.136351 163.323976 
L 351.932536 163.352271 
L 352.724804 163.424907 
L 353.513233 163.479801 
L 354.297897 163.575817 
L 355.078868 163.574978 
L 355.856217 163.623954 
L 356.630012 163.654371 
L 357.400322 163.77275 
L 358.16721 163.873807 
L 358.930741 163.977453 
L 359.690977 164.106688 
L 360.447979 164.159669 
L 361.201805 164.306986 
L 361.952513 164.433129 
L 362.700159 164.625359 
L 363.444798 164.538267 
L 364.186483 164.792352 
L 364.925268 164.979211 
L 365.661202 165.131811 
L 366.394335 165.353904 
L 367.124717 165.598833 
L 367.852395 165.719876 
L 368.577414 166.32476 
L 369.299822 166.699956 
L 370.019661 167.200293 
L 370.736975 168.146939 
L 371.451807 168.694314 
L 372.164198 169.866426 
L 372.874188 171.571531 
L 373.581818 174.311648 
L 373.581818 152.71057 
L 373.581818 152.71057 
L 372.874188 154.323163 
L 372.164198 155.894888 
L 371.451807 157.048425 
L 370.736975 157.460473 
L 370.019661 157.96531 
L 369.299822 158.570242 
L 368.577414 159.168161 
L 367.852395 159.653538 
L 367.124717 159.519699 
L 366.394335 159.906038 
L 365.661202 160.214501 
L 364.925268 160.286213 
L 364.186483 160.449214 
L 363.444798 160.686822 
L 362.700159 160.86687 
L 361.952513 160.9085 
L 361.201805 161.072055 
L 360.447979 161.124872 
L 359.690977 161.192627 
L 358.930741 161.281365 
L 358.16721 161.339959 
L 357.400322 161.469733 
L 356.630012 161.527964 
L 355.856217 161.53991 
L 355.078868 161.704988 
L 354.297897 161.73255 
L 353.513233 161.759188 
L 352.724804 161.822724 
L 351.932536 161.9271 
L 351.136351 162.005224 
L 350.336171 162.029302 
L 349.531915 162.104412 
L 348.7235 162.127427 
L 347.910841 162.185138 
L 347.09385 162.208258 
L 346.272435 162.265662 
L 345.446505 162.314792 
L 344.615963 162.360768 
L 343.78071 162.394614 
L 342.940646 162.438711 
L 342.095664 162.477411 
L 341.245658 162.513581 
L 340.390515 162.558459 
L 339.530122 162.607418 
L 338.66436 162.603467 
L 337.793106 162.557352 
L 336.916235 162.535092 
L 336.033616 162.486672 
L 335.145115 162.449025 
L 334.250593 162.396981 
L 333.349906 162.374624 
L 332.442906 162.346212 
L 331.52944 162.288862 
L 330.609348 162.261307 
L 329.682465 162.268211 
L 328.748622 162.176622 
L 327.807642 162.146989 
L 326.859342 162.063388 
L 325.903532 162.056649 
L 324.940015 162.054836 
L 323.968587 162.023585 
L 322.989036 161.890334 
L 322.001142 161.902051 
L 321.004675 161.893642 
L 319.999398 161.851841 
L 318.985063 161.829177 
L 317.961413 161.705714 
L 316.928178 161.697314 
L 315.885079 161.621662 
L 314.831824 161.678903 
L 313.768109 161.646807 
L 312.693617 161.531903 
L 311.608015 161.432796 
L 310.510957 161.41181 
L 309.40208 161.442312 
L 308.281004 161.355897 
L 307.147333 161.324617 
L 306.00065 161.267245 
L 304.840517 161.220554 
L 303.666476 161.092012 
L 302.478046 161.055141 
L 301.27472 160.981822 
L 300.055965 160.984482 
L 298.82122 160.952844 
L 297.569893 160.86606 
L 296.30136 160.777129 
L 295.014963 160.722485 
L 293.710003 160.614404 
L 292.385745 160.566529 
L 291.041407 160.387915 
L 289.676159 160.456309 
L 288.289123 160.385552 
L 286.879363 160.331323 
L 285.445883 160.221921 
L 283.987621 160.154526 
L 282.503444 160.154997 
L 280.992142 160.014367 
L 279.452418 159.884557 
L 277.882881 159.807654 
L 276.282037 159.73836 
L 274.64828 159.560368 
L 272.979878 159.541899 
L 271.274959 159.32665 
L 269.5315 159.147828 
L 267.747305 159.04126 
L 265.919987 158.944064 
L 264.046946 158.869445 
L 262.125342 158.601369 
L 260.152063 158.73127 
L 258.123694 158.539328 
L 256.03647 158.324193 
L 253.886229 158.28347 
L 251.668359 158.183414 
L 249.37772 157.459307 
L 247.008574 157.415255 
L 244.554474 157.218526 
L 242.008153 156.958008 
L 239.361375 156.350628 
L 236.604754 156.016447 
L 233.72753 155.708792 
L 230.717286 155.497596 
L 227.559593 154.537031 
L 224.237546 154.220665 
L 220.731165 154.123282 
L 217.0166 153.693261 
L 213.065064 152.76284 
L 208.841365 152.60274 
L 204.301858 150.93211 
L 199.391495 149.266177 
L 194.039473 147.682211 
L 188.152583 147.052056 
L 181.604627 144.353608 
L 174.218739 141.571597 
L 165.736018 139.804744 
L 155.755343 135.764518 
L 143.605336 130.516721 
L 128.029134 120.358659 
L 106.211705 101.004293 
L 69.218182 53.087489 
z
" clip-path="url(#p5940b8e900)" style="fill: #1f77b4; fill-opacity: 0.1"/>
   </g>
   <g id="PolyCollection_2">
    <path d="M 69.218182 53.087822 
L 69.218182 127372.993331 
L 106.211705 127372.993331 
L 128.029134 242.020344 
L 143.605336 215.802726 
L 155.755343 200.656018 
L 165.736018 194.921873 
L 174.218739 187.828725 
L 181.604627 185.417434 
L 188.152583 181.144355 
L 194.039473 178.600091 
L 199.391495 176.978133 
L 204.301858 174.73558 
L 208.841365 173.901639 
L 213.065064 172.629464 
L 217.0166 171.773349 
L 220.731165 170.942981 
L 224.237546 169.714023 
L 227.559593 169.421842 
L 230.717286 168.631582 
L 233.72753 167.948429 
L 236.604754 167.622827 
L 239.361375 166.805908 
L 242.008153 166.516345 
L 244.554474 165.642123 
L 247.008574 164.961692 
L 249.37772 164.626765 
L 251.668359 163.924161 
L 253.886229 163.852847 
L 256.03647 163.237588 
L 258.123694 162.985626 
L 260.152063 162.047985 
L 262.125342 161.511539 
L 264.046946 161.427974 
L 265.919987 160.370081 
L 267.747305 159.710226 
L 269.5315 159.075619 
L 271.274959 158.813829 
L 272.979878 157.982691 
L 274.64828 157.703792 
L 276.282037 157.405319 
L 277.882881 156.464003 
L 279.452418 156.038853 
L 280.992142 155.223211 
L 282.503444 154.893013 
L 283.987621 153.888762 
L 285.445883 153.485737 
L 286.879363 152.620119 
L 288.289123 151.651552 
L 289.676159 151.295261 
L 291.041407 150.387878 
L 292.385745 150.064863 
L 293.710003 149.124055 
L 295.014963 148.255359 
L 296.30136 147.752706 
L 297.569893 146.792796 
L 298.82122 145.833702 
L 300.055965 144.95022 
L 301.27472 144.4422 
L 302.478046 143.455361 
L 303.666476 142.487798 
L 304.840517 141.578551 
L 306.00065 141.003282 
L 307.147333 140.048946 
L 308.281004 138.976061 
L 309.40208 137.998212 
L 310.510957 136.93071 
L 311.608015 135.871362 
L 312.693617 134.911004 
L 313.768109 133.864351 
L 314.831824 132.8155 
L 315.885079 131.744284 
L 316.928178 130.659034 
L 317.961413 129.615205 
L 318.985063 128.579783 
L 319.999398 127.486587 
L 321.004675 126.416815 
L 322.001142 125.326959 
L 322.989036 124.280311 
L 323.968587 123.180245 
L 324.940015 122.103125 
L 325.903532 120.451964 
L 326.859342 119.400226 
L 327.807642 118.312746 
L 328.748622 117.234036 
L 329.682465 115.613059 
L 330.609348 114.528147 
L 331.52944 113.444221 
L 332.442906 111.824205 
L 333.349906 110.748146 
L 334.250593 109.674349 
L 335.145115 108.065119 
L 336.033616 106.999294 
L 336.916235 105.403308 
L 337.793106 104.34349 
L 338.66436 102.760182 
L 339.530122 101.720322 
L 340.390515 100.187081 
L 341.245658 98.658198 
L 342.095664 97.640607 
L 342.940646 96.137232 
L 343.78071 95.128211 
L 344.615963 93.633891 
L 345.446505 92.151799 
L 346.272435 90.675574 
L 347.09385 89.699343 
L 347.910841 88.259943 
L 348.7235 86.816979 
L 349.531915 85.380028 
L 350.336171 83.967108 
L 351.136351 82.583693 
L 351.932536 81.19346 
L 352.724804 79.82757 
L 353.513233 78.472803 
L 354.297897 77.140991 
L 355.078868 75.806479 
L 355.856217 74.497419 
L 356.630012 73.201404 
L 357.400322 71.935993 
L 358.16721 70.264669 
L 358.930741 69.034371 
L 359.690977 67.82371 
L 360.447979 66.619313 
L 361.201805 65.049757 
L 361.952513 63.893911 
L 362.700159 62.761675 
L 363.444798 61.243709 
L 364.186483 60.15657 
L 364.925268 58.719329 
L 365.661202 57.662119 
L 366.394335 56.280517 
L 367.124717 54.930189 
L 367.852395 53.933986 
L 368.577414 52.656459 
L 369.299822 51.394516 
L 370.019661 50.475724 
L 370.736975 49.283869 
L 371.451807 48.103784 
L 372.164198 46.967262 
L 372.874188 45.862177 
L 373.581818 44.791066 
L 373.581818 44.443636 
L 373.581818 44.443636 
L 372.874188 45.498258 
L 372.164198 46.598631 
L 371.451807 47.734189 
L 370.736975 48.885246 
L 370.019661 50.07642 
L 369.299822 51.005525 
L 368.577414 52.270059 
L 367.852395 53.567065 
L 367.124717 54.531637 
L 366.394335 55.885029 
L 365.661202 57.27006 
L 364.925268 58.318855 
L 364.186483 59.753125 
L 363.444798 60.862555 
L 362.700159 62.359685 
L 361.952513 63.494496 
L 361.201805 64.662447 
L 360.447979 66.228971 
L 359.690977 67.428622 
L 358.930741 68.649806 
L 358.16721 69.885048 
L 357.400322 71.568252 
L 356.630012 72.845486 
L 355.856217 74.132199 
L 355.078868 75.463944 
L 354.297897 76.788144 
L 353.513233 78.128672 
L 352.724804 79.493366 
L 351.932536 80.883656 
L 351.136351 82.285066 
L 350.336171 83.69008 
L 349.531915 85.122807 
L 348.7235 86.557854 
L 347.910841 88.016507 
L 347.09385 89.480206 
L 346.272435 90.475415 
L 345.446505 91.969419 
L 344.615963 93.475693 
L 343.78071 94.990827 
L 342.940646 96.014486 
L 342.095664 97.550926 
L 341.245658 98.584909 
L 340.390515 100.141615 
L 339.530122 101.709857 
L 338.66436 102.746993 
L 337.793106 104.29346 
L 336.916235 105.33104 
L 336.033616 106.885811 
L 335.145115 107.922496 
L 334.250593 109.482144 
L 333.349906 110.528783 
L 332.442906 111.573739 
L 331.52944 113.135432 
L 330.609348 114.181641 
L 329.682465 115.244094 
L 328.748622 116.787587 
L 327.807642 117.83037 
L 326.859342 118.843978 
L 325.903532 119.894824 
L 324.940015 121.472078 
L 323.968587 122.504383 
L 322.989036 123.476385 
L 322.001142 124.524965 
L 321.004675 125.558604 
L 319.999398 126.56844 
L 318.985063 127.584335 
L 317.961413 128.53379 
L 316.928178 129.546492 
L 315.885079 130.510481 
L 314.831824 131.55198 
L 313.768109 132.529687 
L 312.693617 133.444627 
L 311.608015 134.359838 
L 310.510957 135.317749 
L 309.40208 136.302085 
L 308.281004 137.195357 
L 307.147333 138.116295 
L 306.00065 139.006962 
L 304.840517 139.434761 
L 303.666476 140.253662 
L 302.478046 141.127164 
L 301.27472 141.9595 
L 300.055965 142.399943 
L 298.82122 143.24352 
L 297.569893 144.028227 
L 296.30136 144.795197 
L 295.014963 145.164508 
L 293.710003 145.890157 
L 292.385745 146.647129 
L 291.041407 146.89181 
L 289.676159 147.718097 
L 288.289123 148.037262 
L 286.879363 148.734142 
L 285.445883 149.364248 
L 283.987621 149.660546 
L 282.503444 150.355958 
L 280.992142 150.572422 
L 279.452418 151.120261 
L 277.882881 151.376361 
L 276.282037 151.945518 
L 274.64828 152.092158 
L 272.979878 152.376785 
L 271.274959 152.765878 
L 269.5315 152.886271 
L 267.747305 153.337967 
L 265.919987 153.513685 
L 264.046946 153.957946 
L 262.125342 153.954978 
L 260.152063 154.318568 
L 258.123694 154.602642 
L 256.03647 154.621494 
L 253.886229 154.798562 
L 251.668359 154.913374 
L 249.37772 154.619582 
L 247.008574 154.765734 
L 244.554474 154.759708 
L 242.008153 154.852763 
L 239.361375 154.424963 
L 236.604754 154.253991 
L 233.72753 154.101277 
L 230.717286 154.036562 
L 227.559593 153.3559 
L 224.237546 153.16415 
L 220.731165 153.181558 
L 217.0166 152.863248 
L 213.065064 152.042518 
L 208.841365 151.976271 
L 204.301858 150.404614 
L 199.391495 148.897327 
L 194.039473 147.384463 
L 188.152583 146.813106 
L 181.604627 144.172625 
L 174.218739 141.438826 
L 165.736018 139.710109 
L 155.755343 135.702736 
L 143.605336 130.480944 
L 128.029134 120.342061 
L 106.211705 100.999839 
L 69.218182 53.087822 
z
" clip-path="url(#p5940b8e900)" style="fill: #ff7f0e; fill-opacity: 0.1"/>
   </g>
   <g id="matplotlib.axis_1">
    <g id="xtick_1">
     <g id="line2d_1">
      <defs>
       <path id="mebc80a9da3" d="M 0 0 
L 0 3.5 
" style="stroke: #000000; stroke-width: 0.8"/>
      </defs>
      <g>
       <use xlink:href="#mebc80a9da3" x="69.218182" y="252" style="stroke: #000000; stroke-width: 0.8"/>
      </g>
     </g>
     <g id="text_1">
      <!-- $\mathdefault{10^{-2}}$ -->
      <g transform="translate(57.468182 266.598437)scale(0.1 -0.1)">
       <defs>
        <path id="DejaVuSans-31" d="M 794 531 
L 1825 531 
L 1825 4091 
L 703 3866 
L 703 4441 
L 1819 4666 
L 2450 4666 
L 2450 531 
L 3481 531 
L 3481 0 
L 794 0 
L 794 531 
z
" transform="scale(0.015625)"/>
        <path id="DejaVuSans-30" d="M 2034 4250 
Q 1547 4250 1301 3770 
Q 1056 3291 1056 2328 
Q 1056 1369 1301 889 
Q 1547 409 2034 409 
Q 2525 409 2770 889 
Q 3016 1369 3016 2328 
Q 3016 3291 2770 3770 
Q 2525 4250 2034 4250 
z
M 2034 4750 
Q 2819 4750 3233 4129 
Q 3647 3509 3647 2328 
Q 3647 1150 3233 529 
Q 2819 -91 2034 -91 
Q 1250 -91 836 529 
Q 422 1150 422 2328 
Q 422 3509 836 4129 
Q 1250 4750 2034 4750 
z
" transform="scale(0.015625)"/>
        <path id="DejaVuSans-2212" d="M 678 2272 
L 4684 2272 
L 4684 1741 
L 678 1741 
L 678 2272 
z
" transform="scale(0.015625)"/>
        <path id="DejaVuSans-32" d="M 1228 531 
L 3431 531 
L 3431 0 
L 469 0 
L 469 531 
Q 828 903 1448 1529 
Q 2069 2156 2228 2338 
Q 2531 2678 2651 2914 
Q 2772 3150 2772 3378 
Q 2772 3750 2511 3984 
Q 2250 4219 1831 4219 
Q 1534 4219 1204 4116 
Q 875 4013 500 3803 
L 500 4441 
Q 881 4594 1212 4672 
Q 1544 4750 1819 4750 
Q 2544 4750 2975 4387 
Q 3406 4025 3406 3419 
Q 3406 3131 3298 2873 
Q 3191 2616 2906 2266 
Q 2828 2175 2409 1742 
Q 1991 1309 1228 531 
z
" transform="scale(0.015625)"/>
       </defs>
       <use xlink:href="#DejaVuSans-31" transform="translate(0 0.765625)"/>
       <use xlink:href="#DejaVuSans-30" transform="translate(63.623047 0.765625)"/>
       <use xlink:href="#DejaVuSans-2212" transform="translate(128.203125 39.046875)scale(0.7)"/>
       <use xlink:href="#DejaVuSans-32" transform="translate(186.855469 39.046875)scale(0.7)"/>
      </g>
     </g>
    </g>
    <g id="xtick_2">
     <g id="line2d_2">
      <g>
       <use xlink:href="#mebc80a9da3" x="192.108005" y="252" style="stroke: #000000; stroke-width: 0.8"/>
      </g>
     </g>
     <g id="text_2">
      <!-- $\mathdefault{10^{-1}}$ -->
      <g transform="translate(180.358005 266.598437)scale(0.1 -0.1)">
       <use xlink:href="#DejaVuSans-31" transform="translate(0 0.684375)"/>
       <use xlink:href="#DejaVuSans-30" transform="translate(63.623047 0.684375)"/>
       <use xlink:href="#DejaVuSans-2212" transform="translate(128.203125 38.965625)scale(0.7)"/>
       <use xlink:href="#DejaVuSans-31" transform="translate(186.855469 38.965625)scale(0.7)"/>
      </g>
     </g>
    </g>
    <g id="xtick_3">
     <g id="line2d_3">
      <g>
       <use xlink:href="#mebc80a9da3" x="314.997827" y="252" style="stroke: #000000; stroke-width: 0.8"/>
      </g>
     </g>
     <g id="text_3">
      <!-- $\mathdefault{10^{0}}$ -->
      <g transform="translate(306.197827 266.598437)scale(0.1 -0.1)">
       <use xlink:href="#DejaVuSans-31" transform="translate(0 0.765625)"/>
       <use xlink:href="#DejaVuSans-30" transform="translate(63.623047 0.765625)"/>
       <use xlink:href="#DejaVuSans-30" transform="translate(128.203125 39.046875)scale(0.7)"/>
      </g>
     </g>
    </g>
    <g id="xtick_4">
     <g id="line2d_4">
      <defs>
       <path id="m142f79b14d" d="M 0 0 
L 0 2 
" style="stroke: #000000; stroke-width: 0.6"/>
      </defs>
      <g>
       <use xlink:href="#m142f79b14d" x="57.308927" y="252" style="stroke: #000000; stroke-width: 0.6"/>
      </g>
     </g>
    </g>
    <g id="xtick_5">
     <g id="line2d_5">
      <g>
       <use xlink:href="#m142f79b14d" x="63.595052" y="252" style="stroke: #000000; stroke-width: 0.6"/>
      </g>
     </g>
    </g>
    <g id="xtick_6">
     <g id="line2d_6">
      <g>
       <use xlink:href="#m142f79b14d" x="106.211705" y="252" style="stroke: #000000; stroke-width: 0.6"/>
      </g>
     </g>
    </g>
    <g id="xtick_7">
     <g id="line2d_7">
      <g>
       <use xlink:href="#m142f79b14d" x="127.851528" y="252" style="stroke: #000000; stroke-width: 0.6"/>
      </g>
     </g>
    </g>
    <g id="xtick_8">
     <g id="line2d_8">
      <g>
       <use xlink:href="#m142f79b14d" x="143.205227" y="252" style="stroke: #000000; stroke-width: 0.6"/>
      </g>
     </g>
    </g>
    <g id="xtick_9">
     <g id="line2d_9">
      <g>
       <use xlink:href="#m142f79b14d" x="155.114482" y="252" style="stroke: #000000; stroke-width: 0.6"/>
      </g>
     </g>
    </g>
    <g id="xtick_10">
     <g id="line2d_10">
      <g>
       <use xlink:href="#m142f79b14d" x="164.845051" y="252" style="stroke: #000000; stroke-width: 0.6"/>
      </g>
     </g>
    </g>
    <g id="xtick_11">
     <g id="line2d_11">
      <g>
       <use xlink:href="#m142f79b14d" x="173.07213" y="252" style="stroke: #000000; stroke-width: 0.6"/>
      </g>
     </g>
    </g>
    <g id="xtick_12">
     <g id="line2d_12">
      <g>
       <use xlink:href="#m142f79b14d" x="180.19875" y="252" style="stroke: #000000; stroke-width: 0.6"/>
      </g>
     </g>
    </g>
    <g id="xtick_13">
     <g id="line2d_13">
      <g>
       <use xlink:href="#m142f79b14d" x="186.484875" y="252" style="stroke: #000000; stroke-width: 0.6"/>
      </g>
     </g>
    </g>
    <g id="xtick_14">
     <g id="line2d_14">
      <g>
       <use xlink:href="#m142f79b14d" x="229.101527" y="252" style="stroke: #000000; stroke-width: 0.6"/>
      </g>
     </g>
    </g>
    <g id="xtick_15">
     <g id="line2d_15">
      <g>
       <use xlink:href="#m142f79b14d" x="250.741351" y="252" style="stroke: #000000; stroke-width: 0.6"/>
      </g>
     </g>
    </g>
    <g id="xtick_16">
     <g id="line2d_16">
      <g>
       <use xlink:href="#m142f79b14d" x="266.09505" y="252" style="stroke: #000000; stroke-width: 0.6"/>
      </g>
     </g>
    </g>
    <g id="xtick_17">
     <g id="line2d_17">
      <g>
       <use xlink:href="#m142f79b14d" x="278.004305" y="252" style="stroke: #000000; stroke-width: 0.6"/>
      </g>
     </g>
    </g>
    <g id="xtick_18">
     <g id="line2d_18">
      <g>
       <use xlink:href="#m142f79b14d" x="287.734874" y="252" style="stroke: #000000; stroke-width: 0.6"/>
      </g>
     </g>
    </g>
    <g id="xtick_19">
     <g id="line2d_19">
      <g>
       <use xlink:href="#m142f79b14d" x="295.961953" y="252" style="stroke: #000000; stroke-width: 0.6"/>
      </g>
     </g>
    </g>
    <g id="xtick_20">
     <g id="line2d_20">
      <g>
       <use xlink:href="#m142f79b14d" x="303.088573" y="252" style="stroke: #000000; stroke-width: 0.6"/>
      </g>
     </g>
    </g>
    <g id="xtick_21">
     <g id="line2d_21">
      <g>
       <use xlink:href="#m142f79b14d" x="309.374698" y="252" style="stroke: #000000; stroke-width: 0.6"/>
      </g>
     </g>
    </g>
    <g id="xtick_22">
     <g id="line2d_22">
      <g>
       <use xlink:href="#m142f79b14d" x="351.99135" y="252" style="stroke: #000000; stroke-width: 0.6"/>
      </g>
     </g>
    </g>
    <g id="xtick_23">
     <g id="line2d_23">
      <g>
       <use xlink:href="#m142f79b14d" x="373.631174" y="252" style="stroke: #000000; stroke-width: 0.6"/>
      </g>
     </g>
    </g>
    <g id="text_4">
     <!-- Step size -->
     <g transform="translate(198.73125 280.276563)scale(0.1 -0.1)">
      <defs>
       <path id="DejaVuSans-53" d="M 3425 4513 
L 3425 3897 
Q 3066 4069 2747 4153 
Q 2428 4238 2131 4238 
Q 1616 4238 1336 4038 
Q 1056 3838 1056 3469 
Q 1056 3159 1242 3001 
Q 1428 2844 1947 2747 
L 2328 2669 
Q 3034 2534 3370 2195 
Q 3706 1856 3706 1288 
Q 3706 609 3251 259 
Q 2797 -91 1919 -91 
Q 1588 -91 1214 -16 
Q 841 59 441 206 
L 441 856 
Q 825 641 1194 531 
Q 1563 422 1919 422 
Q 2459 422 2753 634 
Q 3047 847 3047 1241 
Q 3047 1584 2836 1778 
Q 2625 1972 2144 2069 
L 1759 2144 
Q 1053 2284 737 2584 
Q 422 2884 422 3419 
Q 422 4038 858 4394 
Q 1294 4750 2059 4750 
Q 2388 4750 2728 4690 
Q 3069 4631 3425 4513 
z
" transform="scale(0.015625)"/>
       <path id="DejaVuSans-74" d="M 1172 4494 
L 1172 3500 
L 2356 3500 
L 2356 3053 
L 1172 3053 
L 1172 1153 
Q 1172 725 1289 603 
Q 1406 481 1766 481 
L 2356 481 
L 2356 0 
L 1766 0 
Q 1100 0 847 248 
Q 594 497 594 1153 
L 594 3053 
L 172 3053 
L 172 3500 
L 594 3500 
L 594 4494 
L 1172 4494 
z
" transform="scale(0.015625)"/>
       <path id="DejaVuSans-65" d="M 3597 1894 
L 3597 1613 
L 953 1613 
Q 991 1019 1311 708 
Q 1631 397 2203 397 
Q 2534 397 2845 478 
Q 3156 559 3463 722 
L 3463 178 
Q 3153 47 2828 -22 
Q 2503 -91 2169 -91 
Q 1331 -91 842 396 
Q 353 884 353 1716 
Q 353 2575 817 3079 
Q 1281 3584 2069 3584 
Q 2775 3584 3186 3129 
Q 3597 2675 3597 1894 
z
M 3022 2063 
Q 3016 2534 2758 2815 
Q 2500 3097 2075 3097 
Q 1594 3097 1305 2825 
Q 1016 2553 972 2059 
L 3022 2063 
z
" transform="scale(0.015625)"/>
       <path id="DejaVuSans-70" d="M 1159 525 
L 1159 -1331 
L 581 -1331 
L 581 3500 
L 1159 3500 
L 1159 2969 
Q 1341 3281 1617 3432 
Q 1894 3584 2278 3584 
Q 2916 3584 3314 3078 
Q 3713 2572 3713 1747 
Q 3713 922 3314 415 
Q 2916 -91 2278 -91 
Q 1894 -91 1617 61 
Q 1341 213 1159 525 
z
M 3116 1747 
Q 3116 2381 2855 2742 
Q 2594 3103 2138 3103 
Q 1681 3103 1420 2742 
Q 1159 2381 1159 1747 
Q 1159 1113 1420 752 
Q 1681 391 2138 391 
Q 2594 391 2855 752 
Q 3116 1113 3116 1747 
z
" transform="scale(0.015625)"/>
       <path id="DejaVuSans-20" transform="scale(0.015625)"/>
       <path id="DejaVuSans-73" d="M 2834 3397 
L 2834 2853 
Q 2591 2978 2328 3040 
Q 2066 3103 1784 3103 
Q 1356 3103 1142 2972 
Q 928 2841 928 2578 
Q 928 2378 1081 2264 
Q 1234 2150 1697 2047 
L 1894 2003 
Q 2506 1872 2764 1633 
Q 3022 1394 3022 966 
Q 3022 478 2636 193 
Q 2250 -91 1575 -91 
Q 1294 -91 989 -36 
Q 684 19 347 128 
L 347 722 
Q 666 556 975 473 
Q 1284 391 1588 391 
Q 1994 391 2212 530 
Q 2431 669 2431 922 
Q 2431 1156 2273 1281 
Q 2116 1406 1581 1522 
L 1381 1569 
Q 847 1681 609 1914 
Q 372 2147 372 2553 
Q 372 3047 722 3315 
Q 1072 3584 1716 3584 
Q 2034 3584 2315 3537 
Q 2597 3491 2834 3397 
z
" transform="scale(0.015625)"/>
       <path id="DejaVuSans-69" d="M 603 3500 
L 1178 3500 
L 1178 0 
L 603 0 
L 603 3500 
z
M 603 4863 
L 1178 4863 
L 1178 4134 
L 603 4134 
L 603 4863 
z
" transform="scale(0.015625)"/>
       <path id="DejaVuSans-7a" d="M 353 3500 
L 3084 3500 
L 3084 2975 
L 922 459 
L 3084 459 
L 3084 0 
L 275 0 
L 275 525 
L 2438 3041 
L 353 3041 
L 353 3500 
z
" transform="scale(0.015625)"/>
      </defs>
      <use xlink:href="#DejaVuSans-53"/>
      <use xlink:href="#DejaVuSans-74" x="63.476562"/>
      <use xlink:href="#DejaVuSans-65" x="102.685547"/>
      <use xlink:href="#DejaVuSans-70" x="164.208984"/>
      <use xlink:href="#DejaVuSans-20" x="227.685547"/>
      <use xlink:href="#DejaVuSans-73" x="259.472656"/>
      <use xlink:href="#DejaVuSans-69" x="311.572266"/>
      <use xlink:href="#DejaVuSans-7a" x="339.355469"/>
      <use xlink:href="#DejaVuSans-65" x="391.845703"/>
     </g>
    </g>
   </g>
   <g id="matplotlib.axis_2">
    <g id="ytick_1">
     <g id="line2d_24">
      <defs>
       <path id="m6ae442170d" d="M 0 0 
L -3.5 0 
" style="stroke: #000000; stroke-width: 0.8"/>
      </defs>
      <g>
       <use xlink:href="#m6ae442170d" x="54" y="136.624947" style="stroke: #000000; stroke-width: 0.8"/>
      </g>
     </g>
     <g id="text_5">
      <!-- $\mathdefault{10^{-1}}$ -->
      <g transform="translate(23.5 140.424166)scale(0.1 -0.1)">
       <use xlink:href="#DejaVuSans-31" transform="translate(0 0.684375)"/>
       <use xlink:href="#DejaVuSans-30" transform="translate(63.623047 0.684375)"/>
       <use xlink:href="#DejaVuSans-2212" transform="translate(128.203125 38.965625)scale(0.7)"/>
       <use xlink:href="#DejaVuSans-31" transform="translate(186.855469 38.965625)scale(0.7)"/>
      </g>
     </g>
    </g>
    <g id="ytick_2">
     <g id="line2d_25">
      <defs>
       <path id="mb93731e165" d="M 0 0 
L -2 0 
" style="stroke: #000000; stroke-width: 0.6"/>
      </defs>
      <g>
       <use xlink:href="#mb93731e165" x="54" y="225.648376" style="stroke: #000000; stroke-width: 0.6"/>
      </g>
     </g>
    </g>
    <g id="ytick_3">
     <g id="line2d_26">
      <g>
       <use xlink:href="#mb93731e165" x="54" y="203.220736" style="stroke: #000000; stroke-width: 0.6"/>
      </g>
     </g>
    </g>
    <g id="ytick_4">
     <g id="line2d_27">
      <g>
       <use xlink:href="#mb93731e165" x="54" y="187.308072" style="stroke: #000000; stroke-width: 0.6"/>
      </g>
     </g>
    </g>
    <g id="ytick_5">
     <g id="line2d_28">
      <g>
       <use xlink:href="#mb93731e165" x="54" y="174.965251" style="stroke: #000000; stroke-width: 0.6"/>
      </g>
     </g>
    </g>
    <g id="ytick_6">
     <g id="line2d_29">
      <g>
       <use xlink:href="#mb93731e165" x="54" y="164.880432" style="stroke: #000000; stroke-width: 0.6"/>
      </g>
     </g>
    </g>
    <g id="ytick_7">
     <g id="line2d_30">
      <g>
       <use xlink:href="#mb93731e165" x="54" y="156.353839" style="stroke: #000000; stroke-width: 0.6"/>
      </g>
     </g>
    </g>
    <g id="ytick_8">
     <g id="line2d_31">
      <g>
       <use xlink:href="#mb93731e165" x="54" y="148.967768" style="stroke: #000000; stroke-width: 0.6"/>
      </g>
     </g>
    </g>
    <g id="ytick_9">
     <g id="line2d_32">
      <g>
       <use xlink:href="#mb93731e165" x="54" y="142.452792" style="stroke: #000000; stroke-width: 0.6"/>
      </g>
     </g>
    </g>
    <g id="ytick_10">
     <g id="line2d_33">
      <g>
       <use xlink:href="#mb93731e165" x="54" y="98.284644" style="stroke: #000000; stroke-width: 0.6"/>
      </g>
     </g>
    </g>
    <g id="ytick_11">
     <g id="line2d_34">
      <g>
       <use xlink:href="#mb93731e165" x="54" y="75.857004" style="stroke: #000000; stroke-width: 0.6"/>
      </g>
     </g>
    </g>
    <g id="ytick_12">
     <g id="line2d_35">
      <g>
       <use xlink:href="#mb93731e165" x="54" y="59.94434" style="stroke: #000000; stroke-width: 0.6"/>
      </g>
     </g>
    </g>
    <g id="ytick_13">
     <g id="line2d_36">
      <g>
       <use xlink:href="#mb93731e165" x="54" y="47.601519" style="stroke: #000000; stroke-width: 0.6"/>
      </g>
     </g>
    </g>
    <g id="ytick_14">
     <g id="line2d_37">
      <g>
       <use xlink:href="#mb93731e165" x="54" y="37.5167" style="stroke: #000000; stroke-width: 0.6"/>
      </g>
     </g>
    </g>
    <g id="text_6">
     <!-- MSE -->
     <g transform="translate(17.420313 153.927656)rotate(-90)scale(0.1 -0.1)">
      <defs>
       <path id="DejaVuSans-4d" d="M 628 4666 
L 1569 4666 
L 2759 1491 
L 3956 4666 
L 4897 4666 
L 4897 0 
L 4281 0 
L 4281 4097 
L 3078 897 
L 2444 897 
L 1241 4097 
L 1241 0 
L 628 0 
L 628 4666 
z
" transform="scale(0.015625)"/>
       <path id="DejaVuSans-45" d="M 628 4666 
L 3578 4666 
L 3578 4134 
L 1259 4134 
L 1259 2753 
L 3481 2753 
L 3481 2222 
L 1259 2222 
L 1259 531 
L 3634 531 
L 3634 0 
L 628 0 
L 628 4666 
z
" transform="scale(0.015625)"/>
      </defs>
      <use xlink:href="#DejaVuSans-4d"/>
      <use xlink:href="#DejaVuSans-53" x="86.279297"/>
      <use xlink:href="#DejaVuSans-45" x="149.755859"/>
     </g>
    </g>
   </g>
   <g id="line2d_38">
    <path d="M 69.218182 100.908525 
L 106.211705 140.345382 
L 128.029134 152.89326 
L 143.605336 158.152638 
L 155.755343 159.230253 
L 165.736018 160.819594 
L 174.218739 160.075727 
L 181.604627 161.262364 
L 188.152583 161.646004 
L 194.039473 161.174423 
L 199.391495 161.608315 
L 204.301858 161.851866 
L 208.841365 162.573577 
L 213.065064 162.199334 
L 217.0166 162.445524 
L 220.731165 162.40326 
L 224.237546 161.993889 
L 227.559593 162.114312 
L 230.717286 162.45602 
L 233.72753 162.347137 
L 236.604754 162.454436 
L 239.361375 162.355155 
L 242.008153 162.64764 
L 249.37772 162.430499 
L 251.668359 162.706629 
L 253.886229 162.841001 
L 256.03647 162.684092 
L 258.123694 162.79973 
L 262.125342 162.495088 
L 264.046946 162.734049 
L 267.747305 162.392528 
L 274.64828 162.596673 
L 276.282037 162.708464 
L 279.452418 162.602908 
L 286.879363 162.579261 
L 288.289123 162.501929 
L 289.676159 162.562987 
L 291.041407 162.470909 
L 292.385745 162.615494 
L 296.30136 162.608672 
L 303.666476 162.584837 
L 304.840517 162.674571 
L 308.281004 162.610335 
L 309.40208 162.65585 
L 311.608015 162.548985 
L 313.768109 162.665175 
L 339.530122 162.621755 
L 366.394335 162.562927 
L 367.124717 162.475793 
L 368.577414 162.630799 
L 370.019661 162.390293 
L 370.736975 162.54603 
L 371.451807 162.565438 
L 372.874188 162.277734 
L 373.581818 162.46328 
L 373.581818 162.46328 
" clip-path="url(#p5940b8e900)" style="fill: none; stroke: #1f77b4; stroke-width: 1.5; stroke-linecap: square"/>
   </g>
   <g id="line2d_39">
    <path d="M 69.218182 100.908641 
L 106.211705 140.337794 
L 128.029134 152.868743 
L 143.605336 158.102028 
L 155.755343 159.147397 
L 165.736018 160.695511 
L 174.218739 159.906706 
L 181.604627 161.036611 
L 188.152583 161.356877 
L 194.039473 160.818858 
L 199.391495 161.174579 
L 204.301858 161.242923 
L 208.841365 161.859634 
L 213.065064 161.383693 
L 217.0166 161.514099 
L 220.731165 161.3524 
L 224.237546 160.822412 
L 230.717286 160.854081 
L 233.72753 160.592668 
L 236.604754 160.535495 
L 239.361375 160.269749 
L 242.008153 160.377693 
L 244.554474 159.933719 
L 249.37772 159.397172 
L 253.886229 159.140648 
L 256.03647 158.761945 
L 258.123694 158.635476 
L 260.152063 158.048374 
L 262.125342 157.604318 
L 264.046946 157.566953 
L 265.919987 156.835715 
L 267.747305 156.432385 
L 269.5315 155.894419 
L 271.274959 155.707234 
L 272.979878 155.10875 
L 276.282037 154.608081 
L 277.882881 153.861708 
L 279.452418 153.524904 
L 280.992142 152.848951 
L 282.503444 152.57798 
L 283.987621 151.734263 
L 285.445883 151.386614 
L 288.289123 149.814892 
L 289.676159 149.477766 
L 291.041407 148.612227 
L 292.385745 148.329603 
L 295.014963 146.688347 
L 296.30136 146.254187 
L 300.055965 143.660385 
L 301.27472 143.186922 
L 304.840517 140.496271 
L 306.00065 139.996116 
L 309.40208 137.143647 
L 316.928178 130.099965 
L 322.001142 124.924508 
L 324.940015 121.786702 
L 325.903532 120.172692 
L 328.748622 117.010361 
L 329.682465 115.428269 
L 331.52944 113.289611 
L 332.442906 111.69883 
L 334.250593 109.578163 
L 335.145115 107.993762 
L 336.033616 106.942523 
L 336.916235 105.367162 
L 337.793106 104.318469 
L 338.66436 102.753587 
L 339.530122 101.715089 
L 341.245658 98.621541 
L 342.095664 97.595748 
L 342.940646 96.075825 
L 343.78071 95.059476 
L 346.272435 90.575404 
L 347.09385 89.589666 
L 354.297897 76.964286 
L 357.400322 71.751817 
L 358.16721 70.074533 
L 360.447979 66.423798 
L 361.201805 64.855763 
L 362.700159 62.560315 
L 363.444798 61.052804 
L 364.186483 59.95448 
L 364.925268 58.51873 
L 365.661202 57.465742 
L 367.124717 54.730554 
L 367.852395 53.750221 
L 369.299822 51.199679 
L 370.019661 50.275712 
L 372.874188 45.679918 
L 373.581818 44.617079 
L 373.581818 44.617079 
" clip-path="url(#p5940b8e900)" style="fill: none; stroke: #ff7f0e; stroke-width: 1.5; stroke-linecap: square"/>
   </g>
   <g id="patch_3">
    <path d="M 54 252 
L 54 34.56 
" style="fill: none; stroke: #000000; stroke-width: 0.8; stroke-linejoin: miter; stroke-linecap: square"/>
   </g>
   <g id="patch_4">
    <path d="M 388.8 252 
L 388.8 34.56 
" style="fill: none; stroke: #000000; stroke-width: 0.8; stroke-linejoin: miter; stroke-linecap: square"/>
   </g>
   <g id="patch_5">
    <path d="M 54 252 
L 388.8 252 
" style="fill: none; stroke: #000000; stroke-width: 0.8; stroke-linejoin: miter; stroke-linecap: square"/>
   </g>
   <g id="patch_6">
    <path d="M 54 34.56 
L 388.8 34.56 
" style="fill: none; stroke: #000000; stroke-width: 0.8; stroke-linejoin: miter; stroke-linecap: square"/>
   </g>
   <g id="text_7">
    <!-- x parameter -->
    <g transform="translate(184.265625 28.56)scale(0.12 -0.12)">
     <defs>
      <path id="DejaVuSans-78" d="M 3513 3500 
L 2247 1797 
L 3578 0 
L 2900 0 
L 1881 1375 
L 863 0 
L 184 0 
L 1544 1831 
L 300 3500 
L 978 3500 
L 1906 2253 
L 2834 3500 
L 3513 3500 
z
" transform="scale(0.015625)"/>
      <path id="DejaVuSans-61" d="M 2194 1759 
Q 1497 1759 1228 1600 
Q 959 1441 959 1056 
Q 959 750 1161 570 
Q 1363 391 1709 391 
Q 2188 391 2477 730 
Q 2766 1069 2766 1631 
L 2766 1759 
L 2194 1759 
z
M 3341 1997 
L 3341 0 
L 2766 0 
L 2766 531 
Q 2569 213 2275 61 
Q 1981 -91 1556 -91 
Q 1019 -91 701 211 
Q 384 513 384 1019 
Q 384 1609 779 1909 
Q 1175 2209 1959 2209 
L 2766 2209 
L 2766 2266 
Q 2766 2663 2505 2880 
Q 2244 3097 1772 3097 
Q 1472 3097 1187 3025 
Q 903 2953 641 2809 
L 641 3341 
Q 956 3463 1253 3523 
Q 1550 3584 1831 3584 
Q 2591 3584 2966 3190 
Q 3341 2797 3341 1997 
z
" transform="scale(0.015625)"/>
      <path id="DejaVuSans-72" d="M 2631 2963 
Q 2534 3019 2420 3045 
Q 2306 3072 2169 3072 
Q 1681 3072 1420 2755 
Q 1159 2438 1159 1844 
L 1159 0 
L 581 0 
L 581 3500 
L 1159 3500 
L 1159 2956 
Q 1341 3275 1631 3429 
Q 1922 3584 2338 3584 
Q 2397 3584 2469 3576 
Q 2541 3569 2628 3553 
L 2631 2963 
z
" transform="scale(0.015625)"/>
      <path id="DejaVuSans-6d" d="M 3328 2828 
Q 3544 3216 3844 3400 
Q 4144 3584 4550 3584 
Q 5097 3584 5394 3201 
Q 5691 2819 5691 2113 
L 5691 0 
L 5113 0 
L 5113 2094 
Q 5113 2597 4934 2840 
Q 4756 3084 4391 3084 
Q 3944 3084 3684 2787 
Q 3425 2491 3425 1978 
L 3425 0 
L 2847 0 
L 2847 2094 
Q 2847 2600 2669 2842 
Q 2491 3084 2119 3084 
Q 1678 3084 1418 2786 
Q 1159 2488 1159 1978 
L 1159 0 
L 581 0 
L 581 3500 
L 1159 3500 
L 1159 2956 
Q 1356 3278 1631 3431 
Q 1906 3584 2284 3584 
Q 2666 3584 2933 3390 
Q 3200 3197 3328 2828 
z
" transform="scale(0.015625)"/>
     </defs>
     <use xlink:href="#DejaVuSans-78"/>
     <use xlink:href="#DejaVuSans-20" x="59.179688"/>
     <use xlink:href="#DejaVuSans-70" x="90.966797"/>
     <use xlink:href="#DejaVuSans-61" x="154.443359"/>
     <use xlink:href="#DejaVuSans-72" x="215.722656"/>
     <use xlink:href="#DejaVuSans-61" x="256.835938"/>
     <use xlink:href="#DejaVuSans-6d" x="318.115234"/>
     <use xlink:href="#DejaVuSans-65" x="415.527344"/>
     <use xlink:href="#DejaVuSans-74" x="477.050781"/>
     <use xlink:href="#DejaVuSans-65" x="516.259766"/>
     <use xlink:href="#DejaVuSans-72" x="577.783203"/>
    </g>
   </g>
   <g id="legend_1">
    <g id="patch_7">
     <path d="M 61 71.91625 
L 192.9125 71.91625 
Q 194.9125 71.91625 194.9125 69.91625 
L 194.9125 41.56 
Q 194.9125 39.56 192.9125 39.56 
L 61 39.56 
Q 59 39.56 59 41.56 
L 59 69.91625 
Q 59 71.91625 61 71.91625 
z
" style="fill: #ffffff; opacity: 0.8; stroke: #cccccc; stroke-linejoin: miter"/>
    </g>
    <g id="line2d_40">
     <path d="M 63 47.658437 
L 73 47.658437 
L 83 47.658437 
" style="fill: none; stroke: #1f77b4; stroke-width: 1.5; stroke-linecap: square"/>
    </g>
    <g id="text_8">
     <!-- parameter-shift rule -->
     <g transform="translate(91 51.158437)scale(0.1 -0.1)">
      <defs>
       <path id="DejaVuSans-2d" d="M 313 2009 
L 1997 2009 
L 1997 1497 
L 313 1497 
L 313 2009 
z
" transform="scale(0.015625)"/>
       <path id="DejaVuSans-68" d="M 3513 2113 
L 3513 0 
L 2938 0 
L 2938 2094 
Q 2938 2591 2744 2837 
Q 2550 3084 2163 3084 
Q 1697 3084 1428 2787 
Q 1159 2491 1159 1978 
L 1159 0 
L 581 0 
L 581 4863 
L 1159 4863 
L 1159 2956 
Q 1366 3272 1645 3428 
Q 1925 3584 2291 3584 
Q 2894 3584 3203 3211 
Q 3513 2838 3513 2113 
z
" transform="scale(0.015625)"/>
       <path id="DejaVuSans-66" d="M 2375 4863 
L 2375 4384 
L 1825 4384 
Q 1516 4384 1395 4259 
Q 1275 4134 1275 3809 
L 1275 3500 
L 2222 3500 
L 2222 3053 
L 1275 3053 
L 1275 0 
L 697 0 
L 697 3053 
L 147 3053 
L 147 3500 
L 697 3500 
L 697 3744 
Q 697 4328 969 4595 
Q 1241 4863 1831 4863 
L 2375 4863 
z
" transform="scale(0.015625)"/>
       <path id="DejaVuSans-75" d="M 544 1381 
L 544 3500 
L 1119 3500 
L 1119 1403 
Q 1119 906 1312 657 
Q 1506 409 1894 409 
Q 2359 409 2629 706 
Q 2900 1003 2900 1516 
L 2900 3500 
L 3475 3500 
L 3475 0 
L 2900 0 
L 2900 538 
Q 2691 219 2414 64 
Q 2138 -91 1772 -91 
Q 1169 -91 856 284 
Q 544 659 544 1381 
z
M 1991 3584 
L 1991 3584 
z
" transform="scale(0.015625)"/>
       <path id="DejaVuSans-6c" d="M 603 4863 
L 1178 4863 
L 1178 0 
L 603 0 
L 603 4863 
z
" transform="scale(0.015625)"/>
      </defs>
      <use xlink:href="#DejaVuSans-70"/>
      <use xlink:href="#DejaVuSans-61" x="63.476562"/>
      <use xlink:href="#DejaVuSans-72" x="124.755859"/>
      <use xlink:href="#DejaVuSans-61" x="165.869141"/>
      <use xlink:href="#DejaVuSans-6d" x="227.148438"/>
      <use xlink:href="#DejaVuSans-65" x="324.560547"/>
      <use xlink:href="#DejaVuSans-74" x="386.083984"/>
      <use xlink:href="#DejaVuSans-65" x="425.292969"/>
      <use xlink:href="#DejaVuSans-72" x="486.816406"/>
      <use xlink:href="#DejaVuSans-2d" x="521.554688"/>
      <use xlink:href="#DejaVuSans-73" x="557.638672"/>
      <use xlink:href="#DejaVuSans-68" x="609.738281"/>
      <use xlink:href="#DejaVuSans-69" x="673.117188"/>
      <use xlink:href="#DejaVuSans-66" x="700.900391"/>
      <use xlink:href="#DejaVuSans-74" x="734.355469"/>
      <use xlink:href="#DejaVuSans-20" x="773.564453"/>
      <use xlink:href="#DejaVuSans-72" x="805.351562"/>
      <use xlink:href="#DejaVuSans-75" x="846.464844"/>
      <use xlink:href="#DejaVuSans-6c" x="909.84375"/>
      <use xlink:href="#DejaVuSans-65" x="937.626953"/>
     </g>
    </g>
    <g id="line2d_41">
     <path d="M 63 62.336562 
L 73 62.336562 
L 83 62.336562 
" style="fill: none; stroke: #ff7f0e; stroke-width: 1.5; stroke-linecap: square"/>
    </g>
    <g id="text_9">
     <!-- finite-different -->
     <g transform="translate(91 65.836562)scale(0.1 -0.1)">
      <defs>
       <path id="DejaVuSans-6e" d="M 3513 2113 
L 3513 0 
L 2938 0 
L 2938 2094 
Q 2938 2591 2744 2837 
Q 2550 3084 2163 3084 
Q 1697 3084 1428 2787 
Q 1159 2491 1159 1978 
L 1159 0 
L 581 0 
L 581 3500 
L 1159 3500 
L 1159 2956 
Q 1366 3272 1645 3428 
Q 1925 3584 2291 3584 
Q 2894 3584 3203 3211 
Q 3513 2838 3513 2113 
z
" transform="scale(0.015625)"/>
       <path id="DejaVuSans-64" d="M 2906 2969 
L 2906 4863 
L 3481 4863 
L 3481 0 
L 2906 0 
L 2906 525 
Q 2725 213 2448 61 
Q 2172 -91 1784 -91 
Q 1150 -91 751 415 
Q 353 922 353 1747 
Q 353 2572 751 3078 
Q 1150 3584 1784 3584 
Q 2172 3584 2448 3432 
Q 2725 3281 2906 2969 
z
M 947 1747 
Q 947 1113 1208 752 
Q 1469 391 1925 391 
Q 2381 391 2643 752 
Q 2906 1113 2906 1747 
Q 2906 2381 2643 2742 
Q 2381 3103 1925 3103 
Q 1469 3103 1208 2742 
Q 947 2381 947 1747 
z
" transform="scale(0.015625)"/>
      </defs>
      <use xlink:href="#DejaVuSans-66"/>
      <use xlink:href="#DejaVuSans-69" x="35.205078"/>
      <use xlink:href="#DejaVuSans-6e" x="62.988281"/>
      <use xlink:href="#DejaVuSans-69" x="126.367188"/>
      <use xlink:href="#DejaVuSans-74" x="154.150391"/>
      <use xlink:href="#DejaVuSans-65" x="193.359375"/>
      <use xlink:href="#DejaVuSans-2d" x="254.882812"/>
      <use xlink:href="#DejaVuSans-64" x="290.966797"/>
      <use xlink:href="#DejaVuSans-69" x="354.443359"/>
      <use xlink:href="#DejaVuSans-66" x="382.226562"/>
      <use xlink:href="#DejaVuSans-66" x="417.431641"/>
      <use xlink:href="#DejaVuSans-65" x="452.636719"/>
      <use xlink:href="#DejaVuSans-72" x="514.160156"/>
      <use xlink:href="#DejaVuSans-65" x="553.023438"/>
      <use xlink:href="#DejaVuSans-6e" x="614.546875"/>
      <use xlink:href="#DejaVuSans-74" x="677.925781"/>
     </g>
    </g>
   </g>
  </g>
 </g>
 <defs>
  <clipPath id="p5940b8e900">
   <rect x="54" y="34.56" width="334.8" height="217.44"/>
  </clipPath>
 </defs>
</svg>
