<?xml version="1.0" encoding="utf-8" standalone="no"?>
<!DOCTYPE svg PUBLIC "-//W3C//DTD SVG 1.1//EN"
  "http://www.w3.org/Graphics/SVG/1.1/DTD/svg11.dtd">
<svg xmlns:xlink="http://www.w3.org/1999/xlink" width="432pt" height="288pt" viewBox="0 0 432 288" xmlns="http://www.w3.org/2000/svg" version="1.1">
 <metadata>
  <rdf:RDF xmlns:dc="http://purl.org/dc/elements/1.1/" xmlns:cc="http://creativecommons.org/ns#" xmlns:rdf="http://www.w3.org/1999/02/22-rdf-syntax-ns#">
   <cc:Work>
    <dc:type rdf:resource="http://purl.org/dc/dcmitype/StillImage"/>
    <dc:date>2022-10-31T09:23:06.399516</dc:date>
    <dc:format>image/svg+xml</dc:format>
    <dc:creator>
     <cc:Agent>
      <dc:title>Matplotlib v3.5.1, https://matplotlib.org/</dc:title>
     </cc:Agent>
    </dc:creator>
   </cc:Work>
  </rdf:RDF>
 </metadata>
 <defs>
  <style type="text/css">*{stroke-linejoin: round; stroke-linecap: butt}</style>
 </defs>
 <g id="figure_1">
  <g id="patch_1">
   <path d="M 0 288 
L 432 288 
L 432 0 
L 0 0 
L 0 288 
z
" style="fill: none"/>
  </g>
  <g id="axes_1">
   <g id="patch_2">
    <path d="M 54 252 
L 388.8 252 
L 388.8 34.56 
L 54 34.56 
z
" style="fill: #ffffff"/>
   </g>
   <g id="PolyCollection_1">
    <path d="M 69.218182 194.437641 
L 69.218182 36825.949138 
L 106.211705 36825.949138 
L 128.029134 36825.949138 
L 143.605336 36825.949138 
L 155.755343 36825.949138 
L 165.736018 36825.949138 
L 174.218739 36825.949138 
L 181.604627 36825.949138 
L 188.152583 36825.949138 
L 194.039473 36825.949138 
L 199.391495 36825.949138 
L 204.301858 36825.949138 
L 208.841365 36825.949138 
L 213.065064 36825.949138 
L 217.0166 36825.949138 
L 220.731165 36825.949138 
L 224.237546 36825.949138 
L 227.559593 36825.949138 
L 230.717286 36825.949138 
L 233.72753 36825.949138 
L 236.604754 36825.949138 
L 239.361375 36825.949138 
L 242.008153 36825.949138 
L 244.554474 36825.949138 
L 247.008574 36825.949138 
L 249.37772 36825.949138 
L 251.668359 36825.949138 
L 253.886229 36825.949138 
L 256.03647 36825.949138 
L 258.123694 36825.949138 
L 260.152063 36825.949138 
L 262.125342 36825.949138 
L 264.046946 36825.949138 
L 265.919987 36825.949138 
L 267.747305 36825.949138 
L 269.5315 36825.949138 
L 271.274959 36825.949138 
L 272.979878 36825.949138 
L 274.64828 36825.949138 
L 276.282037 36825.949138 
L 277.882881 36825.949138 
L 279.452418 36825.949138 
L 280.992142 36825.949138 
L 282.503444 36825.949138 
L 283.987621 36825.949138 
L 285.445883 36825.949138 
L 286.879363 36825.949138 
L 288.289123 36825.949138 
L 289.676159 36825.949138 
L 291.041407 36825.949138 
L 292.385745 36825.949138 
L 293.710003 36825.949138 
L 295.014963 36825.949138 
L 296.30136 36825.949138 
L 297.569893 36825.949138 
L 298.82122 36825.949138 
L 300.055965 36825.949138 
L 301.27472 36825.949138 
L 302.478046 36825.949138 
L 303.666476 36825.949138 
L 304.840517 36825.949138 
L 306.00065 36825.949138 
L 307.147333 36825.949138 
L 308.281004 36825.949138 
L 309.40208 36825.949138 
L 310.510957 36825.949138 
L 311.608015 36825.949138 
L 312.693617 36825.949138 
L 313.768109 36825.949138 
L 314.831824 36825.949138 
L 315.885079 36825.949138 
L 316.928178 36825.949138 
L 317.961413 36825.949138 
L 318.985063 36825.949138 
L 319.999398 36825.949138 
L 321.004675 36825.949138 
L 322.001142 36825.949138 
L 322.989036 36825.949138 
L 323.968587 36825.949138 
L 324.940015 36825.949138 
L 325.903532 36825.949138 
L 326.859342 36825.949138 
L 327.807642 36825.949138 
L 328.748622 36825.949138 
L 329.682465 36825.949138 
L 330.609348 36825.949138 
L 331.52944 36825.949138 
L 332.442906 36825.949138 
L 333.349906 36825.949138 
L 334.250593 36825.949138 
L 335.145115 36825.949138 
L 336.033616 36825.949138 
L 336.916235 36825.949138 
L 337.793106 36825.949138 
L 338.66436 36825.949138 
L 339.530122 36825.949138 
L 340.390515 36825.949138 
L 341.245658 36825.949138 
L 342.095664 36825.949138 
L 342.940646 36825.949138 
L 343.78071 36825.949138 
L 344.615963 36825.949138 
L 345.446505 36825.949138 
L 346.272435 36825.949138 
L 347.09385 36825.949138 
L 347.910841 36825.949138 
L 348.7235 36825.949138 
L 349.531915 36825.949138 
L 350.336171 36825.949138 
L 351.136351 36825.949138 
L 351.932536 36825.949138 
L 352.724804 36825.949138 
L 353.513233 36825.949138 
L 354.297897 36825.949138 
L 355.078868 36825.949138 
L 355.856217 36825.949138 
L 356.630012 36825.949138 
L 357.400322 36825.949138 
L 358.16721 36825.949138 
L 358.930741 36825.949138 
L 359.690977 36825.949138 
L 360.447979 36825.949138 
L 361.201805 36825.949138 
L 361.952513 36825.949138 
L 362.700159 36825.949138 
L 363.444798 36825.949138 
L 364.186483 36825.949138 
L 364.925268 36825.949138 
L 365.661202 36825.949138 
L 366.394335 36825.949138 
L 367.124717 36825.949138 
L 367.852395 36825.949138 
L 368.577414 36825.949138 
L 369.299822 36825.949138 
L 370.019661 36825.949138 
L 370.736975 36825.949138 
L 371.451807 36825.949138 
L 372.164198 36825.949138 
L 372.874188 36825.949138 
L 373.581818 36825.949138 
L 373.581818 192.668378 
L 373.581818 192.668378 
L 372.874188 191.243254 
L 372.164198 192.994638 
L 371.451807 193.178245 
L 370.736975 192.388967 
L 370.019661 192.774181 
L 369.299822 192.9028 
L 368.577414 192.509143 
L 367.852395 191.903591 
L 367.124717 192.162886 
L 366.394335 192.505101 
L 365.661202 193.703978 
L 364.925268 192.896372 
L 364.186483 194.617946 
L 363.444798 192.189002 
L 362.700159 192.221758 
L 361.952513 192.192184 
L 361.201805 191.776822 
L 360.447979 193.916905 
L 359.690977 191.345864 
L 358.930741 192.187355 
L 358.16721 194.04153 
L 357.400322 191.658682 
L 356.630012 193.038337 
L 355.856217 192.938412 
L 355.078868 193.931978 
L 354.297897 193.112191 
L 353.513233 192.111552 
L 352.724804 191.782758 
L 351.932536 192.882175 
L 351.136351 193.123042 
L 350.336171 193.752631 
L 349.531915 193.153454 
L 348.7235 192.401125 
L 347.910841 192.820031 
L 347.09385 193.413052 
L 346.272435 193.306874 
L 345.446505 192.402685 
L 344.615963 192.682085 
L 343.78071 191.461826 
L 342.940646 192.311075 
L 342.095664 192.442271 
L 341.245658 191.946122 
L 340.390515 192.196029 
L 339.530122 192.527853 
L 338.66436 192.567865 
L 337.793106 193.89515 
L 336.916235 191.899663 
L 336.033616 194.130172 
L 335.145115 193.72125 
L 334.250593 192.358648 
L 333.349906 191.571157 
L 332.442906 193.265028 
L 331.52944 193.013458 
L 330.609348 191.390477 
L 329.682465 193.566251 
L 328.748622 192.056449 
L 327.807642 193.895691 
L 326.859342 192.461732 
L 325.903532 193.143825 
L 324.940015 192.638159 
L 323.968587 192.963191 
L 322.989036 191.735744 
L 322.001142 194.440106 
L 321.004675 191.972921 
L 319.999398 191.544456 
L 318.985063 194.108478 
L 317.961413 192.568728 
L 316.928178 192.148217 
L 315.885079 192.126457 
L 314.831824 193.234582 
L 313.768109 192.464245 
L 312.693617 192.821743 
L 311.608015 192.605536 
L 310.510957 193.600707 
L 309.40208 193.992501 
L 308.281004 191.586713 
L 307.147333 191.957059 
L 306.00065 191.849135 
L 304.840517 191.889949 
L 303.666476 193.531904 
L 302.478046 192.688909 
L 301.27472 192.513262 
L 300.055965 192.687916 
L 298.82122 192.747639 
L 297.569893 191.141183 
L 296.30136 193.606543 
L 295.014963 194.202505 
L 293.710003 193.55782 
L 292.385745 193.079308 
L 291.041407 192.705991 
L 289.676159 193.120502 
L 288.289123 192.488254 
L 286.879363 191.610377 
L 285.445883 193.731699 
L 283.987621 192.97043 
L 282.503444 191.021779 
L 280.992142 191.869251 
L 279.452418 193.528941 
L 277.882881 193.783209 
L 276.282037 193.163803 
L 274.64828 193.850015 
L 272.979878 191.063961 
L 271.274959 193.62546 
L 269.5315 191.635114 
L 267.747305 192.164014 
L 265.919987 193.99144 
L 264.046946 191.935111 
L 262.125342 191.778709 
L 260.152063 193.621003 
L 258.123694 194.084684 
L 256.03647 193.084141 
L 253.886229 194.83295 
L 251.668359 192.276212 
L 249.37772 192.750072 
L 247.008574 191.88766 
L 244.554474 192.819157 
L 242.008153 191.535703 
L 239.361375 194.253125 
L 236.604754 192.893692 
L 233.72753 192.230243 
L 230.717286 192.953927 
L 227.559593 193.360625 
L 224.237546 191.776033 
L 220.731165 192.720925 
L 217.0166 192.806907 
L 213.065064 193.571705 
L 208.841365 192.642749 
L 204.301858 191.94517 
L 199.391495 192.558906 
L 194.039473 193.190585 
L 188.152583 193.369643 
L 181.604627 193.683352 
L 174.218739 192.213522 
L 165.736018 192.015726 
L 155.755343 193.407411 
L 143.605336 192.828513 
L 128.029134 193.303385 
L 106.211705 193.301419 
L 69.218182 194.437641 
z
" clip-path="url(#p3c02cc3a36)" style="fill: #1f77b4; fill-opacity: 0.1"/>
   </g>
   <g id="PolyCollection_2">
    <path d="M 69.218182 44.443636 
L 69.218182 36825.949138 
L 106.211705 36825.949138 
L 128.029134 36825.949138 
L 143.605336 36825.949138 
L 155.755343 36825.949138 
L 165.736018 36825.949138 
L 174.218739 36825.949138 
L 181.604627 36825.949138 
L 188.152583 36825.949138 
L 194.039473 36825.949138 
L 199.391495 36825.949138 
L 204.301858 36825.949138 
L 208.841365 36825.949138 
L 213.065064 36825.949138 
L 217.0166 36825.949138 
L 220.731165 36825.949138 
L 224.237546 36825.949138 
L 227.559593 36825.949138 
L 230.717286 36825.949138 
L 233.72753 36825.949138 
L 236.604754 36825.949138 
L 239.361375 36825.949138 
L 242.008153 36825.949138 
L 244.554474 36825.949138 
L 247.008574 36825.949138 
L 249.37772 36825.949138 
L 251.668359 36825.949138 
L 253.886229 36825.949138 
L 256.03647 36825.949138 
L 258.123694 36825.949138 
L 260.152063 36825.949138 
L 262.125342 36825.949138 
L 264.046946 36825.949138 
L 265.919987 36825.949138 
L 267.747305 36825.949138 
L 269.5315 36825.949138 
L 271.274959 36825.949138 
L 272.979878 36825.949138 
L 274.64828 36825.949138 
L 276.282037 36825.949138 
L 277.882881 36825.949138 
L 279.452418 36825.949138 
L 280.992142 36825.949138 
L 282.503444 36825.949138 
L 283.987621 36825.949138 
L 285.445883 36825.949138 
L 286.879363 36825.949138 
L 288.289123 36825.949138 
L 289.676159 36825.949138 
L 291.041407 36825.949138 
L 292.385745 36825.949138 
L 293.710003 36825.949138 
L 295.014963 36825.949138 
L 296.30136 36825.949138 
L 297.569893 36825.949138 
L 298.82122 36825.949138 
L 300.055965 36825.949138 
L 301.27472 36825.949138 
L 302.478046 36825.949138 
L 303.666476 36825.949138 
L 304.840517 36825.949138 
L 306.00065 36825.949138 
L 307.147333 36825.949138 
L 308.281004 36825.949138 
L 309.40208 36825.949138 
L 310.510957 36825.949138 
L 311.608015 36825.949138 
L 312.693617 36825.949138 
L 313.768109 36825.949138 
L 314.831824 36825.949138 
L 315.885079 36825.949138 
L 316.928178 36825.949138 
L 317.961413 36825.949138 
L 318.985063 36825.949138 
L 319.999398 36825.949138 
L 321.004675 36825.949138 
L 322.001142 36825.949138 
L 322.989036 36825.949138 
L 323.968587 36825.949138 
L 324.940015 36825.949138 
L 325.903532 36825.949138 
L 326.859342 36825.949138 
L 327.807642 36825.949138 
L 328.748622 36825.949138 
L 329.682465 36825.949138 
L 330.609348 36825.949138 
L 331.52944 36825.949138 
L 332.442906 36825.949138 
L 333.349906 36825.949138 
L 334.250593 36825.949138 
L 335.145115 36825.949138 
L 336.033616 36825.949138 
L 336.916235 36825.949138 
L 337.793106 36825.949138 
L 338.66436 36825.949138 
L 339.530122 36825.949138 
L 340.390515 36825.949138 
L 341.245658 36825.949138 
L 342.095664 36825.949138 
L 342.940646 36825.949138 
L 343.78071 36825.949138 
L 344.615963 36825.949138 
L 345.446505 36825.949138 
L 346.272435 36825.949138 
L 347.09385 36825.949138 
L 347.910841 36825.949138 
L 348.7235 36825.949138 
L 349.531915 36825.949138 
L 350.336171 36825.949138 
L 351.136351 36825.949138 
L 351.932536 36825.949138 
L 352.724804 36825.949138 
L 353.513233 36825.949138 
L 354.297897 36825.949138 
L 355.078868 36825.949138 
L 355.856217 36825.949138 
L 356.630012 36825.949138 
L 357.400322 36825.949138 
L 358.16721 36825.949138 
L 358.930741 36825.949138 
L 359.690977 36825.949138 
L 360.447979 36825.949138 
L 361.201805 36825.949138 
L 361.952513 36825.949138 
L 362.700159 36825.949138 
L 363.444798 36825.949138 
L 364.186483 36825.949138 
L 364.925268 36825.949138 
L 365.661202 36825.949138 
L 366.394335 36825.949138 
L 367.124717 36825.949138 
L 367.852395 36825.949138 
L 368.577414 36825.949138 
L 369.299822 36825.949138 
L 370.019661 36825.949138 
L 370.736975 36825.949138 
L 371.451807 36825.949138 
L 372.164198 36825.949138 
L 372.874188 36825.949138 
L 373.581818 36825.949138 
L 373.581818 227.799547 
L 373.581818 227.799547 
L 372.874188 227.007742 
L 372.164198 226.166672 
L 371.451807 226.228296 
L 370.736975 226.581859 
L 370.019661 225.490443 
L 369.299822 225.721921 
L 368.577414 225.011292 
L 367.852395 225.099689 
L 367.124717 222.427314 
L 366.394335 223.097024 
L 365.661202 223.091872 
L 364.925268 222.469695 
L 364.186483 222.271856 
L 363.444798 220.083757 
L 362.700159 219.611044 
L 361.952513 221.130798 
L 361.201805 220.646125 
L 360.447979 219.936045 
L 359.690977 218.549269 
L 358.930741 218.677034 
L 358.16721 218.210545 
L 357.400322 219.538434 
L 356.630012 218.350163 
L 355.856217 215.980853 
L 355.078868 216.707488 
L 354.297897 217.952969 
L 353.513233 215.395954 
L 352.724804 215.193006 
L 351.932536 213.361893 
L 351.136351 214.776263 
L 350.336171 214.68573 
L 349.531915 214.322215 
L 348.7235 214.192123 
L 347.910841 213.236351 
L 347.09385 211.898597 
L 346.272435 212.174342 
L 345.446505 211.834288 
L 344.615963 209.907575 
L 343.78071 209.250044 
L 342.940646 209.543559 
L 342.095664 208.70959 
L 341.245658 209.87068 
L 340.390515 208.030081 
L 339.530122 207.786659 
L 338.66436 206.934843 
L 337.793106 205.990383 
L 336.916235 206.383829 
L 336.033616 203.704289 
L 335.145115 204.352749 
L 334.250593 203.443947 
L 333.349906 203.563801 
L 332.442906 202.147214 
L 331.52944 201.925221 
L 330.609348 201.013642 
L 329.682465 202.360223 
L 328.748622 200.096771 
L 327.807642 199.348365 
L 326.859342 198.425849 
L 325.903532 199.499218 
L 324.940015 198.244383 
L 323.968587 197.296237 
L 322.989036 198.506845 
L 322.001142 196.367475 
L 321.004675 196.831278 
L 319.999398 197.313011 
L 318.985063 195.064053 
L 317.961413 193.941375 
L 316.928178 193.694563 
L 315.885079 193.04889 
L 314.831824 192.181821 
L 313.768109 192.538504 
L 312.693617 190.940062 
L 311.608015 191.27815 
L 310.510957 190.163426 
L 309.40208 190.749944 
L 308.281004 189.7882 
L 307.147333 188.575863 
L 306.00065 187.498028 
L 304.840517 186.815141 
L 303.666476 185.754991 
L 302.478046 184.551933 
L 301.27472 183.922815 
L 300.055965 183.989138 
L 298.82122 184.384794 
L 297.569893 183.524339 
L 296.30136 182.061207 
L 295.014963 181.376915 
L 293.710003 179.47073 
L 292.385745 178.896307 
L 291.041407 177.234514 
L 289.676159 177.526069 
L 288.289123 177.273771 
L 286.879363 177.064187 
L 285.445883 174.647786 
L 283.987621 173.132956 
L 282.503444 172.801139 
L 280.992142 172.761558 
L 279.452418 169.63739 
L 277.882881 170.690601 
L 276.282037 168.557511 
L 274.64828 169.591835 
L 272.979878 169.375499 
L 271.274959 164.619646 
L 269.5315 166.40328 
L 267.747305 163.177138 
L 265.919987 164.555606 
L 264.046946 161.61576 
L 262.125342 161.06776 
L 260.152063 160.041454 
L 258.123694 159.185609 
L 256.03647 157.074534 
L 253.886229 156.77077 
L 251.668359 155.696172 
L 249.37772 151.951275 
L 247.008574 152.139348 
L 244.554474 151.789753 
L 242.008153 148.907943 
L 239.361375 147.964656 
L 236.604754 146.526014 
L 233.72753 145.340397 
L 230.717286 142.805063 
L 227.559593 140.714008 
L 224.237546 137.032165 
L 220.731165 135.887793 
L 217.0166 133.87191 
L 213.065064 131.670239 
L 208.841365 130.948875 
L 204.301858 127.764541 
L 199.391495 123.894061 
L 194.039473 120.772098 
L 188.152583 116.022467 
L 181.604627 111.915373 
L 174.218739 106.828435 
L 165.736018 102.931396 
L 155.755343 97.492358 
L 143.605336 90.418399 
L 128.029134 80.403261 
L 106.211705 67.77789 
L 69.218182 44.443636 
z
" clip-path="url(#p3c02cc3a36)" style="fill: #ff7f0e; fill-opacity: 0.1"/>
   </g>
   <g id="matplotlib.axis_1">
    <g id="xtick_1">
     <g id="line2d_1">
      <defs>
       <path id="mff1c20d2a9" d="M 0 0 
L 0 3.5 
" style="stroke: #000000; stroke-width: 0.8"/>
      </defs>
      <g>
       <use xlink:href="#mff1c20d2a9" x="69.218182" y="252" style="stroke: #000000; stroke-width: 0.8"/>
      </g>
     </g>
     <g id="text_1">
      <!-- $\mathdefault{10^{-2}}$ -->
      <g transform="translate(57.468182 266.598437)scale(0.1 -0.1)">
       <defs>
        <path id="DejaVuSans-31" d="M 794 531 
L 1825 531 
L 1825 4091 
L 703 3866 
L 703 4441 
L 1819 4666 
L 2450 4666 
L 2450 531 
L 3481 531 
L 3481 0 
L 794 0 
L 794 531 
z
" transform="scale(0.015625)"/>
        <path id="DejaVuSans-30" d="M 2034 4250 
Q 1547 4250 1301 3770 
Q 1056 3291 1056 2328 
Q 1056 1369 1301 889 
Q 1547 409 2034 409 
Q 2525 409 2770 889 
Q 3016 1369 3016 2328 
Q 3016 3291 2770 3770 
Q 2525 4250 2034 4250 
z
M 2034 4750 
Q 2819 4750 3233 4129 
Q 3647 3509 3647 2328 
Q 3647 1150 3233 529 
Q 2819 -91 2034 -91 
Q 1250 -91 836 529 
Q 422 1150 422 2328 
Q 422 3509 836 4129 
Q 1250 4750 2034 4750 
z
" transform="scale(0.015625)"/>
        <path id="DejaVuSans-2212" d="M 678 2272 
L 4684 2272 
L 4684 1741 
L 678 1741 
L 678 2272 
z
" transform="scale(0.015625)"/>
        <path id="DejaVuSans-32" d="M 1228 531 
L 3431 531 
L 3431 0 
L 469 0 
L 469 531 
Q 828 903 1448 1529 
Q 2069 2156 2228 2338 
Q 2531 2678 2651 2914 
Q 2772 3150 2772 3378 
Q 2772 3750 2511 3984 
Q 2250 4219 1831 4219 
Q 1534 4219 1204 4116 
Q 875 4013 500 3803 
L 500 4441 
Q 881 4594 1212 4672 
Q 1544 4750 1819 4750 
Q 2544 4750 2975 4387 
Q 3406 4025 3406 3419 
Q 3406 3131 3298 2873 
Q 3191 2616 2906 2266 
Q 2828 2175 2409 1742 
Q 1991 1309 1228 531 
z
" transform="scale(0.015625)"/>
       </defs>
       <use xlink:href="#DejaVuSans-31" transform="translate(0 0.765625)"/>
       <use xlink:href="#DejaVuSans-30" transform="translate(63.623047 0.765625)"/>
       <use xlink:href="#DejaVuSans-2212" transform="translate(128.203125 39.046875)scale(0.7)"/>
       <use xlink:href="#DejaVuSans-32" transform="translate(186.855469 39.046875)scale(0.7)"/>
      </g>
     </g>
    </g>
    <g id="xtick_2">
     <g id="line2d_2">
      <g>
       <use xlink:href="#mff1c20d2a9" x="192.108005" y="252" style="stroke: #000000; stroke-width: 0.8"/>
      </g>
     </g>
     <g id="text_2">
      <!-- $\mathdefault{10^{-1}}$ -->
      <g transform="translate(180.358005 266.598437)scale(0.1 -0.1)">
       <use xlink:href="#DejaVuSans-31" transform="translate(0 0.684375)"/>
       <use xlink:href="#DejaVuSans-30" transform="translate(63.623047 0.684375)"/>
       <use xlink:href="#DejaVuSans-2212" transform="translate(128.203125 38.965625)scale(0.7)"/>
       <use xlink:href="#DejaVuSans-31" transform="translate(186.855469 38.965625)scale(0.7)"/>
      </g>
     </g>
    </g>
    <g id="xtick_3">
     <g id="line2d_3">
      <g>
       <use xlink:href="#mff1c20d2a9" x="314.997827" y="252" style="stroke: #000000; stroke-width: 0.8"/>
      </g>
     </g>
     <g id="text_3">
      <!-- $\mathdefault{10^{0}}$ -->
      <g transform="translate(306.197827 266.598437)scale(0.1 -0.1)">
       <use xlink:href="#DejaVuSans-31" transform="translate(0 0.765625)"/>
       <use xlink:href="#DejaVuSans-30" transform="translate(63.623047 0.765625)"/>
       <use xlink:href="#DejaVuSans-30" transform="translate(128.203125 39.046875)scale(0.7)"/>
      </g>
     </g>
    </g>
    <g id="xtick_4">
     <g id="line2d_4">
      <defs>
       <path id="me42447f83f" d="M 0 0 
L 0 2 
" style="stroke: #000000; stroke-width: 0.6"/>
      </defs>
      <g>
       <use xlink:href="#me42447f83f" x="57.308927" y="252" style="stroke: #000000; stroke-width: 0.6"/>
      </g>
     </g>
    </g>
    <g id="xtick_5">
     <g id="line2d_5">
      <g>
       <use xlink:href="#me42447f83f" x="63.595052" y="252" style="stroke: #000000; stroke-width: 0.6"/>
      </g>
     </g>
    </g>
    <g id="xtick_6">
     <g id="line2d_6">
      <g>
       <use xlink:href="#me42447f83f" x="106.211705" y="252" style="stroke: #000000; stroke-width: 0.6"/>
      </g>
     </g>
    </g>
    <g id="xtick_7">
     <g id="line2d_7">
      <g>
       <use xlink:href="#me42447f83f" x="127.851528" y="252" style="stroke: #000000; stroke-width: 0.6"/>
      </g>
     </g>
    </g>
    <g id="xtick_8">
     <g id="line2d_8">
      <g>
       <use xlink:href="#me42447f83f" x="143.205227" y="252" style="stroke: #000000; stroke-width: 0.6"/>
      </g>
     </g>
    </g>
    <g id="xtick_9">
     <g id="line2d_9">
      <g>
       <use xlink:href="#me42447f83f" x="155.114482" y="252" style="stroke: #000000; stroke-width: 0.6"/>
      </g>
     </g>
    </g>
    <g id="xtick_10">
     <g id="line2d_10">
      <g>
       <use xlink:href="#me42447f83f" x="164.845051" y="252" style="stroke: #000000; stroke-width: 0.6"/>
      </g>
     </g>
    </g>
    <g id="xtick_11">
     <g id="line2d_11">
      <g>
       <use xlink:href="#me42447f83f" x="173.07213" y="252" style="stroke: #000000; stroke-width: 0.6"/>
      </g>
     </g>
    </g>
    <g id="xtick_12">
     <g id="line2d_12">
      <g>
       <use xlink:href="#me42447f83f" x="180.19875" y="252" style="stroke: #000000; stroke-width: 0.6"/>
      </g>
     </g>
    </g>
    <g id="xtick_13">
     <g id="line2d_13">
      <g>
       <use xlink:href="#me42447f83f" x="186.484875" y="252" style="stroke: #000000; stroke-width: 0.6"/>
      </g>
     </g>
    </g>
    <g id="xtick_14">
     <g id="line2d_14">
      <g>
       <use xlink:href="#me42447f83f" x="229.101527" y="252" style="stroke: #000000; stroke-width: 0.6"/>
      </g>
     </g>
    </g>
    <g id="xtick_15">
     <g id="line2d_15">
      <g>
       <use xlink:href="#me42447f83f" x="250.741351" y="252" style="stroke: #000000; stroke-width: 0.6"/>
      </g>
     </g>
    </g>
    <g id="xtick_16">
     <g id="line2d_16">
      <g>
       <use xlink:href="#me42447f83f" x="266.09505" y="252" style="stroke: #000000; stroke-width: 0.6"/>
      </g>
     </g>
    </g>
    <g id="xtick_17">
     <g id="line2d_17">
      <g>
       <use xlink:href="#me42447f83f" x="278.004305" y="252" style="stroke: #000000; stroke-width: 0.6"/>
      </g>
     </g>
    </g>
    <g id="xtick_18">
     <g id="line2d_18">
      <g>
       <use xlink:href="#me42447f83f" x="287.734874" y="252" style="stroke: #000000; stroke-width: 0.6"/>
      </g>
     </g>
    </g>
    <g id="xtick_19">
     <g id="line2d_19">
      <g>
       <use xlink:href="#me42447f83f" x="295.961953" y="252" style="stroke: #000000; stroke-width: 0.6"/>
      </g>
     </g>
    </g>
    <g id="xtick_20">
     <g id="line2d_20">
      <g>
       <use xlink:href="#me42447f83f" x="303.088573" y="252" style="stroke: #000000; stroke-width: 0.6"/>
      </g>
     </g>
    </g>
    <g id="xtick_21">
     <g id="line2d_21">
      <g>
       <use xlink:href="#me42447f83f" x="309.374698" y="252" style="stroke: #000000; stroke-width: 0.6"/>
      </g>
     </g>
    </g>
    <g id="xtick_22">
     <g id="line2d_22">
      <g>
       <use xlink:href="#me42447f83f" x="351.99135" y="252" style="stroke: #000000; stroke-width: 0.6"/>
      </g>
     </g>
    </g>
    <g id="xtick_23">
     <g id="line2d_23">
      <g>
       <use xlink:href="#me42447f83f" x="373.631174" y="252" style="stroke: #000000; stroke-width: 0.6"/>
      </g>
     </g>
    </g>
    <g id="text_4">
     <!-- Step size -->
     <g transform="translate(198.73125 280.276563)scale(0.1 -0.1)">
      <defs>
       <path id="DejaVuSans-53" d="M 3425 4513 
L 3425 3897 
Q 3066 4069 2747 4153 
Q 2428 4238 2131 4238 
Q 1616 4238 1336 4038 
Q 1056 3838 1056 3469 
Q 1056 3159 1242 3001 
Q 1428 2844 1947 2747 
L 2328 2669 
Q 3034 2534 3370 2195 
Q 3706 1856 3706 1288 
Q 3706 609 3251 259 
Q 2797 -91 1919 -91 
Q 1588 -91 1214 -16 
Q 841 59 441 206 
L 441 856 
Q 825 641 1194 531 
Q 1563 422 1919 422 
Q 2459 422 2753 634 
Q 3047 847 3047 1241 
Q 3047 1584 2836 1778 
Q 2625 1972 2144 2069 
L 1759 2144 
Q 1053 2284 737 2584 
Q 422 2884 422 3419 
Q 422 4038 858 4394 
Q 1294 4750 2059 4750 
Q 2388 4750 2728 4690 
Q 3069 4631 3425 4513 
z
" transform="scale(0.015625)"/>
       <path id="DejaVuSans-74" d="M 1172 4494 
L 1172 3500 
L 2356 3500 
L 2356 3053 
L 1172 3053 
L 1172 1153 
Q 1172 725 1289 603 
Q 1406 481 1766 481 
L 2356 481 
L 2356 0 
L 1766 0 
Q 1100 0 847 248 
Q 594 497 594 1153 
L 594 3053 
L 172 3053 
L 172 3500 
L 594 3500 
L 594 4494 
L 1172 4494 
z
" transform="scale(0.015625)"/>
       <path id="DejaVuSans-65" d="M 3597 1894 
L 3597 1613 
L 953 1613 
Q 991 1019 1311 708 
Q 1631 397 2203 397 
Q 2534 397 2845 478 
Q 3156 559 3463 722 
L 3463 178 
Q 3153 47 2828 -22 
Q 2503 -91 2169 -91 
Q 1331 -91 842 396 
Q 353 884 353 1716 
Q 353 2575 817 3079 
Q 1281 3584 2069 3584 
Q 2775 3584 3186 3129 
Q 3597 2675 3597 1894 
z
M 3022 2063 
Q 3016 2534 2758 2815 
Q 2500 3097 2075 3097 
Q 1594 3097 1305 2825 
Q 1016 2553 972 2059 
L 3022 2063 
z
" transform="scale(0.015625)"/>
       <path id="DejaVuSans-70" d="M 1159 525 
L 1159 -1331 
L 581 -1331 
L 581 3500 
L 1159 3500 
L 1159 2969 
Q 1341 3281 1617 3432 
Q 1894 3584 2278 3584 
Q 2916 3584 3314 3078 
Q 3713 2572 3713 1747 
Q 3713 922 3314 415 
Q 2916 -91 2278 -91 
Q 1894 -91 1617 61 
Q 1341 213 1159 525 
z
M 3116 1747 
Q 3116 2381 2855 2742 
Q 2594 3103 2138 3103 
Q 1681 3103 1420 2742 
Q 1159 2381 1159 1747 
Q 1159 1113 1420 752 
Q 1681 391 2138 391 
Q 2594 391 2855 752 
Q 3116 1113 3116 1747 
z
" transform="scale(0.015625)"/>
       <path id="DejaVuSans-20" transform="scale(0.015625)"/>
       <path id="DejaVuSans-73" d="M 2834 3397 
L 2834 2853 
Q 2591 2978 2328 3040 
Q 2066 3103 1784 3103 
Q 1356 3103 1142 2972 
Q 928 2841 928 2578 
Q 928 2378 1081 2264 
Q 1234 2150 1697 2047 
L 1894 2003 
Q 2506 1872 2764 1633 
Q 3022 1394 3022 966 
Q 3022 478 2636 193 
Q 2250 -91 1575 -91 
Q 1294 -91 989 -36 
Q 684 19 347 128 
L 347 722 
Q 666 556 975 473 
Q 1284 391 1588 391 
Q 1994 391 2212 530 
Q 2431 669 2431 922 
Q 2431 1156 2273 1281 
Q 2116 1406 1581 1522 
L 1381 1569 
Q 847 1681 609 1914 
Q 372 2147 372 2553 
Q 372 3047 722 3315 
Q 1072 3584 1716 3584 
Q 2034 3584 2315 3537 
Q 2597 3491 2834 3397 
z
" transform="scale(0.015625)"/>
       <path id="DejaVuSans-69" d="M 603 3500 
L 1178 3500 
L 1178 0 
L 603 0 
L 603 3500 
z
M 603 4863 
L 1178 4863 
L 1178 4134 
L 603 4134 
L 603 4863 
z
" transform="scale(0.015625)"/>
       <path id="DejaVuSans-7a" d="M 353 3500 
L 3084 3500 
L 3084 2975 
L 922 459 
L 3084 459 
L 3084 0 
L 275 0 
L 275 525 
L 2438 3041 
L 353 3041 
L 353 3500 
z
" transform="scale(0.015625)"/>
      </defs>
      <use xlink:href="#DejaVuSans-53"/>
      <use xlink:href="#DejaVuSans-74" x="63.476562"/>
      <use xlink:href="#DejaVuSans-65" x="102.685547"/>
      <use xlink:href="#DejaVuSans-70" x="164.208984"/>
      <use xlink:href="#DejaVuSans-20" x="227.685547"/>
      <use xlink:href="#DejaVuSans-73" x="259.472656"/>
      <use xlink:href="#DejaVuSans-69" x="311.572266"/>
      <use xlink:href="#DejaVuSans-7a" x="339.355469"/>
      <use xlink:href="#DejaVuSans-65" x="391.845703"/>
     </g>
    </g>
   </g>
   <g id="matplotlib.axis_2">
    <g id="ytick_1">
     <g id="line2d_24">
      <defs>
       <path id="mb3b3516a94" d="M 0 0 
L -3.5 0 
" style="stroke: #000000; stroke-width: 0.8"/>
      </defs>
      <g>
       <use xlink:href="#mb3b3516a94" x="54" y="247.110355" style="stroke: #000000; stroke-width: 0.8"/>
      </g>
     </g>
     <g id="text_5">
      <!-- $\mathdefault{10^{-6}}$ -->
      <g transform="translate(23.5 250.909573)scale(0.1 -0.1)">
       <defs>
        <path id="DejaVuSans-36" d="M 2113 2584 
Q 1688 2584 1439 2293 
Q 1191 2003 1191 1497 
Q 1191 994 1439 701 
Q 1688 409 2113 409 
Q 2538 409 2786 701 
Q 3034 994 3034 1497 
Q 3034 2003 2786 2293 
Q 2538 2584 2113 2584 
z
M 3366 4563 
L 3366 3988 
Q 3128 4100 2886 4159 
Q 2644 4219 2406 4219 
Q 1781 4219 1451 3797 
Q 1122 3375 1075 2522 
Q 1259 2794 1537 2939 
Q 1816 3084 2150 3084 
Q 2853 3084 3261 2657 
Q 3669 2231 3669 1497 
Q 3669 778 3244 343 
Q 2819 -91 2113 -91 
Q 1303 -91 875 529 
Q 447 1150 447 2328 
Q 447 3434 972 4092 
Q 1497 4750 2381 4750 
Q 2619 4750 2861 4703 
Q 3103 4656 3366 4563 
z
" transform="scale(0.015625)"/>
       </defs>
       <use xlink:href="#DejaVuSans-31" transform="translate(0 0.765625)"/>
       <use xlink:href="#DejaVuSans-30" transform="translate(63.623047 0.765625)"/>
       <use xlink:href="#DejaVuSans-2212" transform="translate(128.203125 39.046875)scale(0.7)"/>
       <use xlink:href="#DejaVuSans-36" transform="translate(186.855469 39.046875)scale(0.7)"/>
      </g>
     </g>
    </g>
    <g id="ytick_2">
     <g id="line2d_25">
      <g>
       <use xlink:href="#mb3b3516a94" x="54" y="210.310718" style="stroke: #000000; stroke-width: 0.8"/>
      </g>
     </g>
     <g id="text_6">
      <!-- $\mathdefault{10^{-5}}$ -->
      <g transform="translate(23.5 214.109937)scale(0.1 -0.1)">
       <defs>
        <path id="DejaVuSans-35" d="M 691 4666 
L 3169 4666 
L 3169 4134 
L 1269 4134 
L 1269 2991 
Q 1406 3038 1543 3061 
Q 1681 3084 1819 3084 
Q 2600 3084 3056 2656 
Q 3513 2228 3513 1497 
Q 3513 744 3044 326 
Q 2575 -91 1722 -91 
Q 1428 -91 1123 -41 
Q 819 9 494 109 
L 494 744 
Q 775 591 1075 516 
Q 1375 441 1709 441 
Q 2250 441 2565 725 
Q 2881 1009 2881 1497 
Q 2881 1984 2565 2268 
Q 2250 2553 1709 2553 
Q 1456 2553 1204 2497 
Q 953 2441 691 2322 
L 691 4666 
z
" transform="scale(0.015625)"/>
       </defs>
       <use xlink:href="#DejaVuSans-31" transform="translate(0 0.684375)"/>
       <use xlink:href="#DejaVuSans-30" transform="translate(63.623047 0.684375)"/>
       <use xlink:href="#DejaVuSans-2212" transform="translate(128.203125 38.965625)scale(0.7)"/>
       <use xlink:href="#DejaVuSans-35" transform="translate(186.855469 38.965625)scale(0.7)"/>
      </g>
     </g>
    </g>
    <g id="ytick_3">
     <g id="line2d_26">
      <g>
       <use xlink:href="#mb3b3516a94" x="54" y="173.511081" style="stroke: #000000; stroke-width: 0.8"/>
      </g>
     </g>
     <g id="text_7">
      <!-- $\mathdefault{10^{-4}}$ -->
      <g transform="translate(23.5 177.3103)scale(0.1 -0.1)">
       <defs>
        <path id="DejaVuSans-34" d="M 2419 4116 
L 825 1625 
L 2419 1625 
L 2419 4116 
z
M 2253 4666 
L 3047 4666 
L 3047 1625 
L 3713 1625 
L 3713 1100 
L 3047 1100 
L 3047 0 
L 2419 0 
L 2419 1100 
L 313 1100 
L 313 1709 
L 2253 4666 
z
" transform="scale(0.015625)"/>
       </defs>
       <use xlink:href="#DejaVuSans-31" transform="translate(0 0.684375)"/>
       <use xlink:href="#DejaVuSans-30" transform="translate(63.623047 0.684375)"/>
       <use xlink:href="#DejaVuSans-2212" transform="translate(128.203125 38.965625)scale(0.7)"/>
       <use xlink:href="#DejaVuSans-34" transform="translate(186.855469 38.965625)scale(0.7)"/>
      </g>
     </g>
    </g>
    <g id="ytick_4">
     <g id="line2d_27">
      <g>
       <use xlink:href="#mb3b3516a94" x="54" y="136.711445" style="stroke: #000000; stroke-width: 0.8"/>
      </g>
     </g>
     <g id="text_8">
      <!-- $\mathdefault{10^{-3}}$ -->
      <g transform="translate(23.5 140.510664)scale(0.1 -0.1)">
       <defs>
        <path id="DejaVuSans-33" d="M 2597 2516 
Q 3050 2419 3304 2112 
Q 3559 1806 3559 1356 
Q 3559 666 3084 287 
Q 2609 -91 1734 -91 
Q 1441 -91 1130 -33 
Q 819 25 488 141 
L 488 750 
Q 750 597 1062 519 
Q 1375 441 1716 441 
Q 2309 441 2620 675 
Q 2931 909 2931 1356 
Q 2931 1769 2642 2001 
Q 2353 2234 1838 2234 
L 1294 2234 
L 1294 2753 
L 1863 2753 
Q 2328 2753 2575 2939 
Q 2822 3125 2822 3475 
Q 2822 3834 2567 4026 
Q 2313 4219 1838 4219 
Q 1578 4219 1281 4162 
Q 984 4106 628 3988 
L 628 4550 
Q 988 4650 1302 4700 
Q 1616 4750 1894 4750 
Q 2613 4750 3031 4423 
Q 3450 4097 3450 3541 
Q 3450 3153 3228 2886 
Q 3006 2619 2597 2516 
z
" transform="scale(0.015625)"/>
       </defs>
       <use xlink:href="#DejaVuSans-31" transform="translate(0 0.765625)"/>
       <use xlink:href="#DejaVuSans-30" transform="translate(63.623047 0.765625)"/>
       <use xlink:href="#DejaVuSans-2212" transform="translate(128.203125 39.046875)scale(0.7)"/>
       <use xlink:href="#DejaVuSans-33" transform="translate(186.855469 39.046875)scale(0.7)"/>
      </g>
     </g>
    </g>
    <g id="ytick_5">
     <g id="line2d_28">
      <g>
       <use xlink:href="#mb3b3516a94" x="54" y="99.911808" style="stroke: #000000; stroke-width: 0.8"/>
      </g>
     </g>
     <g id="text_9">
      <!-- $\mathdefault{10^{-2}}$ -->
      <g transform="translate(23.5 103.711027)scale(0.1 -0.1)">
       <use xlink:href="#DejaVuSans-31" transform="translate(0 0.765625)"/>
       <use xlink:href="#DejaVuSans-30" transform="translate(63.623047 0.765625)"/>
       <use xlink:href="#DejaVuSans-2212" transform="translate(128.203125 39.046875)scale(0.7)"/>
       <use xlink:href="#DejaVuSans-32" transform="translate(186.855469 39.046875)scale(0.7)"/>
      </g>
     </g>
    </g>
    <g id="ytick_6">
     <g id="line2d_29">
      <g>
       <use xlink:href="#mb3b3516a94" x="54" y="63.112172" style="stroke: #000000; stroke-width: 0.8"/>
      </g>
     </g>
     <g id="text_10">
      <!-- $\mathdefault{10^{-1}}$ -->
      <g transform="translate(23.5 66.91139)scale(0.1 -0.1)">
       <use xlink:href="#DejaVuSans-31" transform="translate(0 0.684375)"/>
       <use xlink:href="#DejaVuSans-30" transform="translate(63.623047 0.684375)"/>
       <use xlink:href="#DejaVuSans-2212" transform="translate(128.203125 38.965625)scale(0.7)"/>
       <use xlink:href="#DejaVuSans-31" transform="translate(186.855469 38.965625)scale(0.7)"/>
      </g>
     </g>
    </g>
    <g id="ytick_7">
     <g id="line2d_30">
      <defs>
       <path id="m61cfea00d3" d="M 0 0 
L -2 0 
" style="stroke: #000000; stroke-width: 0.6"/>
      </defs>
      <g>
       <use xlink:href="#m61cfea00d3" x="54" y="250.676608" style="stroke: #000000; stroke-width: 0.6"/>
      </g>
     </g>
    </g>
    <g id="ytick_8">
     <g id="line2d_31">
      <g>
       <use xlink:href="#m61cfea00d3" x="54" y="248.794214" style="stroke: #000000; stroke-width: 0.6"/>
      </g>
     </g>
    </g>
    <g id="ytick_9">
     <g id="line2d_32">
      <g>
       <use xlink:href="#m61cfea00d3" x="54" y="236.03256" style="stroke: #000000; stroke-width: 0.6"/>
      </g>
     </g>
    </g>
    <g id="ytick_10">
     <g id="line2d_33">
      <g>
       <use xlink:href="#m61cfea00d3" x="54" y="229.552466" style="stroke: #000000; stroke-width: 0.6"/>
      </g>
     </g>
    </g>
    <g id="ytick_11">
     <g id="line2d_34">
      <g>
       <use xlink:href="#m61cfea00d3" x="54" y="224.954766" style="stroke: #000000; stroke-width: 0.6"/>
      </g>
     </g>
    </g>
    <g id="ytick_12">
     <g id="line2d_35">
      <g>
       <use xlink:href="#m61cfea00d3" x="54" y="221.388513" style="stroke: #000000; stroke-width: 0.6"/>
      </g>
     </g>
    </g>
    <g id="ytick_13">
     <g id="line2d_36">
      <g>
       <use xlink:href="#m61cfea00d3" x="54" y="218.474671" style="stroke: #000000; stroke-width: 0.6"/>
      </g>
     </g>
    </g>
    <g id="ytick_14">
     <g id="line2d_37">
      <g>
       <use xlink:href="#m61cfea00d3" x="54" y="216.011054" style="stroke: #000000; stroke-width: 0.6"/>
      </g>
     </g>
    </g>
    <g id="ytick_15">
     <g id="line2d_38">
      <g>
       <use xlink:href="#m61cfea00d3" x="54" y="213.876971" style="stroke: #000000; stroke-width: 0.6"/>
      </g>
     </g>
    </g>
    <g id="ytick_16">
     <g id="line2d_39">
      <g>
       <use xlink:href="#m61cfea00d3" x="54" y="211.994577" style="stroke: #000000; stroke-width: 0.6"/>
      </g>
     </g>
    </g>
    <g id="ytick_17">
     <g id="line2d_40">
      <g>
       <use xlink:href="#m61cfea00d3" x="54" y="199.232924" style="stroke: #000000; stroke-width: 0.6"/>
      </g>
     </g>
    </g>
    <g id="ytick_18">
     <g id="line2d_41">
      <g>
       <use xlink:href="#m61cfea00d3" x="54" y="192.752829" style="stroke: #000000; stroke-width: 0.6"/>
      </g>
     </g>
    </g>
    <g id="ytick_19">
     <g id="line2d_42">
      <g>
       <use xlink:href="#m61cfea00d3" x="54" y="188.155129" style="stroke: #000000; stroke-width: 0.6"/>
      </g>
     </g>
    </g>
    <g id="ytick_20">
     <g id="line2d_43">
      <g>
       <use xlink:href="#m61cfea00d3" x="54" y="184.588876" style="stroke: #000000; stroke-width: 0.6"/>
      </g>
     </g>
    </g>
    <g id="ytick_21">
     <g id="line2d_44">
      <g>
       <use xlink:href="#m61cfea00d3" x="54" y="181.675035" style="stroke: #000000; stroke-width: 0.6"/>
      </g>
     </g>
    </g>
    <g id="ytick_22">
     <g id="line2d_45">
      <g>
       <use xlink:href="#m61cfea00d3" x="54" y="179.211417" style="stroke: #000000; stroke-width: 0.6"/>
      </g>
     </g>
    </g>
    <g id="ytick_23">
     <g id="line2d_46">
      <g>
       <use xlink:href="#m61cfea00d3" x="54" y="177.077335" style="stroke: #000000; stroke-width: 0.6"/>
      </g>
     </g>
    </g>
    <g id="ytick_24">
     <g id="line2d_47">
      <g>
       <use xlink:href="#m61cfea00d3" x="54" y="175.19494" style="stroke: #000000; stroke-width: 0.6"/>
      </g>
     </g>
    </g>
    <g id="ytick_25">
     <g id="line2d_48">
      <g>
       <use xlink:href="#m61cfea00d3" x="54" y="162.433287" style="stroke: #000000; stroke-width: 0.6"/>
      </g>
     </g>
    </g>
    <g id="ytick_26">
     <g id="line2d_49">
      <g>
       <use xlink:href="#m61cfea00d3" x="54" y="155.953193" style="stroke: #000000; stroke-width: 0.6"/>
      </g>
     </g>
    </g>
    <g id="ytick_27">
     <g id="line2d_50">
      <g>
       <use xlink:href="#m61cfea00d3" x="54" y="151.355493" style="stroke: #000000; stroke-width: 0.6"/>
      </g>
     </g>
    </g>
    <g id="ytick_28">
     <g id="line2d_51">
      <g>
       <use xlink:href="#m61cfea00d3" x="54" y="147.789239" style="stroke: #000000; stroke-width: 0.6"/>
      </g>
     </g>
    </g>
    <g id="ytick_29">
     <g id="line2d_52">
      <g>
       <use xlink:href="#m61cfea00d3" x="54" y="144.875398" style="stroke: #000000; stroke-width: 0.6"/>
      </g>
     </g>
    </g>
    <g id="ytick_30">
     <g id="line2d_53">
      <g>
       <use xlink:href="#m61cfea00d3" x="54" y="142.411781" style="stroke: #000000; stroke-width: 0.6"/>
      </g>
     </g>
    </g>
    <g id="ytick_31">
     <g id="line2d_54">
      <g>
       <use xlink:href="#m61cfea00d3" x="54" y="140.277698" style="stroke: #000000; stroke-width: 0.6"/>
      </g>
     </g>
    </g>
    <g id="ytick_32">
     <g id="line2d_55">
      <g>
       <use xlink:href="#m61cfea00d3" x="54" y="138.395304" style="stroke: #000000; stroke-width: 0.6"/>
      </g>
     </g>
    </g>
    <g id="ytick_33">
     <g id="line2d_56">
      <g>
       <use xlink:href="#m61cfea00d3" x="54" y="125.63365" style="stroke: #000000; stroke-width: 0.6"/>
      </g>
     </g>
    </g>
    <g id="ytick_34">
     <g id="line2d_57">
      <g>
       <use xlink:href="#m61cfea00d3" x="54" y="119.153556" style="stroke: #000000; stroke-width: 0.6"/>
      </g>
     </g>
    </g>
    <g id="ytick_35">
     <g id="line2d_58">
      <g>
       <use xlink:href="#m61cfea00d3" x="54" y="114.555856" style="stroke: #000000; stroke-width: 0.6"/>
      </g>
     </g>
    </g>
    <g id="ytick_36">
     <g id="line2d_59">
      <g>
       <use xlink:href="#m61cfea00d3" x="54" y="110.989603" style="stroke: #000000; stroke-width: 0.6"/>
      </g>
     </g>
    </g>
    <g id="ytick_37">
     <g id="line2d_60">
      <g>
       <use xlink:href="#m61cfea00d3" x="54" y="108.075762" style="stroke: #000000; stroke-width: 0.6"/>
      </g>
     </g>
    </g>
    <g id="ytick_38">
     <g id="line2d_61">
      <g>
       <use xlink:href="#m61cfea00d3" x="54" y="105.612144" style="stroke: #000000; stroke-width: 0.6"/>
      </g>
     </g>
    </g>
    <g id="ytick_39">
     <g id="line2d_62">
      <g>
       <use xlink:href="#m61cfea00d3" x="54" y="103.478062" style="stroke: #000000; stroke-width: 0.6"/>
      </g>
     </g>
    </g>
    <g id="ytick_40">
     <g id="line2d_63">
      <g>
       <use xlink:href="#m61cfea00d3" x="54" y="101.595667" style="stroke: #000000; stroke-width: 0.6"/>
      </g>
     </g>
    </g>
    <g id="ytick_41">
     <g id="line2d_64">
      <g>
       <use xlink:href="#m61cfea00d3" x="54" y="88.834014" style="stroke: #000000; stroke-width: 0.6"/>
      </g>
     </g>
    </g>
    <g id="ytick_42">
     <g id="line2d_65">
      <g>
       <use xlink:href="#m61cfea00d3" x="54" y="82.353919" style="stroke: #000000; stroke-width: 0.6"/>
      </g>
     </g>
    </g>
    <g id="ytick_43">
     <g id="line2d_66">
      <g>
       <use xlink:href="#m61cfea00d3" x="54" y="77.756219" style="stroke: #000000; stroke-width: 0.6"/>
      </g>
     </g>
    </g>
    <g id="ytick_44">
     <g id="line2d_67">
      <g>
       <use xlink:href="#m61cfea00d3" x="54" y="74.189966" style="stroke: #000000; stroke-width: 0.6"/>
      </g>
     </g>
    </g>
    <g id="ytick_45">
     <g id="line2d_68">
      <g>
       <use xlink:href="#m61cfea00d3" x="54" y="71.276125" style="stroke: #000000; stroke-width: 0.6"/>
      </g>
     </g>
    </g>
    <g id="ytick_46">
     <g id="line2d_69">
      <g>
       <use xlink:href="#m61cfea00d3" x="54" y="68.812507" style="stroke: #000000; stroke-width: 0.6"/>
      </g>
     </g>
    </g>
    <g id="ytick_47">
     <g id="line2d_70">
      <g>
       <use xlink:href="#m61cfea00d3" x="54" y="66.678425" style="stroke: #000000; stroke-width: 0.6"/>
      </g>
     </g>
    </g>
    <g id="ytick_48">
     <g id="line2d_71">
      <g>
       <use xlink:href="#m61cfea00d3" x="54" y="64.796031" style="stroke: #000000; stroke-width: 0.6"/>
      </g>
     </g>
    </g>
    <g id="ytick_49">
     <g id="line2d_72">
      <g>
       <use xlink:href="#m61cfea00d3" x="54" y="52.034377" style="stroke: #000000; stroke-width: 0.6"/>
      </g>
     </g>
    </g>
    <g id="ytick_50">
     <g id="line2d_73">
      <g>
       <use xlink:href="#m61cfea00d3" x="54" y="45.554283" style="stroke: #000000; stroke-width: 0.6"/>
      </g>
     </g>
    </g>
    <g id="ytick_51">
     <g id="line2d_74">
      <g>
       <use xlink:href="#m61cfea00d3" x="54" y="40.956583" style="stroke: #000000; stroke-width: 0.6"/>
      </g>
     </g>
    </g>
    <g id="ytick_52">
     <g id="line2d_75">
      <g>
       <use xlink:href="#m61cfea00d3" x="54" y="37.390329" style="stroke: #000000; stroke-width: 0.6"/>
      </g>
     </g>
    </g>
    <g id="text_11">
     <!-- MSE -->
     <g transform="translate(17.420313 153.927656)rotate(-90)scale(0.1 -0.1)">
      <defs>
       <path id="DejaVuSans-4d" d="M 628 4666 
L 1569 4666 
L 2759 1491 
L 3956 4666 
L 4897 4666 
L 4897 0 
L 4281 0 
L 4281 4097 
L 3078 897 
L 2444 897 
L 1241 4097 
L 1241 0 
L 628 0 
L 628 4666 
z
" transform="scale(0.015625)"/>
       <path id="DejaVuSans-45" d="M 628 4666 
L 3578 4666 
L 3578 4134 
L 1259 4134 
L 1259 2753 
L 3481 2753 
L 3481 2222 
L 1259 2222 
L 1259 531 
L 3634 531 
L 3634 0 
L 628 0 
L 628 4666 
z
" transform="scale(0.015625)"/>
      </defs>
      <use xlink:href="#DejaVuSans-4d"/>
      <use xlink:href="#DejaVuSans-53" x="86.279297"/>
      <use xlink:href="#DejaVuSans-45" x="149.755859"/>
     </g>
    </g>
   </g>
   <g id="line2d_76">
    <path d="M 69.218182 208.590504 
L 106.211705 207.609728 
L 128.029134 207.639699 
L 143.605336 207.480598 
L 155.755343 207.848921 
L 165.736018 206.653102 
L 174.218739 206.961048 
L 181.604627 207.828791 
L 188.152583 206.948168 
L 194.039473 207.820091 
L 199.391495 206.951088 
L 204.301858 205.867056 
L 208.841365 207.235706 
L 213.065064 206.971883 
L 220.731165 206.969332 
L 224.237546 206.221473 
L 227.559593 206.857861 
L 230.717286 207.25471 
L 233.72753 206.856458 
L 236.604754 206.922293 
L 239.361375 208.100055 
L 242.008153 206.084936 
L 244.554474 206.997929 
L 247.008574 205.938773 
L 249.37772 206.589339 
L 251.668359 206.576113 
L 253.886229 208.825761 
L 256.03647 207.497456 
L 258.123694 208.119102 
L 260.152063 207.809814 
L 262.125342 206.334844 
L 264.046946 206.312052 
L 265.919987 207.98844 
L 267.747305 206.305097 
L 269.5315 206.238963 
L 271.274959 207.369718 
L 272.979878 205.662107 
L 274.64828 207.869612 
L 276.282037 207.033386 
L 279.452418 207.855708 
L 280.992142 206.378199 
L 282.503444 205.113431 
L 283.987621 206.838934 
L 285.445883 207.112596 
L 286.879363 205.0347 
L 288.289123 207.181455 
L 289.676159 207.180367 
L 291.041407 206.89213 
L 292.385745 206.915006 
L 293.710003 207.12832 
L 295.014963 207.641217 
L 296.30136 207.662812 
L 297.569893 205.410863 
L 298.82122 206.658633 
L 300.055965 207.32818 
L 302.478046 206.629827 
L 303.666476 207.473661 
L 304.840517 206.365327 
L 306.00065 206.019876 
L 307.147333 205.85182 
L 308.281004 206.422743 
L 309.40208 207.674391 
L 310.510957 207.433214 
L 311.608015 206.599092 
L 313.768109 206.71954 
L 314.831824 207.896869 
L 315.885079 206.261748 
L 316.928178 206.10702 
L 317.961413 207.308625 
L 318.985063 207.632176 
L 319.999398 206.08252 
L 321.004675 206.11015 
L 322.001142 208.378641 
L 322.989036 205.919631 
L 323.968587 206.676581 
L 325.903532 207.346427 
L 326.859342 206.400028 
L 327.807642 207.160051 
L 328.748622 206.517357 
L 329.682465 207.242461 
L 330.609348 206.28167 
L 331.52944 207.188378 
L 332.442906 207.419024 
L 333.349906 205.413807 
L 334.250593 206.403423 
L 336.033616 207.483359 
L 336.916235 205.832094 
L 337.793106 207.169105 
L 339.530122 206.205228 
L 340.390515 206.64224 
L 341.245658 206.207042 
L 342.095664 206.432012 
L 342.940646 206.052213 
L 343.78071 206.265854 
L 344.615963 206.834829 
L 345.446505 206.629414 
L 346.272435 207.116452 
L 347.09385 207.445549 
L 347.910841 205.988743 
L 348.7235 206.505704 
L 349.531915 207.265204 
L 350.336171 207.739802 
L 351.136351 207.022668 
L 351.932536 206.771987 
L 352.724804 206.045407 
L 353.513233 206.395512 
L 354.297897 206.967737 
L 355.078868 207.75476 
L 355.856217 207.388096 
L 356.630012 206.757988 
L 357.400322 205.957621 
L 358.16721 207.536984 
L 358.930741 206.506271 
L 359.690977 205.765828 
L 360.447979 207.983078 
L 361.201805 205.451567 
L 361.952513 206.010666 
L 362.700159 206.240784 
L 363.444798 206.703855 
L 364.186483 208.155947 
L 364.925268 207.022141 
L 365.661202 207.65945 
L 366.394335 206.369251 
L 367.852395 206.68454 
L 368.577414 206.267495 
L 369.299822 206.616668 
L 370.019661 206.162505 
L 370.736975 206.465181 
L 371.451807 206.417979 
L 372.164198 207.285496 
L 372.874188 205.521519 
L 373.581818 207.236566 
L 373.581818 207.236566 
" clip-path="url(#p3c02cc3a36)" style="fill: none; stroke: #1f77b4; stroke-width: 1.5; stroke-linecap: square"/>
   </g>
   <g id="line2d_77">
    <path d="M 69.218182 58.681483 
L 106.211705 81.731082 
L 128.029134 94.777816 
L 155.755343 111.600811 
L 165.736018 116.872547 
L 174.218739 120.774373 
L 181.604627 126.016083 
L 188.152583 129.89522 
L 194.039473 134.721881 
L 199.391495 137.754565 
L 204.301858 141.79893 
L 208.841365 144.293953 
L 213.065064 145.69557 
L 217.0166 148.526458 
L 220.731165 149.665506 
L 224.237546 151.516134 
L 227.559593 154.26636 
L 230.717286 156.614652 
L 233.72753 159.074876 
L 236.604754 160.452525 
L 239.361375 161.990855 
L 242.008153 162.967099 
L 244.554474 165.363562 
L 249.37772 166.608169 
L 251.668359 169.838571 
L 253.886229 170.900922 
L 256.03647 171.563188 
L 258.123694 173.318856 
L 260.152063 173.850014 
L 264.046946 175.422218 
L 265.919987 179.075424 
L 267.747305 177.858855 
L 269.5315 180.042008 
L 271.274959 179.096789 
L 272.979878 183.475552 
L 274.64828 183.536248 
L 276.282037 183.13124 
L 277.882881 184.86853 
L 279.452418 183.675537 
L 280.992142 186.362521 
L 283.987621 186.999505 
L 285.445883 188.526678 
L 286.879363 191.081793 
L 288.289123 191.10062 
L 289.676159 191.620738 
L 291.041407 191.511032 
L 292.385745 193.008698 
L 295.014963 195.350523 
L 297.569893 197.140053 
L 298.82122 198.376802 
L 300.055965 197.679682 
L 301.27472 198.348201 
L 302.478046 198.3459 
L 303.666476 200.269919 
L 304.840517 200.592217 
L 306.00065 201.986071 
L 307.147333 202.091326 
L 308.281004 203.397488 
L 309.40208 204.511685 
L 310.510957 204.091855 
L 311.608015 205.444828 
L 312.693617 204.912448 
L 313.768109 206.282493 
L 314.831824 206.12898 
L 315.885079 206.800882 
L 316.928178 207.948738 
L 317.961413 207.957524 
L 318.985063 208.900059 
L 319.999398 210.915401 
L 321.004675 210.643811 
L 322.001142 210.026035 
L 322.989036 212.256518 
L 323.968587 211.710481 
L 324.940015 212.799475 
L 325.903532 213.571099 
L 326.859342 212.847578 
L 327.807642 213.721009 
L 328.748622 213.886923 
L 329.682465 216.276695 
L 330.609348 215.317348 
L 331.52944 216.442641 
L 332.442906 216.536531 
L 333.349906 217.438179 
L 334.250593 218.146183 
L 335.145115 219.006496 
L 336.033616 218.560283 
L 336.916235 220.582767 
L 337.793106 220.619854 
L 338.66436 221.359892 
L 339.530122 221.888794 
L 340.390515 222.160625 
L 341.245658 223.754604 
L 342.095664 222.820612 
L 342.940646 223.351654 
L 343.78071 223.364732 
L 344.615963 223.874983 
L 345.446505 225.737614 
L 346.272435 226.536207 
L 347.09385 225.610116 
L 348.7235 228.301899 
L 349.531915 228.19386 
L 350.336171 228.517413 
L 351.136351 229.151709 
L 351.932536 227.079562 
L 352.724804 228.948073 
L 353.513233 229.988104 
L 354.297897 231.781207 
L 355.078868 231.211459 
L 355.856217 230.800313 
L 356.630012 232.718254 
L 357.400322 233.513205 
L 358.16721 232.857164 
L 358.930741 233.042251 
L 359.690977 233.669213 
L 360.447979 233.965975 
L 361.201805 234.570578 
L 361.952513 234.690319 
L 362.700159 233.666136 
L 363.444798 234.201175 
L 364.186483 236.193937 
L 364.925268 236.665456 
L 366.394335 237.302944 
L 367.124717 236.68581 
L 367.852395 239.033056 
L 368.577414 238.704569 
L 369.299822 239.751922 
L 370.019661 239.681849 
L 370.736975 240.655319 
L 371.451807 240.184517 
L 372.874188 241.168332 
L 373.581818 242.116364 
L 373.581818 242.116364 
" clip-path="url(#p3c02cc3a36)" style="fill: none; stroke: #ff7f0e; stroke-width: 1.5; stroke-linecap: square"/>
   </g>
   <g id="patch_3">
    <path d="M 54 252 
L 54 34.56 
" style="fill: none; stroke: #000000; stroke-width: 0.8; stroke-linejoin: miter; stroke-linecap: square"/>
   </g>
   <g id="patch_4">
    <path d="M 388.8 252 
L 388.8 34.56 
" style="fill: none; stroke: #000000; stroke-width: 0.8; stroke-linejoin: miter; stroke-linecap: square"/>
   </g>
   <g id="patch_5">
    <path d="M 54 252 
L 388.8 252 
" style="fill: none; stroke: #000000; stroke-width: 0.8; stroke-linejoin: miter; stroke-linecap: square"/>
   </g>
   <g id="patch_6">
    <path d="M 54 34.56 
L 388.8 34.56 
" style="fill: none; stroke: #000000; stroke-width: 0.8; stroke-linejoin: miter; stroke-linecap: square"/>
   </g>
   <g id="text_12">
    <!-- y parameter -->
    <g transform="translate(184.265625 28.56)scale(0.12 -0.12)">
     <defs>
      <path id="DejaVuSans-79" d="M 2059 -325 
Q 1816 -950 1584 -1140 
Q 1353 -1331 966 -1331 
L 506 -1331 
L 506 -850 
L 844 -850 
Q 1081 -850 1212 -737 
Q 1344 -625 1503 -206 
L 1606 56 
L 191 3500 
L 800 3500 
L 1894 763 
L 2988 3500 
L 3597 3500 
L 2059 -325 
z
" transform="scale(0.015625)"/>
      <path id="DejaVuSans-61" d="M 2194 1759 
Q 1497 1759 1228 1600 
Q 959 1441 959 1056 
Q 959 750 1161 570 
Q 1363 391 1709 391 
Q 2188 391 2477 730 
Q 2766 1069 2766 1631 
L 2766 1759 
L 2194 1759 
z
M 3341 1997 
L 3341 0 
L 2766 0 
L 2766 531 
Q 2569 213 2275 61 
Q 1981 -91 1556 -91 
Q 1019 -91 701 211 
Q 384 513 384 1019 
Q 384 1609 779 1909 
Q 1175 2209 1959 2209 
L 2766 2209 
L 2766 2266 
Q 2766 2663 2505 2880 
Q 2244 3097 1772 3097 
Q 1472 3097 1187 3025 
Q 903 2953 641 2809 
L 641 3341 
Q 956 3463 1253 3523 
Q 1550 3584 1831 3584 
Q 2591 3584 2966 3190 
Q 3341 2797 3341 1997 
z
" transform="scale(0.015625)"/>
      <path id="DejaVuSans-72" d="M 2631 2963 
Q 2534 3019 2420 3045 
Q 2306 3072 2169 3072 
Q 1681 3072 1420 2755 
Q 1159 2438 1159 1844 
L 1159 0 
L 581 0 
L 581 3500 
L 1159 3500 
L 1159 2956 
Q 1341 3275 1631 3429 
Q 1922 3584 2338 3584 
Q 2397 3584 2469 3576 
Q 2541 3569 2628 3553 
L 2631 2963 
z
" transform="scale(0.015625)"/>
      <path id="DejaVuSans-6d" d="M 3328 2828 
Q 3544 3216 3844 3400 
Q 4144 3584 4550 3584 
Q 5097 3584 5394 3201 
Q 5691 2819 5691 2113 
L 5691 0 
L 5113 0 
L 5113 2094 
Q 5113 2597 4934 2840 
Q 4756 3084 4391 3084 
Q 3944 3084 3684 2787 
Q 3425 2491 3425 1978 
L 3425 0 
L 2847 0 
L 2847 2094 
Q 2847 2600 2669 2842 
Q 2491 3084 2119 3084 
Q 1678 3084 1418 2786 
Q 1159 2488 1159 1978 
L 1159 0 
L 581 0 
L 581 3500 
L 1159 3500 
L 1159 2956 
Q 1356 3278 1631 3431 
Q 1906 3584 2284 3584 
Q 2666 3584 2933 3390 
Q 3200 3197 3328 2828 
z
" transform="scale(0.015625)"/>
     </defs>
     <use xlink:href="#DejaVuSans-79"/>
     <use xlink:href="#DejaVuSans-20" x="59.179688"/>
     <use xlink:href="#DejaVuSans-70" x="90.966797"/>
     <use xlink:href="#DejaVuSans-61" x="154.443359"/>
     <use xlink:href="#DejaVuSans-72" x="215.722656"/>
     <use xlink:href="#DejaVuSans-61" x="256.835938"/>
     <use xlink:href="#DejaVuSans-6d" x="318.115234"/>
     <use xlink:href="#DejaVuSans-65" x="415.527344"/>
     <use xlink:href="#DejaVuSans-74" x="477.050781"/>
     <use xlink:href="#DejaVuSans-65" x="516.259766"/>
     <use xlink:href="#DejaVuSans-72" x="577.783203"/>
    </g>
   </g>
   <g id="legend_1">
    <g id="patch_7">
     <path d="M 249.8875 71.91625 
L 381.8 71.91625 
Q 383.8 71.91625 383.8 69.91625 
L 383.8 41.56 
Q 383.8 39.56 381.8 39.56 
L 249.8875 39.56 
Q 247.8875 39.56 247.8875 41.56 
L 247.8875 69.91625 
Q 247.8875 71.91625 249.8875 71.91625 
z
" style="fill: #ffffff; opacity: 0.8; stroke: #cccccc; stroke-linejoin: miter"/>
    </g>
    <g id="line2d_78">
     <path d="M 251.8875 47.658437 
L 261.8875 47.658437 
L 271.8875 47.658437 
" style="fill: none; stroke: #1f77b4; stroke-width: 1.5; stroke-linecap: square"/>
    </g>
    <g id="text_13">
     <!-- parameter-shift rule -->
     <g transform="translate(279.8875 51.158437)scale(0.1 -0.1)">
      <defs>
       <path id="DejaVuSans-2d" d="M 313 2009 
L 1997 2009 
L 1997 1497 
L 313 1497 
L 313 2009 
z
" transform="scale(0.015625)"/>
       <path id="DejaVuSans-68" d="M 3513 2113 
L 3513 0 
L 2938 0 
L 2938 2094 
Q 2938 2591 2744 2837 
Q 2550 3084 2163 3084 
Q 1697 3084 1428 2787 
Q 1159 2491 1159 1978 
L 1159 0 
L 581 0 
L 581 4863 
L 1159 4863 
L 1159 2956 
Q 1366 3272 1645 3428 
Q 1925 3584 2291 3584 
Q 2894 3584 3203 3211 
Q 3513 2838 3513 2113 
z
" transform="scale(0.015625)"/>
       <path id="DejaVuSans-66" d="M 2375 4863 
L 2375 4384 
L 1825 4384 
Q 1516 4384 1395 4259 
Q 1275 4134 1275 3809 
L 1275 3500 
L 2222 3500 
L 2222 3053 
L 1275 3053 
L 1275 0 
L 697 0 
L 697 3053 
L 147 3053 
L 147 3500 
L 697 3500 
L 697 3744 
Q 697 4328 969 4595 
Q 1241 4863 1831 4863 
L 2375 4863 
z
" transform="scale(0.015625)"/>
       <path id="DejaVuSans-75" d="M 544 1381 
L 544 3500 
L 1119 3500 
L 1119 1403 
Q 1119 906 1312 657 
Q 1506 409 1894 409 
Q 2359 409 2629 706 
Q 2900 1003 2900 1516 
L 2900 3500 
L 3475 3500 
L 3475 0 
L 2900 0 
L 2900 538 
Q 2691 219 2414 64 
Q 2138 -91 1772 -91 
Q 1169 -91 856 284 
Q 544 659 544 1381 
z
M 1991 3584 
L 1991 3584 
z
" transform="scale(0.015625)"/>
       <path id="DejaVuSans-6c" d="M 603 4863 
L 1178 4863 
L 1178 0 
L 603 0 
L 603 4863 
z
" transform="scale(0.015625)"/>
      </defs>
      <use xlink:href="#DejaVuSans-70"/>
      <use xlink:href="#DejaVuSans-61" x="63.476562"/>
      <use xlink:href="#DejaVuSans-72" x="124.755859"/>
      <use xlink:href="#DejaVuSans-61" x="165.869141"/>
      <use xlink:href="#DejaVuSans-6d" x="227.148438"/>
      <use xlink:href="#DejaVuSans-65" x="324.560547"/>
      <use xlink:href="#DejaVuSans-74" x="386.083984"/>
      <use xlink:href="#DejaVuSans-65" x="425.292969"/>
      <use xlink:href="#DejaVuSans-72" x="486.816406"/>
      <use xlink:href="#DejaVuSans-2d" x="521.554688"/>
      <use xlink:href="#DejaVuSans-73" x="557.638672"/>
      <use xlink:href="#DejaVuSans-68" x="609.738281"/>
      <use xlink:href="#DejaVuSans-69" x="673.117188"/>
      <use xlink:href="#DejaVuSans-66" x="700.900391"/>
      <use xlink:href="#DejaVuSans-74" x="734.355469"/>
      <use xlink:href="#DejaVuSans-20" x="773.564453"/>
      <use xlink:href="#DejaVuSans-72" x="805.351562"/>
      <use xlink:href="#DejaVuSans-75" x="846.464844"/>
      <use xlink:href="#DejaVuSans-6c" x="909.84375"/>
      <use xlink:href="#DejaVuSans-65" x="937.626953"/>
     </g>
    </g>
    <g id="line2d_79">
     <path d="M 251.8875 62.336562 
L 261.8875 62.336562 
L 271.8875 62.336562 
" style="fill: none; stroke: #ff7f0e; stroke-width: 1.5; stroke-linecap: square"/>
    </g>
    <g id="text_14">
     <!-- finite-different -->
     <g transform="translate(279.8875 65.836562)scale(0.1 -0.1)">
      <defs>
       <path id="DejaVuSans-6e" d="M 3513 2113 
L 3513 0 
L 2938 0 
L 2938 2094 
Q 2938 2591 2744 2837 
Q 2550 3084 2163 3084 
Q 1697 3084 1428 2787 
Q 1159 2491 1159 1978 
L 1159 0 
L 581 0 
L 581 3500 
L 1159 3500 
L 1159 2956 
Q 1366 3272 1645 3428 
Q 1925 3584 2291 3584 
Q 2894 3584 3203 3211 
Q 3513 2838 3513 2113 
z
" transform="scale(0.015625)"/>
       <path id="DejaVuSans-64" d="M 2906 2969 
L 2906 4863 
L 3481 4863 
L 3481 0 
L 2906 0 
L 2906 525 
Q 2725 213 2448 61 
Q 2172 -91 1784 -91 
Q 1150 -91 751 415 
Q 353 922 353 1747 
Q 353 2572 751 3078 
Q 1150 3584 1784 3584 
Q 2172 3584 2448 3432 
Q 2725 3281 2906 2969 
z
M 947 1747 
Q 947 1113 1208 752 
Q 1469 391 1925 391 
Q 2381 391 2643 752 
Q 2906 1113 2906 1747 
Q 2906 2381 2643 2742 
Q 2381 3103 1925 3103 
Q 1469 3103 1208 2742 
Q 947 2381 947 1747 
z
" transform="scale(0.015625)"/>
      </defs>
      <use xlink:href="#DejaVuSans-66"/>
      <use xlink:href="#DejaVuSans-69" x="35.205078"/>
      <use xlink:href="#DejaVuSans-6e" x="62.988281"/>
      <use xlink:href="#DejaVuSans-69" x="126.367188"/>
      <use xlink:href="#DejaVuSans-74" x="154.150391"/>
      <use xlink:href="#DejaVuSans-65" x="193.359375"/>
      <use xlink:href="#DejaVuSans-2d" x="254.882812"/>
      <use xlink:href="#DejaVuSans-64" x="290.966797"/>
      <use xlink:href="#DejaVuSans-69" x="354.443359"/>
      <use xlink:href="#DejaVuSans-66" x="382.226562"/>
      <use xlink:href="#DejaVuSans-66" x="417.431641"/>
      <use xlink:href="#DejaVuSans-65" x="452.636719"/>
      <use xlink:href="#DejaVuSans-72" x="514.160156"/>
      <use xlink:href="#DejaVuSans-65" x="553.023438"/>
      <use xlink:href="#DejaVuSans-6e" x="614.546875"/>
      <use xlink:href="#DejaVuSans-74" x="677.925781"/>
     </g>
    </g>
   </g>
  </g>
 </g>
 <defs>
  <clipPath id="p3c02cc3a36">
   <rect x="54" y="34.56" width="334.8" height="217.44"/>
  </clipPath>
 </defs>
</svg>
